<?xml version="1.0" encoding="UTF-8" standalone="no"?>
<svg
   version="1.1"
   viewBox="0 0 560 308"
   fill="none"
   stroke="none"
   stroke-linecap="square"
   stroke-miterlimit="10"
   id="svg44"
   sodipodi:docname="graph-workflow-nodes.svg"
   width="560"
   height="308"
   inkscape:version="1.4.3 (0d15f75, 2025-12-25)"
   xmlns:inkscape="http://www.inkscape.org/namespaces/inkscape"
   xmlns:sodipodi="http://sodipodi.sourceforge.net/DTD/sodipodi-0.dtd"
   xmlns="http://www.w3.org/2000/svg"
   xmlns:svg="http://www.w3.org/2000/svg">
  <defs
     id="defs44" />
  <sodipodi:namedview
     id="namedview44"
     pagecolor="#ffffff"
     bordercolor="#666666"
     borderopacity="1.0"
     inkscape:showpageshadow="2"
     inkscape:pageopacity="0.0"
     inkscape:pagecheckerboard="0"
     inkscape:deskcolor="#d1d1d1"
     inkscape:zoom="0.93333333"
     inkscape:cx="454.28571"
     inkscape:cy="238.39286"
     inkscape:window-width="1919"
     inkscape:window-height="1108"
     inkscape:window-x="1621"
     inkscape:window-y="390"
     inkscape:window-maximized="0"
     inkscape:current-layer="svg44" />
  <path
     fill="#f8f9fa"
     d="m 7.9999999,28.698785 c 0,-9.656422 7.8280751,-17.484499 17.4844971,-17.484499 H 535.49184 c 4.63721,0 9.08448,1.842112 12.36347,5.121092 3.27893,3.27898 5.12103,7.726231 5.12103,12.363407 V 278.95814 c 0,9.65643 -7.82806,17.4845 -17.4845,17.4845 H 25.484497 c -9.656422,0 -17.4844971,-7.82807 -17.4844971,-17.4845 z"
     fill-rule="evenodd"
     id="path3" />
  <path
     stroke="#bdc1c6"
     stroke-width="1"
     stroke-linejoin="round"
     stroke-linecap="butt"
     d="m 7.9999999,28.698785 c 0,-9.656422 7.8280751,-17.484499 17.4844971,-17.484499 H 535.49184 c 4.63721,0 9.08448,1.842112 12.36347,5.121092 3.27893,3.27898 5.12103,7.726231 5.12103,12.363407 V 278.95814 c 0,9.65643 -7.82806,17.4845 -17.4845,17.4845 H 25.484497 c -9.656422,0 -17.4844971,-7.82807 -17.4844971,-17.4845 z"
     fill-rule="evenodd"
     id="path4" />
  <path
     fill="#000000"
     d="m 26.433536,37.257823 2.265625,-7.9375 h 1.09375 l -0.640625,3.078125 -2.421875,8.296875 h -1.09375 z m -2.328125,-7.9375 1.796875,7.78125 0.53125,3.59375 h -1.078125 l -2.75,-11.375 z m 8.609375,7.765625 1.75,-7.765625 h 1.515625 l -2.75,11.375 h -1.078125 z m -2.765625,-7.765625 2.203125,7.9375 0.796875,3.4375 h -1.09375 l -2.34375,-8.296875 -0.640625,-3.078125 z m 6.84375,7.234375 v -0.171875 q 0,-0.921875 0.265625,-1.703125 0.265625,-0.78125 0.765625,-1.359375 0.5,-0.59375 1.203125,-0.90625 0.71875,-0.328125 1.609375,-0.328125 0.890625,0 1.59375,0.328125 0.71875,0.3125 1.21875,0.90625 0.515625,0.578125 0.78125,1.359375 0.265625,0.78125 0.265625,1.703125 v 0.171875 q 0,0.921875 -0.265625,1.703125 -0.265625,0.78125 -0.78125,1.359375 -0.5,0.578125 -1.203125,0.90625 -0.703125,0.328125 -1.59375,0.328125 -0.890625,0 -1.609375,-0.328125 -0.703125,-0.328125 -1.21875,-0.90625 -0.5,-0.578125 -0.765625,-1.359375 -0.265625,-0.78125 -0.265625,-1.703125 z m 1.453125,-0.171875 v 0.171875 q 0,0.640625 0.140625,1.203125 0.15625,0.546875 0.453125,0.984375 0.296875,0.421875 0.75,0.671875 0.453125,0.25 1.0625,0.25 0.59375,0 1.03125,-0.25 0.453125,-0.25 0.75,-0.671875 0.296875,-0.4375 0.453125,-0.984375 0.15625,-0.5625 0.15625,-1.203125 v -0.171875 q 0,-0.625 -0.15625,-1.1875 -0.15625,-0.5625 -0.453125,-0.984375 -0.296875,-0.4375 -0.75,-0.6875 -0.453125,-0.25 -1.046875,-0.25 -0.59375,0 -1.046875,0.25 -0.453125,0.25 -0.75,0.6875 -0.296875,0.421875 -0.453125,0.984375 -0.140625,0.5625 -0.140625,1.1875 z m 9.499996,-2.8125 v 7.125 h -1.4375 v -8.453125 h 1.40625 z m 2.640625,-1.375 v 1.34375 q -0.1875,-0.04687 -0.34375,-0.04687 -0.15625,-0.01563 -0.359375,-0.01563 -0.5,0 -0.890625,0.15625 -0.375,0.15625 -0.640625,0.4375 -0.265625,0.28125 -0.421875,0.671875 -0.15625,0.375 -0.203125,0.84375 l -0.40625,0.234375 q 0,-0.765625 0.15625,-1.4375 0.15625,-0.671875 0.46875,-1.1875 0.328125,-0.53125 0.8125,-0.8125 0.5,-0.296875 1.1875,-0.296875 0.15625,0 0.359375,0.03125 0.203125,0.03125 0.28125,0.07813 z m 2.796875,-3.5 v 12 h -1.453125 v -12 z m 5.15625,3.546875 -3.6875,3.9375 -2.0625,2.140625 -0.109375,-1.53125 1.46875,-1.765625 2.625,-2.78125 z m -1.3125,8.453125 -3.015625,-4.03125 0.75,-1.296875 3.96875,5.328125 z m 4.96875,0 h -1.453125 v -9.34375 q 0,-0.921875 0.34375,-1.546875 0.34375,-0.625 0.984375,-0.953125 0.640625,-0.328125 1.5625,-0.328125 0.34375,0 0.859375,0.07813 0.53125,0.0625 1.109375,0.171875 0.59375,0.109375 1.15625,0.234375 l -0.671875,1.046875 q -0.734375,-0.140625 -1.328125,-0.21875 -0.59375,-0.07813 -1.015625,-0.07813 -0.5,0 -0.859375,0.1875 -0.34375,0.1875 -0.515625,0.546875 -0.171875,0.34375 -0.171875,0.859375 z m 3.125,0 v -11.6875 h 1.4375 v 11.6875 z m -1.328125,-8.453125 v 1.109375 h -4.578125 v -1.109375 z m 4.742187,4.3125 v -0.171875 q 0,-0.921875 0.265625,-1.703125 0.265625,-0.78125 0.765625,-1.359375 0.5,-0.59375 1.203125,-0.90625 0.71875,-0.328125 1.609375,-0.328125 0.890625,0 1.59375,0.328125 0.71875,0.3125 1.21875,0.90625 0.515625,0.578125 0.78125,1.359375 0.265625,0.78125 0.265625,1.703125 v 0.171875 q 0,0.921875 -0.265625,1.703125 -0.265625,0.78125 -0.78125,1.359375 -0.5,0.578125 -1.203125,0.90625 -0.703125,0.328125 -1.59375,0.328125 -0.890625,0 -1.609375,-0.328125 -0.703125,-0.328125 -1.21875,-0.90625 -0.5,-0.578125 -0.765625,-1.359375 -0.265625,-0.78125 -0.265625,-1.703125 z m 1.453125,-0.171875 v 0.171875 q 0,0.640625 0.140625,1.203125 0.15625,0.546875 0.453125,0.984375 0.296875,0.421875 0.75,0.671875 0.453125,0.25 1.0625,0.25 0.59375,0 1.03125,-0.25 0.453125,-0.25 0.75,-0.671875 0.296875,-0.4375 0.453125,-0.984375 0.15625,-0.5625 0.15625,-1.203125 v -0.171875 q 0,-0.625 -0.15625,-1.1875 -0.15625,-0.5625 -0.453125,-0.984375 -0.296875,-0.4375 -0.75,-0.6875 -0.453125,-0.25 -1.046875,-0.25 -0.59375,0 -1.046875,0.25 -0.453125,0.25 -0.75,0.6875 -0.296875,0.421875 -0.453125,0.984375 -0.140625,0.5625 -0.140625,1.1875 z m 10.203125,2.8125 2.171879,-6.953125 h 0.95312 l -0.1875,1.375 -2.218749,7.078125 h -0.921875 z m -1.46875,-6.953125 1.859375,7.03125 0.125,1.421875 h -0.96875 l -2.453125,-8.453125 z m 6.671879,6.96875 1.76562,-6.96875 h 1.4375 l -2.45312,8.453125 h -0.96875 z m -1.875,-6.96875 2.125,6.828125 0.25,1.625 h -0.92188 l -2.28125,-7.09375 -0.1875,-1.359375 z m 14.94531,-1.921875 -3.76563,10.375 h -1.53125 l 4.32813,-11.375 h 1 z m 3.156247,10.375 -3.765627,-10.375 -0.0312,-1 h 1 l 4.343747,11.375 z m -0.1875,-4.21875 v 1.234375 h -6.390627 v -1.234375 z"
     fill-rule="nonzero"
     id="path5" />
  <path
     fill="#ffd966"
     d="m 275.85681,41.064502 c 0,-7.725121 6.26245,-13.987564 13.98758,-13.987564 h 227.7414 c 3.70972,0 7.26752,1.473682 9.89068,4.096863 2.62317,2.623177 4.09687,6.180969 4.09687,9.890701 V 125.6563 c 0,7.72512 -6.26245,13.98758 -13.98755,13.98758 h -227.7414 c -7.72513,0 -13.98758,-6.26246 -13.98758,-13.98758 z"
     fill-rule="evenodd"
     id="path6" />
  <path
     stroke="#bdc1c6"
     stroke-width="1"
     stroke-linejoin="round"
     stroke-linecap="butt"
     d="m 275.85681,41.064502 c 0,-7.725121 6.26245,-13.987564 13.98758,-13.987564 h 227.7414 c 3.70972,0 7.26752,1.473682 9.89068,4.096863 2.62317,2.623177 4.09687,6.180969 4.09687,9.890701 V 125.6563 c 0,7.72512 -6.26245,13.98758 -13.98755,13.98758 h -227.7414 c -7.72513,0 -13.98758,-6.26246 -13.98758,-13.98758 z"
     fill-rule="evenodd"
     id="path7" />
  <path
     fill="#000000"
     d="m 293.26614,52.096255 2.26562,-7.9375 h 1.09375 l -0.64062,3.078125 -2.42188,8.296875 h -1.09375 z m -2.32813,-7.9375 1.79688,7.78125 0.53125,3.59375 h -1.07813 l -2.75,-11.375 z m 8.60938,7.765625 1.75,-7.765625 h 1.51562 l -2.75,11.375 h -1.07812 z m -2.76563,-7.765625 2.20313,7.9375 0.79687,3.4375 h -1.09375 l -2.34375,-8.296875 -0.64062,-3.078125 z m 6.84375,7.234375 v -0.171875 q 0,-0.921875 0.26563,-1.703125 0.26562,-0.78125 0.76562,-1.359375 0.5,-0.59375 1.20313,-0.90625 0.71875,-0.328125 1.60937,-0.328125 0.89063,0 1.59375,0.328125 0.71875,0.3125 1.21875,0.90625 0.51563,0.578125 0.78125,1.359375 0.26563,0.78125 0.26563,1.703125 v 0.171875 q 0,0.921875 -0.26563,1.703125 -0.26562,0.78125 -0.78125,1.359375 -0.5,0.578125 -1.20312,0.90625 -0.70313,0.328125 -1.59375,0.328125 -0.89063,0 -1.60938,-0.328125 -0.70312,-0.328125 -1.21875,-0.90625 -0.5,-0.578125 -0.76562,-1.359375 -0.26563,-0.78125 -0.26563,-1.703125 z m 1.45313,-0.171875 v 0.171875 q 0,0.640625 0.14062,1.203125 0.15625,0.546875 0.45313,0.984375 0.29687,0.421875 0.75,0.671875 0.45312,0.25 1.0625,0.25 0.59375,0 1.03125,-0.25 0.45312,-0.25 0.75,-0.671875 0.29687,-0.4375 0.45312,-0.984375 0.15625,-0.5625 0.15625,-1.203125 v -0.171875 q 0,-0.625 -0.15625,-1.1875 -0.15625,-0.5625 -0.45312,-0.984375 -0.29688,-0.4375 -0.75,-0.6875 -0.45313,-0.25 -1.04688,-0.25 -0.59375,0 -1.04687,0.25 -0.45313,0.25 -0.75,0.6875 -0.29688,0.421875 -0.45313,0.984375 -0.14062,0.5625 -0.14062,1.1875 z m 9.5,-2.8125 v 7.125 h -1.4375 V 47.08063 h 1.40625 z m 2.64062,-1.375 v 1.34375 q -0.1875,-0.04687 -0.34375,-0.04687 -0.15625,-0.01563 -0.35937,-0.01563 -0.5,0 -0.89063,0.15625 -0.375,0.15625 -0.64062,0.4375 -0.26563,0.28125 -0.42188,0.671875 -0.15625,0.375 -0.20312,0.84375 l -0.40625,0.234375 q 0,-0.765625 0.15625,-1.4375 0.15625,-0.671875 0.46875,-1.1875 0.32812,-0.53125 0.8125,-0.8125 0.5,-0.296875 1.1875,-0.296875 0.15625,0 0.35937,0.03125 0.20313,0.03125 0.28125,0.07813 z m 2.79688,-3.5 v 12 h -1.45313 v -12 z m 5.15625,3.546875 -3.6875,3.9375 -2.0625,2.140625 -0.10938,-1.53125 1.46875,-1.765625 2.625,-2.78125 z m -1.3125,8.453125 -3.01563,-4.03125 0.75,-1.296875 3.96875,5.328125 z m 4.96875,0 h -1.45313 v -9.34375 q 0,-0.921875 0.34375,-1.546875 0.34375,-0.625 0.98438,-0.953125 0.64062,-0.328125 1.5625,-0.328125 0.34375,0 0.85937,0.07813 0.53125,0.0625 1.10938,0.171875 0.59375,0.109375 1.15625,0.234375 l -0.67188,1.046875 q -0.73437,-0.140625 -1.32812,-0.21875 -0.59375,-0.07813 -1.01563,-0.07813 -0.5,0 -0.85937,0.1875 -0.34375,0.1875 -0.51563,0.546875 -0.17187,0.34375 -0.17187,0.859375 z m 3.125,0 v -11.6875 h 1.4375 v 11.6875 z m -1.32813,-8.453125 v 1.109375 h -4.57812 V 47.08063 Z m 4.74219,4.3125 v -0.171875 q 0,-0.921875 0.26563,-1.703125 0.26562,-0.78125 0.76562,-1.359375 0.5,-0.59375 1.20313,-0.90625 0.71875,-0.328125 1.60937,-0.328125 0.89063,0 1.59375,0.328125 0.71875,0.3125 1.21875,0.90625 0.51563,0.578125 0.78125,1.359375 0.26563,0.78125 0.26563,1.703125 v 0.171875 q 0,0.921875 -0.26563,1.703125 -0.26562,0.78125 -0.78125,1.359375 -0.5,0.578125 -1.20312,0.90625 -0.70313,0.328125 -1.59375,0.328125 -0.89063,0 -1.60938,-0.328125 -0.70312,-0.328125 -1.21875,-0.90625 -0.5,-0.578125 -0.76562,-1.359375 -0.26563,-0.78125 -0.26563,-1.703125 z m 1.45313,-0.171875 v 0.171875 q 0,0.640625 0.14062,1.203125 0.15625,0.546875 0.45313,0.984375 0.29687,0.421875 0.75,0.671875 0.45312,0.25 1.0625,0.25 0.59375,0 1.03125,-0.25 0.45312,-0.25 0.75,-0.671875 0.29687,-0.4375 0.45312,-0.984375 0.15625,-0.5625 0.15625,-1.203125 v -0.171875 q 0,-0.625 -0.15625,-1.1875 -0.15625,-0.5625 -0.45312,-0.984375 -0.29688,-0.4375 -0.75,-0.6875 -0.45313,-0.25 -1.04688,-0.25 -0.59375,0 -1.04687,0.25 -0.45313,0.25 -0.75,0.6875 -0.29688,0.421875 -0.45313,0.984375 -0.14062,0.5625 -0.14062,1.1875 z m 10.20312,2.8125 2.17188,-6.953125 h 0.95312 l -0.1875,1.375 -2.21875,7.078125 h -0.92187 z m -1.46875,-6.953125 1.85938,7.03125 0.125,1.421875 h -0.96875 L 344.1177,47.08063 Z m 6.67188,6.96875 1.76562,-6.96875 h 1.4375 l -2.45312,8.453125 h -0.96875 z m -1.875,-6.96875 2.125,6.828125 0.25,1.625 h -0.92188 l -2.28125,-7.09375 -0.1875,-1.359375 z m 14.78906,3.125 h -2.875 l -0.0156,-1.203125 h 2.60938 q 0.65625,0 1.14062,-0.21875 0.48438,-0.21875 0.75,-0.625 0.26563,-0.421875 0.26563,-0.984375 0,-0.625 -0.23438,-1.015625 -0.23437,-0.40625 -0.73437,-0.578125 -0.48438,-0.1875 -1.23438,-0.1875 h -2.21878 v 10.140625 h -1.5 v -11.375 h 3.71875 q 0.875,0 1.5625,0.171875 0.6875,0.171875 1.17188,0.546875 0.48437,0.375 0.73437,0.953125 0.25,0.5625 0.25,1.359375 0,0.703125 -0.35937,1.265625 -0.35938,0.5625 -1,0.921875 -0.64063,0.359375 -1.48438,0.46875 z m -0.0625,5.328125 h -3.40625 l 0.84375,-1.234375 h 2.5625 q 0.71875,0 1.21875,-0.25 0.5,-0.25 0.76562,-0.703125 0.26563,-0.453125 0.26563,-1.078125 0,-0.640625 -0.23438,-1.09375 -0.21875,-0.46875 -0.70312,-0.71875 -0.48438,-0.25 -1.25,-0.25 h -2.14063 l 0.0156,-1.203125 h 2.9375 l 0.3125,0.4375 q 0.82812,0.0625 1.39062,0.46875 0.57813,0.390625 0.875,1 0.29688,0.609375 0.29688,1.34375 0,1.0625 -0.46875,1.796875 -0.45313,0.71875 -1.29688,1.109375 -0.84375,0.375 -1.98437,0.375 z"
     fill-rule="nonzero"
     id="path8" />
  <path
     fill="#f8f9fa"
     d="m 35.38845,143.90225 c 0,-4.60391 3.732212,-8.33612 8.336124,-8.33612 H 109.5405 c 2.21088,0 4.33121,0.87826 5.89453,2.44159 1.56333,1.56334 2.44161,3.68365 2.44161,5.89453 v 33.34351 c 0,4.60391 -3.73223,8.33612 -8.33614,8.33612 H 43.724574 c -4.603913,0 -8.336124,-3.73221 -8.336124,-8.33612 z"
     fill-rule="evenodd"
     id="path9" />
  <path
     stroke="#bdc1c6"
     stroke-width="1"
     stroke-linejoin="round"
     stroke-linecap="butt"
     d="m 35.38845,143.90225 c 0,-4.60391 3.732212,-8.33612 8.336124,-8.33612 H 109.5405 c 2.21088,0 4.33121,0.87826 5.89453,2.44159 1.56333,1.56334 2.44161,3.68365 2.44161,5.89453 v 33.34351 c 0,4.60391 -3.73223,8.33612 -8.33614,8.33612 H 43.724574 c -4.603913,0 -8.336124,-3.73221 -8.336124,-8.33612 z"
     fill-rule="evenodd"
     id="path10" />
  <path
     fill="#000000"
     d="m 53.597389,155.05901 v 11.375 h -1.484375 v -11.375 z m 3.65625,0 v 1.23437 h -8.796875 v -1.23437 z m 5.570312,9.92187 v -4.34375 q 0,-0.5 -0.203125,-0.875 -0.203125,-0.375 -0.609375,-0.57812 -0.390625,-0.20313 -0.96875,-0.20313 -0.546875,0 -0.96875,0.1875 -0.40625,0.1875 -0.640625,0.5 -0.21875,0.29688 -0.21875,0.65625 h -1.453125 q 0,-0.45312 0.234375,-0.89062 0.234375,-0.45313 0.671875,-0.8125 0.453125,-0.375 1.0625,-0.57813 0.625,-0.21875 1.390625,-0.21875 0.921875,0 1.625,0.3125 0.71875,0.3125 1.109375,0.9375 0.40625,0.625 0.40625,1.57813 v 3.9375 q 0,0.42187 0.07813,0.90625 0.07813,0.46875 0.21875,0.8125 v 0.125 h -1.5 q -0.109375,-0.25 -0.171875,-0.67188 -0.0625,-0.42187 -0.0625,-0.78125 z m 0.25,-3.67187 0.01563,1.01562 h -1.46875 q -0.609375,0 -1.09375,0.0937 -0.484375,0.0937 -0.8125,0.29688 -0.328125,0.1875 -0.5,0.48437 -0.171875,0.29688 -0.171875,0.6875 0,0.39063 0.171875,0.71875 0.1875,0.32813 0.546875,0.53125 0.359375,0.1875 0.890625,0.1875 0.671875,0 1.171875,-0.28125 0.515625,-0.28125 0.8125,-0.6875 0.296875,-0.40625 0.328125,-0.79687 l 0.609375,0.70312 q -0.04687,0.32813 -0.296875,0.73438 -0.234375,0.39062 -0.640625,0.75 -0.40625,0.35937 -0.953125,0.60937 -0.546875,0.23438 -1.234375,0.23438 -0.859375,0 -1.515625,-0.32813 -0.640625,-0.34375 -1,-0.90625 -0.34375,-0.57812 -0.34375,-1.28125 0,-0.67187 0.265625,-1.1875 0.265625,-0.53125 0.765625,-0.875 0.5,-0.34375 1.203125,-0.51562 0.703125,-0.1875 1.5625,-0.1875 z m 8.390625,2.875 q 0,-0.3125 -0.140625,-0.57813 -0.140625,-0.26562 -0.5625,-0.48437 -0.40625,-0.23438 -1.25,-0.39063 -0.703125,-0.15625 -1.265625,-0.35937 -0.5625,-0.20313 -0.96875,-0.48438 -0.390625,-0.29687 -0.609375,-0.6875 -0.203125,-0.39062 -0.203125,-0.90625 0,-0.5 0.21875,-0.9375 0.234375,-0.45312 0.640625,-0.79687 0.40625,-0.34375 0.984375,-0.53125 0.578125,-0.20313 1.296875,-0.20313 1.015625,0 1.734375,0.35938 0.71875,0.35937 1.09375,0.95312 0.390625,0.59375 0.390625,1.32813 h -1.453125 q 0,-0.35938 -0.203125,-0.6875 -0.203125,-0.32813 -0.609375,-0.54688 -0.390625,-0.21875 -0.953125,-0.21875 -0.609375,0 -0.984375,0.1875 -0.359375,0.17188 -0.53125,0.45313 -0.171875,0.28125 -0.171875,0.59375 0,0.23437 0.07813,0.42187 0.09375,0.1875 0.296875,0.34375 0.21875,0.14063 0.59375,0.28125 0.390625,0.125 0.984375,0.26563 1.03125,0.23437 1.703125,0.5625 0.671875,0.32812 1,0.8125 0.328125,0.46875 0.328125,1.14062 0,0.5625 -0.234375,1.03125 -0.21875,0.45313 -0.65625,0.78125 -0.4375,0.32813 -1.03125,0.51563 -0.59375,0.1875 -1.34375,0.1875 -1.109375,0 -1.890625,-0.39063 -0.765625,-0.40625 -1.171875,-1.03125 -0.390625,-0.64062 -0.390625,-1.34375 h 1.453125 q 0.03125,0.59375 0.34375,0.9375 0.3125,0.34375 0.765625,0.5 0.453125,0.14063 0.890625,0.14063 0.59375,0 1,-0.15625 0.40625,-0.15625 0.609375,-0.42188 0.21875,-0.28125 0.21875,-0.64062 z m 4.789063,-9.75 v 12 h -1.453125 v -12 z m 5.15625,3.54687 -3.6875,3.9375 -2.0625,2.14063 -0.109375,-1.53125 1.46875,-1.76563 2.625,-2.78125 z m -1.3125,8.45313 -3.015625,-4.03125 0.75,-1.29688 3.968749,5.32813 z m 11.203124,-10.375 -3.76562,10.375 h -1.53125 l 4.32812,-11.375 h 1 z m 3.15625,10.375 -3.76562,-10.375 -0.0312,-1 h 1 l 4.34375,11.375 z m -0.1875,-4.21875 v 1.23437 h -6.39062 v -1.23437 z m 7.640627,-7.21875 v 11.4375 h -1.45313 v -9.64063 l -2.906247,1.0625 v -1.29687 l 4.124997,-1.5625 z"
     fill-rule="nonzero"
     id="path11" />
  <path
     fill="#f8f9fa"
     d="m 144.51181,143.90225 c 0,-4.60391 3.73221,-8.33612 8.33612,-8.33612 h 65.81595 c 2.21088,0 4.33121,0.87826 5.89453,2.44159 1.56333,1.56334 2.44159,3.68365 2.44159,5.89453 v 33.34351 c 0,4.60391 -3.73221,8.33612 -8.33612,8.33612 h -65.81595 c -4.60391,0 -8.33612,-3.73221 -8.33612,-8.33612 z"
     fill-rule="evenodd"
     id="path12" />
  <path
     stroke="#bdc1c6"
     stroke-width="1"
     stroke-linejoin="round"
     stroke-linecap="butt"
     d="m 144.51181,143.90225 c 0,-4.60391 3.73221,-8.33612 8.33612,-8.33612 h 65.81595 c 2.21088,0 4.33121,0.87826 5.89453,2.44159 1.56333,1.56334 2.44159,3.68365 2.44159,5.89453 v 33.34351 c 0,4.60391 -3.73221,8.33612 -8.33612,8.33612 h -65.81595 c -4.60391,0 -8.33612,-3.73221 -8.33612,-8.33612 z"
     fill-rule="evenodd"
     id="path13" />
  <path
     fill="#000000"
     d="m 167.127,159.30901 v 7.125 h -1.4375 v -8.45313 h 1.40625 z m 2.64062,-1.375 v 1.34375 q -0.1875,-0.0469 -0.34375,-0.0469 -0.15625,-0.0156 -0.35937,-0.0156 -0.5,0 -0.89063,0.15625 -0.375,0.15625 -0.64062,0.4375 -0.26563,0.28125 -0.42188,0.67187 -0.15625,0.375 -0.20312,0.84375 l -0.40625,0.23438 q 0,-0.76563 0.15625,-1.4375 0.15625,-0.67188 0.46875,-1.1875 0.32812,-0.53125 0.8125,-0.8125 0.5,-0.29688 1.1875,-0.29688 0.15625,0 0.35937,0.0312 0.20313,0.0312 0.28125,0.0781 z m 0.79688,4.35937 v -0.17187 q 0,-0.92188 0.26562,-1.70313 0.26563,-0.78125 0.76563,-1.35937 0.5,-0.59375 1.20312,-0.90625 0.71875,-0.32813 1.60938,-0.32813 0.89062,0 1.59375,0.32813 0.71875,0.3125 1.21875,0.90625 0.51562,0.57812 0.78125,1.35937 0.26562,0.78125 0.26562,1.70313 v 0.17187 q 0,0.92188 -0.26562,1.70313 -0.26563,0.78125 -0.78125,1.35937 -0.5,0.57813 -1.20313,0.90625 -0.70312,0.32813 -1.59375,0.32813 -0.89062,0 -1.60937,-0.32813 -0.70313,-0.32812 -1.21875,-0.90625 -0.5,-0.57812 -0.76563,-1.35937 -0.26562,-0.78125 -0.26562,-1.70313 z m 1.45312,-0.17187 v 0.17187 q 0,0.64063 0.14063,1.20313 0.15625,0.54687 0.45312,0.98437 0.29688,0.42188 0.75,0.67188 0.45313,0.25 1.0625,0.25 0.59375,0 1.03125,-0.25 0.45313,-0.25 0.75,-0.67188 0.29688,-0.4375 0.45313,-0.98437 0.15625,-0.5625 0.15625,-1.20313 v -0.17187 q 0,-0.625 -0.15625,-1.1875 -0.15625,-0.5625 -0.45313,-0.98438 -0.29687,-0.4375 -0.75,-0.6875 -0.45312,-0.25 -1.04687,-0.25 -0.59375,0 -1.04688,0.25 -0.45312,0.25 -0.75,0.6875 -0.29687,0.42188 -0.45312,0.98438 -0.14063,0.5625 -0.14063,1.1875 z m 13.23438,2.35937 v -6.5 h 1.45312 v 8.45313 h -1.39062 z m 0.26562,-1.78125 0.60938,-0.0156 q 0,0.84375 -0.1875,1.5625 -0.17188,0.70312 -0.5625,1.23437 -0.39063,0.51563 -1.03125,0.8125 -0.625,0.29688 -1.53125,0.29688 -0.60938,0 -1.125,-0.17188 -0.51563,-0.1875 -0.89063,-0.5625 -0.35937,-0.375 -0.5625,-0.96875 -0.1875,-0.60937 -0.1875,-1.45312 v -5.45313 h 1.4375 v 5.46875 q 0,0.5625 0.125,0.9375 0.14063,0.375 0.35938,0.59375 0.21875,0.20313 0.5,0.29688 0.28125,0.0781 0.57812,0.0781 0.92188,0 1.45313,-0.34375 0.54687,-0.35937 0.78125,-0.96875 0.23437,-0.60937 0.23437,-1.34375 z m 6.91407,-4.71875 v 1.10938 h -4.5625 v -1.10938 z m -3.01563,-2.0625 h 1.4375 v 8.42188 q 0,0.42187 0.125,0.64062 0.14063,0.21875 0.34375,0.29688 0.21875,0.0625 0.46875,0.0625 0.17188,0 0.375,-0.0312 0.20313,-0.0312 0.29688,-0.0625 l 0.0156,1.1875 q -0.17187,0.0625 -0.45312,0.10937 -0.28125,0.0469 -0.67188,0.0469 -0.53125,0 -0.98437,-0.20313 -0.4375,-0.21875 -0.70313,-0.71875 -0.25,-0.5 -0.25,-1.34375 z m 8.21875,10.67188 q -0.875,0 -1.59375,-0.29688 -0.71875,-0.3125 -1.23437,-0.85937 -0.5,-0.54688 -0.78125,-1.29688 -0.26563,-0.75 -0.26563,-1.64062 v -0.32813 q 0,-1.03125 0.29688,-1.82812 0.3125,-0.8125 0.82812,-1.375 0.53125,-0.5625 1.1875,-0.84375 0.67188,-0.29688 1.375,-0.29688 0.90625,0 1.5625,0.3125 0.67188,0.3125 1.09375,0.875 0.42188,0.54688 0.625,1.3125 0.20313,0.75 0.20313,1.64063 v 0.64062 h -6.3125 v -1.17187 h 4.85937 v -0.10938 q -0.0312,-0.5625 -0.23437,-1.09375 -0.1875,-0.53125 -0.625,-0.875 -0.42188,-0.34375 -1.17188,-0.34375 -0.48437,0 -0.90625,0.20313 -0.40625,0.20312 -0.70312,0.60937 -0.29688,0.40625 -0.46875,1 -0.15625,0.57813 -0.15625,1.34375 v 0.32813 q 0,0.60937 0.15625,1.14062 0.17187,0.51563 0.5,0.92188 0.32812,0.39062 0.78125,0.625 0.46875,0.21875 1.0625,0.21875 0.76562,0 1.29687,-0.3125 0.53125,-0.3125 0.9375,-0.82813 l 0.875,0.6875 q -0.28125,0.42188 -0.70312,0.79688 -0.42188,0.375 -1.03125,0.60937 -0.60938,0.23438 -1.45313,0.23438 z m 6.42188,-7.28125 v 7.125 h -1.4375 v -8.45313 h 1.40625 z m 2.64062,-1.375 v 1.34375 q -0.1875,-0.0469 -0.34375,-0.0469 -0.15625,-0.0156 -0.35937,-0.0156 -0.5,0 -0.89063,0.15625 -0.375,0.15625 -0.64062,0.4375 -0.26563,0.28125 -0.42188,0.67187 -0.15625,0.375 -0.20312,0.84375 l -0.40625,0.23438 q 0,-0.76563 0.15625,-1.4375 0.15625,-0.67188 0.46875,-1.1875 0.32812,-0.53125 0.8125,-0.8125 0.5,-0.29688 1.1875,-0.29688 0.15625,0 0.35937,0.0312 0.20313,0.0312 0.28125,0.0781 z"
     fill-rule="nonzero"
     id="path14" />
  <path
     fill="#f8f9fa"
     d="m 414.57071,80.478675 c 0,-4.603912 3.73224,-8.336128 8.33615,-8.336128 h 74.19388 c 2.21088,0 4.33118,0.878273 5.89453,2.441597 1.56336,1.563324 2.44159,3.683655 2.44159,5.894531 v 33.343495 c 0,4.60393 -3.73218,8.33614 -8.33612,8.33614 h -74.19388 c -4.60391,0 -8.33615,-3.73221 -8.33615,-8.33614 z"
     fill-rule="evenodd"
     id="path15" />
  <path
     stroke="#bdc1c6"
     stroke-width="1"
     stroke-linejoin="round"
     stroke-linecap="butt"
     d="m 414.57071,80.478675 c 0,-4.603912 3.73224,-8.336128 8.33615,-8.336128 h 74.19388 c 2.21088,0 4.33118,0.878273 5.89453,2.441597 1.56336,1.563324 2.44159,3.683655 2.44159,5.894531 v 33.343495 c 0,4.60393 -3.73218,8.33614 -8.33612,8.33614 h -74.19388 c -4.60391,0 -8.33615,-3.73221 -8.33615,-8.33614 z"
     fill-rule="evenodd"
     id="path16" />
  <path
     fill="#000000"
     d="m 437.203,91.635425 v 11.375005 h -1.48438 V 91.635425 Z m 3.65625,0 v 1.23437 h -8.79688 v -1.23437 z m 5.57031,9.921875 v -4.343753 q 0,-0.5 -0.20312,-0.875 -0.20313,-0.375 -0.60938,-0.57812 -0.39062,-0.20313 -0.96875,-0.20313 -0.54687,0 -0.96875,0.1875 -0.40625,0.1875 -0.64062,0.5 -0.21875,0.29688 -0.21875,0.65625 h -1.45313 q 0,-0.45312 0.23438,-0.89062 0.23437,-0.45313 0.67187,-0.8125 0.45313,-0.375 1.0625,-0.578132 0.625,-0.21875 1.39063,-0.21875 0.92187,0 1.625,0.312502 0.71875,0.3125 1.10937,0.9375 0.40625,0.625 0.40625,1.57813 v 3.937503 q 0,0.42187 0.0781,0.90625 0.0781,0.46875 0.21875,0.8125 v 0.125 h -1.5 q -0.10938,-0.25 -0.17188,-0.67188 -0.0625,-0.42187 -0.0625,-0.78125 z m 0.25,-3.671873 0.0156,1.01562 h -1.46875 q -0.60938,0 -1.09375,0.0937 -0.48438,0.0937 -0.8125,0.29688 -0.32813,0.1875 -0.5,0.48437 -0.17188,0.296883 -0.17188,0.687503 0,0.39063 0.17188,0.71875 0.1875,0.32813 0.54687,0.53125 0.35938,0.1875 0.89063,0.1875 0.67187,0 1.17187,-0.28125 0.51563,-0.28125 0.8125,-0.6875 0.29688,-0.40625 0.32813,-0.79687 l 0.60937,0.70312 q -0.0469,0.32813 -0.29687,0.73438 -0.23438,0.39062 -0.64063,0.75 -0.40625,0.35937 -0.95312,0.60937 -0.54688,0.23438 -1.23438,0.23438 -0.85937,0 -1.51562,-0.32813 -0.64063,-0.34375 -1,-0.90625 -0.34375,-0.57812 -0.34375,-1.28125 0,-0.671873 0.26562,-1.187503 0.26563,-0.53125 0.76563,-0.875 0.5,-0.34375 1.20312,-0.51562 0.70313,-0.1875 1.5625,-0.1875 z m 8.39063,2.875003 q 0,-0.3125 -0.14063,-0.57813 -0.14062,-0.265623 -0.5625,-0.484373 -0.40625,-0.23438 -1.25,-0.39063 -0.70312,-0.15625 -1.26562,-0.35937 -0.5625,-0.20313 -0.96875,-0.48438 -0.39063,-0.29687 -0.60938,-0.6875 -0.20312,-0.39062 -0.20312,-0.90625 0,-0.5 0.21875,-0.9375 0.23437,-0.45312 0.64062,-0.79687 0.40625,-0.34375 0.98438,-0.531252 0.57812,-0.20313 1.29687,-0.20313 1.01563,0 1.73438,0.359382 0.71875,0.35937 1.09375,0.95312 0.39062,0.59375 0.39062,1.32813 h -1.45312 q 0,-0.35938 -0.20313,-0.6875 -0.20312,-0.32813 -0.60937,-0.54688 -0.39063,-0.21875 -0.95313,-0.21875 -0.60937,0 -0.98437,0.1875 -0.35938,0.17188 -0.53125,0.45313 -0.17188,0.28125 -0.17188,0.59375 0,0.23437 0.0781,0.42187 0.0937,0.1875 0.29687,0.34375 0.21875,0.14063 0.59375,0.28125 0.39063,0.125 0.98438,0.26563 1.03125,0.23437 1.70312,0.5625 0.67188,0.32812 1,0.8125 0.32813,0.46875 0.32813,1.140623 0,0.5625 -0.23438,1.03125 -0.21875,0.45313 -0.65625,0.78125 -0.4375,0.32813 -1.03125,0.51563 -0.59375,0.1875 -1.34375,0.1875 -1.10937,0 -1.89062,-0.39063 -0.76563,-0.40625 -1.17188,-1.03125 -0.39062,-0.64062 -0.39062,-1.34375 h 1.45312 q 0.0312,0.59375 0.34375,0.9375 0.3125,0.34375 0.76563,0.5 0.45312,0.14063 0.89062,0.14063 0.59375,0 1,-0.15625 0.40625,-0.15625 0.60938,-0.42188 0.21875,-0.28125 0.21875,-0.64062 z m 4.78906,-9.750005 v 12.000005 h -1.45313 V 91.010425 Z m 5.15625,3.54687 -3.6875,3.937502 -2.0625,2.140633 -0.10938,-1.531253 1.46875,-1.76563 2.625,-2.781252 z m -1.3125,8.453135 -3.01563,-4.031253 0.75,-1.29688 3.96875,5.328133 z m 11.04687,-5.328133 h -2.875 l -0.0156,-1.20312 h 2.60937 q 0.65625,0 1.14063,-0.21875 0.48437,-0.21875 0.75,-0.625 0.26562,-0.42188 0.26562,-0.98438 0,-0.625002 -0.23437,-1.015622 -0.23438,-0.40625 -0.73438,-0.57813 -0.48437,-0.1875 -1.23437,-0.1875 h -2.21875 v 10.140635 h -1.5 V 91.635425 h 3.71875 q 0.875,0 1.5625,0.17187 0.6875,0.17188 1.17187,0.54688 0.48438,0.375 0.73438,0.95312 0.25,0.5625 0.25,1.359382 0,0.70312 -0.35938,1.26562 -0.35937,0.5625 -1,0.92188 -0.64062,0.35937 -1.48437,0.46875 z m -0.0625,5.328133 h -3.40625 l 0.84375,-1.23438 h 2.5625 q 0.71875,0 1.21875,-0.25 0.5,-0.25 0.76563,-0.70312 0.26562,-0.45313 0.26562,-1.078133 0,-0.64062 -0.23437,-1.09375 -0.21875,-0.46875 -0.70313,-0.71875 -0.48437,-0.25 -1.25,-0.25 h -2.14062 l 0.0156,-1.20312 h 2.9375 l 0.3125,0.4375 q 0.82813,0.0625 1.39063,0.46875 0.57812,0.39062 0.875,1 0.29687,0.60937 0.29687,1.34375 0,1.062503 -0.46875,1.796873 -0.45312,0.71875 -1.29687,1.10938 -0.84375,0.375 -1.98438,0.375 z m 13.0625,-1.1875 v 1.1875 h -7.45312 v -1.04688 l 3.73437,-4.140623 q 0.6875,-0.76563 1.0625,-1.29688 0.375,-0.54687 0.53125,-0.96875 0.15625,-0.42187 0.15625,-0.875 0,-0.562502 -0.23437,-1.015622 -0.23438,-0.45313 -0.6875,-0.71875 -0.4375,-0.28125 -1.0625,-0.28125 -0.76563,0 -1.26563,0.29687 -0.5,0.28125 -0.75,0.8125 -0.25,0.51563 -0.25,1.203132 H 480.078 q 0,-0.968752 0.42187,-1.765632 0.42188,-0.79687 1.25,-1.26562 0.82813,-0.46875 2.04688,-0.46875 1.07812,0 1.84375,0.375 0.76562,0.375 1.17187,1.0625 0.40625,0.6875 0.40625,1.59375 0,0.500002 -0.17187,1.015622 -0.15625,0.51563 -0.45313,1.03125 -0.29687,0.5 -0.6875,1 -0.375,0.48438 -0.8125,0.95313 l -3.04687,3.312503 z"
     fill-rule="nonzero"
     id="path17" />
  <path
     fill="#000000"
     fill-opacity="0"
     d="M 117.87664,160.57401 H 144.5223"
     fill-rule="evenodd"
     id="path18" />
  <path
     stroke="#bdc1c6"
     stroke-width="1"
     stroke-linejoin="round"
     stroke-linecap="butt"
     d="M 117.87664,160.57399 H 138.5223"
     fill-rule="evenodd"
     id="path19" />
  <path
     fill="#bdc1c6"
     stroke="#bdc1c6"
     stroke-width="1"
     stroke-linecap="butt"
     d="m 138.52231,162.22572 4.5381,-1.65173 -4.5381,-1.65174 z"
     fill-rule="evenodd"
     id="path20" />
  <path
     fill="#000000"
     fill-opacity="0"
     d="M 227,160.57401 296.48032,97.140937"
     fill-rule="evenodd"
     id="path21" />
  <path
     stroke="#bdc1c6"
     stroke-width="1"
     stroke-linejoin="round"
     stroke-linecap="butt"
     d="m 227,160.57399 65.04923,-59.38763"
     fill-rule="evenodd"
     id="path22" />
  <path
     fill="#bdc1c6"
     stroke="#bdc1c6"
     stroke-width="1"
     stroke-linecap="butt"
     d="m 293.1629,102.40619 2.23776,-4.279593 -4.46509,1.83993 z"
     fill-rule="evenodd"
     id="path23" />
  <path
     fill="#f8f9fa"
     d="m 296.46836,80.478675 c 0,-4.603912 3.73221,-8.336128 8.33612,-8.336128 h 74.19391 c 2.21088,0 4.33121,0.878273 5.89453,2.441597 1.56333,1.563324 2.44159,3.683655 2.44159,5.894531 v 33.343495 c 0,4.60393 -3.73221,8.33614 -8.33612,8.33614 h -74.19391 c -4.60391,0 -8.33612,-3.73221 -8.33612,-8.33614 z"
     fill-rule="evenodd"
     id="path24" />
  <path
     stroke="#bdc1c6"
     stroke-width="1"
     stroke-linejoin="round"
     stroke-linecap="butt"
     d="m 296.46836,80.478675 c 0,-4.603912 3.73221,-8.336128 8.33612,-8.336128 h 74.19391 c 2.21088,0 4.33121,0.878273 5.89453,2.441597 1.56333,1.563324 2.44159,3.683655 2.44159,5.894531 v 33.343495 c 0,4.60393 -3.73221,8.33614 -8.33612,8.33614 h -74.19391 c -4.60391,0 -8.33612,-3.73221 -8.33612,-8.33614 z"
     fill-rule="evenodd"
     id="path25" />
  <path
     fill="#000000"
     d="m 319.10064,91.635425 v 11.375005 h -1.48438 V 91.635425 Z m 3.65625,0 v 1.23437 h -8.79688 v -1.23437 z m 5.57031,9.921875 v -4.343753 q 0,-0.5 -0.20312,-0.875 -0.20313,-0.375 -0.60938,-0.57812 -0.39062,-0.20313 -0.96875,-0.20313 -0.54687,0 -0.96875,0.1875 -0.40625,0.1875 -0.64062,0.5 -0.21875,0.29688 -0.21875,0.65625 h -1.45313 q 0,-0.45312 0.23438,-0.89062 0.23437,-0.45313 0.67187,-0.8125 0.45313,-0.375 1.0625,-0.578132 0.625,-0.21875 1.39063,-0.21875 0.92187,0 1.625,0.312502 0.71875,0.3125 1.10937,0.9375 0.40625,0.625 0.40625,1.57813 v 3.937503 q 0,0.42187 0.0781,0.90625 0.0781,0.46875 0.21875,0.8125 v 0.125 h -1.5 q -0.10938,-0.25 -0.17188,-0.67188 -0.0625,-0.42187 -0.0625,-0.78125 z m 0.25,-3.671873 0.0156,1.01562 h -1.46875 q -0.60938,0 -1.09375,0.0937 -0.48438,0.0937 -0.8125,0.29688 -0.32813,0.1875 -0.5,0.48437 -0.17188,0.296883 -0.17188,0.687503 0,0.39063 0.17188,0.71875 0.1875,0.32813 0.54687,0.53125 0.35938,0.1875 0.89063,0.1875 0.67187,0 1.17187,-0.28125 0.51563,-0.28125 0.8125,-0.6875 0.29688,-0.40625 0.32813,-0.79687 l 0.60937,0.70312 q -0.0469,0.32813 -0.29687,0.73438 -0.23438,0.39062 -0.64063,0.75 -0.40625,0.35937 -0.95312,0.60937 -0.54688,0.23438 -1.23438,0.23438 -0.85937,0 -1.51562,-0.32813 -0.64063,-0.34375 -1,-0.90625 -0.34375,-0.57812 -0.34375,-1.28125 0,-0.671873 0.26562,-1.187503 0.26563,-0.53125 0.76563,-0.875 0.5,-0.34375 1.20312,-0.51562 0.70313,-0.1875 1.5625,-0.1875 z m 8.39063,2.875003 q 0,-0.3125 -0.14063,-0.57813 -0.14062,-0.265623 -0.5625,-0.484373 -0.40625,-0.23438 -1.25,-0.39063 -0.70312,-0.15625 -1.26562,-0.35937 -0.5625,-0.20313 -0.96875,-0.48438 -0.39063,-0.29687 -0.60938,-0.6875 -0.20312,-0.39062 -0.20312,-0.90625 0,-0.5 0.21875,-0.9375 0.23437,-0.45312 0.64062,-0.79687 0.40625,-0.34375 0.98438,-0.531252 0.57812,-0.20313 1.29687,-0.20313 1.01563,0 1.73438,0.359382 0.71875,0.35937 1.09375,0.95312 0.39062,0.59375 0.39062,1.32813 h -1.45312 q 0,-0.35938 -0.20313,-0.6875 -0.20312,-0.32813 -0.60937,-0.54688 -0.39063,-0.21875 -0.95313,-0.21875 -0.60937,0 -0.98437,0.1875 -0.35938,0.17188 -0.53125,0.45313 -0.17188,0.28125 -0.17188,0.59375 0,0.23437 0.0781,0.42187 0.0937,0.1875 0.29687,0.34375 0.21875,0.14063 0.59375,0.28125 0.39063,0.125 0.98438,0.26563 1.03125,0.23437 1.70312,0.5625 0.67188,0.32812 1,0.8125 0.32813,0.46875 0.32813,1.140623 0,0.5625 -0.23438,1.03125 -0.21875,0.45313 -0.65625,0.78125 -0.4375,0.32813 -1.03125,0.51563 -0.59375,0.1875 -1.34375,0.1875 -1.10937,0 -1.89062,-0.39063 -0.76563,-0.40625 -1.17188,-1.03125 -0.39062,-0.64062 -0.39062,-1.34375 h 1.45312 q 0.0312,0.59375 0.34375,0.9375 0.3125,0.34375 0.76563,0.5 0.45312,0.14063 0.89062,0.14063 0.59375,0 1,-0.15625 0.40625,-0.15625 0.60938,-0.42188 0.21875,-0.28125 0.21875,-0.64062 z m 4.78906,-9.750005 v 12.000005 h -1.45313 V 91.010425 Z m 5.15625,3.54687 -3.6875,3.937502 -2.0625,2.140633 -0.10938,-1.531253 1.46875,-1.76563 2.625,-2.781252 z m -1.3125,8.453135 -3.01563,-4.031253 0.75,-1.29688 3.96875,5.328133 z m 11.04687,-5.328133 h -2.875 l -0.0156,-1.20312 h 2.60937 q 0.65625,0 1.14063,-0.21875 0.48437,-0.21875 0.75,-0.625 0.26562,-0.42188 0.26562,-0.98438 0,-0.625002 -0.23437,-1.015622 -0.23438,-0.40625 -0.73438,-0.57813 -0.48437,-0.1875 -1.23437,-0.1875 h -2.21875 v 10.140635 h -1.5 V 91.635425 h 3.71875 q 0.875,0 1.5625,0.17187 0.6875,0.17188 1.17187,0.54688 0.48438,0.375 0.73438,0.95312 0.25,0.5625 0.25,1.359382 0,0.70312 -0.35938,1.26562 -0.35937,0.5625 -1,0.92188 -0.64062,0.35937 -1.48437,0.46875 z m -0.0625,5.328133 h -3.40625 l 0.84375,-1.23438 h 2.5625 q 0.71875,0 1.21875,-0.25 0.5,-0.25 0.76563,-0.70312 0.26562,-0.45313 0.26562,-1.078133 0,-0.64062 -0.23437,-1.09375 -0.21875,-0.46875 -0.70313,-0.71875 -0.48437,-0.25 -1.25,-0.25 h -2.14062 l 0.0156,-1.20312 h 2.9375 l 0.3125,0.4375 q 0.82813,0.0625 1.39063,0.46875 0.57812,0.39062 0.875,1 0.29687,0.60937 0.29687,1.34375 0,1.062503 -0.46875,1.796873 -0.45312,0.71875 -1.29687,1.10938 -0.84375,0.375 -1.98438,0.375 z m 10.35938,-11.437505 v 11.437505 h -1.45313 v -9.640635 l -2.90625,1.0625 v -1.29687 l 4.125,-1.5625 z"
     fill-rule="nonzero"
     id="path26" />
  <path
     fill="#000000"
     fill-opacity="0"
     d="m 387.3345,97.150427 h 27.24411"
     fill-rule="evenodd"
     id="path27" />
  <path
     stroke="#bdc1c6"
     stroke-width="1"
     stroke-linejoin="round"
     stroke-linecap="butt"
     d="m 387.33453,97.150427 h 21.24408"
     fill-rule="evenodd"
     id="path28" />
  <path
     fill="#bdc1c6"
     stroke="#bdc1c6"
     stroke-width="1"
     stroke-linecap="butt"
     d="m 408.57861,98.802157 4.53812,-1.65173 -4.53812,-1.65174 z"
     fill-rule="evenodd"
     id="path29" />
  <path
     fill="#ffd966"
     d="m 275.85513,179.10805 c 0,-7.72511 6.26245,-13.98756 13.98758,-13.98756 h 227.74142 c 3.70972,0 7.26752,1.47369 9.89068,4.09686 2.62317,2.62318 4.09687,6.18097 4.09687,9.8907 v 84.5918 c 0,7.72513 -6.26245,13.98758 -13.98755,13.98758 H 289.84271 c -7.72513,0 -13.98758,-6.26245 -13.98758,-13.98758 z"
     fill-rule="evenodd"
     id="path30" />
  <path
     stroke="#bdc1c6"
     stroke-width="1"
     stroke-linejoin="round"
     stroke-linecap="butt"
     d="m 275.85513,179.10805 c 0,-7.72511 6.26245,-13.98756 13.98758,-13.98756 h 227.74142 c 3.70972,0 7.26752,1.47369 9.89068,4.09686 2.62317,2.62318 4.09687,6.18097 4.09687,9.8907 v 84.5918 c 0,7.72513 -6.26245,13.98758 -13.98755,13.98758 H 289.84271 c -7.72513,0 -13.98758,-6.26245 -13.98758,-13.98758 z"
     fill-rule="evenodd"
     id="path31" />
  <path
     fill="#000000"
     d="m 293.26446,190.1398 2.26562,-7.9375 h 1.09375 l -0.64062,3.07812 -2.42188,8.29688 h -1.09375 z m -2.32813,-7.9375 1.79688,7.78125 0.53125,3.59375 h -1.07813 l -2.75,-11.375 z m 8.60938,7.76562 1.75,-7.76562 h 1.51562 l -2.75,11.375 h -1.07812 z m -2.76563,-7.76562 2.20313,7.9375 0.79687,3.4375 h -1.09375 l -2.34375,-8.29688 -0.64062,-3.07812 z m 6.84375,7.23437 v -0.17187 q 0,-0.92188 0.26563,-1.70313 0.26562,-0.78125 0.76562,-1.35937 0.5,-0.59375 1.20313,-0.90625 0.71875,-0.32813 1.60937,-0.32813 0.89063,0 1.59375,0.32813 0.71875,0.3125 1.21875,0.90625 0.51563,0.57812 0.78125,1.35937 0.26563,0.78125 0.26563,1.70313 v 0.17187 q 0,0.92188 -0.26563,1.70313 -0.26562,0.78125 -0.78125,1.35937 -0.5,0.57813 -1.20312,0.90625 -0.70313,0.32813 -1.59375,0.32813 -0.89063,0 -1.60938,-0.32813 -0.70312,-0.32812 -1.21875,-0.90625 -0.5,-0.57812 -0.76562,-1.35937 -0.26563,-0.78125 -0.26563,-1.70313 z m 1.45313,-0.17187 v 0.17187 q 0,0.64063 0.14062,1.20313 0.15625,0.54687 0.45313,0.98437 0.29687,0.42188 0.75,0.67188 0.45312,0.25 1.0625,0.25 0.59375,0 1.03125,-0.25 0.45312,-0.25 0.75,-0.67188 0.29687,-0.4375 0.45312,-0.98437 0.15625,-0.5625 0.15625,-1.20313 v -0.17187 q 0,-0.625 -0.15625,-1.1875 -0.15625,-0.5625 -0.45312,-0.98438 -0.29688,-0.4375 -0.75,-0.6875 -0.45313,-0.25 -1.04688,-0.25 -0.59375,0 -1.04687,0.25 -0.45313,0.25 -0.75,0.6875 -0.29688,0.42188 -0.45313,0.98438 -0.14062,0.5625 -0.14062,1.1875 z m 9.5,-2.8125 v 7.125 h -1.4375 v -8.45313 h 1.40625 z m 2.64062,-1.375 v 1.34375 q -0.1875,-0.0469 -0.34375,-0.0469 -0.15625,-0.0156 -0.35937,-0.0156 -0.5,0 -0.89063,0.15625 -0.375,0.15625 -0.64062,0.4375 -0.26563,0.28125 -0.42188,0.67187 -0.15625,0.375 -0.20312,0.84375 l -0.40625,0.23438 q 0,-0.76563 0.15625,-1.4375 0.15625,-0.67188 0.46875,-1.1875 0.32812,-0.53125 0.8125,-0.8125 0.5,-0.29688 1.1875,-0.29688 0.15625,0 0.35937,0.0312 0.20313,0.0312 0.28125,0.0781 z m 2.79688,-3.5 v 12 h -1.45313 v -12 z m 5.15625,3.54687 -3.6875,3.9375 -2.0625,2.14063 -0.10938,-1.53125 1.46875,-1.76563 2.625,-2.78125 z m -1.3125,8.45313 -3.01563,-4.03125 0.75,-1.29688 3.96875,5.32813 z m 4.96875,0 h -1.45313 v -9.34375 q 0,-0.92188 0.34375,-1.54688 0.34375,-0.625 0.98438,-0.95312 0.64062,-0.32813 1.5625,-0.32813 0.34375,0 0.85937,0.0781 0.53125,0.0625 1.10938,0.17187 0.59375,0.10938 1.15625,0.23438 l -0.67188,1.04687 q -0.73437,-0.14062 -1.32812,-0.21875 -0.59375,-0.0781 -1.01563,-0.0781 -0.5,0 -0.85937,0.1875 -0.34375,0.1875 -0.51563,0.54687 -0.17187,0.34375 -0.17187,0.85938 z m 3.125,0 v -11.6875 h 1.4375 v 11.6875 z m -1.32813,-8.45313 v 1.10938 h -4.57812 v -1.10938 z m 4.74219,4.3125 v -0.17187 q 0,-0.92188 0.26563,-1.70313 0.26562,-0.78125 0.76562,-1.35937 0.5,-0.59375 1.20313,-0.90625 0.71875,-0.32813 1.60937,-0.32813 0.89063,0 1.59375,0.32813 0.71875,0.3125 1.21875,0.90625 0.51563,0.57812 0.78125,1.35937 0.26563,0.78125 0.26563,1.70313 v 0.17187 q 0,0.92188 -0.26563,1.70313 -0.26562,0.78125 -0.78125,1.35937 -0.5,0.57813 -1.20312,0.90625 -0.70313,0.32813 -1.59375,0.32813 -0.89063,0 -1.60938,-0.32813 -0.70312,-0.32812 -1.21875,-0.90625 -0.5,-0.57812 -0.76562,-1.35937 -0.26563,-0.78125 -0.26563,-1.70313 z m 1.45313,-0.17187 v 0.17187 q 0,0.64063 0.14062,1.20313 0.15625,0.54687 0.45313,0.98437 0.29687,0.42188 0.75,0.67188 0.45312,0.25 1.0625,0.25 0.59375,0 1.03125,-0.25 0.45312,-0.25 0.75,-0.67188 0.29687,-0.4375 0.45312,-0.98437 0.15625,-0.5625 0.15625,-1.20313 v -0.17187 q 0,-0.625 -0.15625,-1.1875 -0.15625,-0.5625 -0.45312,-0.98438 -0.29688,-0.4375 -0.75,-0.6875 -0.45313,-0.25 -1.04688,-0.25 -0.59375,0 -1.04687,0.25 -0.45313,0.25 -0.75,0.6875 -0.29688,0.42188 -0.45313,0.98438 -0.14062,0.5625 -0.14062,1.1875 z m 10.20312,2.8125 2.17188,-6.95313 h 0.95312 l -0.1875,1.375 -2.21875,7.07813 h -0.92187 z m -1.46875,-6.95313 1.85938,7.03125 0.125,1.42188 h -0.96875 l -2.45313,-8.45313 z m 6.67188,6.96875 1.76562,-6.96875 h 1.4375 l -2.45312,8.45313 h -0.96875 z m -1.875,-6.96875 2.125,6.82813 0.25,1.625 h -0.92188 l -2.28125,-7.09375 -0.1875,-1.35938 z m 17.60156,4.82813 h 1.5 q -0.10938,1.07812 -0.60938,1.9375 -0.5,0.84375 -1.42187,1.34375 -0.90625,0.5 -2.28125,0.5 -1,0 -1.8125,-0.375 -0.8125,-0.375 -1.40625,-1.0625 -0.57813,-0.70313 -0.90625,-1.67188 -0.3125,-0.96875 -0.3125,-2.17187 v -1.125 q 0,-1.20313 0.3125,-2.17188 0.32812,-0.96875 0.92187,-1.65625 0.59375,-0.70312 1.4375,-1.07812 0.84375,-0.375 1.90625,-0.375 1.28125,0 2.17188,0.48437 0.89062,0.48438 1.39062,1.34375 0.5,0.84375 0.60938,1.96875 h -1.5 q -0.10938,-0.79687 -0.40625,-1.35937 -0.29688,-0.57813 -0.84375,-0.89063 -0.54688,-0.3125 -1.42188,-0.3125 -0.76562,0 -1.34375,0.29688 -0.5625,0.28125 -0.95312,0.8125 -0.39063,0.53125 -0.59375,1.28125 -0.1875,0.73437 -0.1875,1.64062 v 1.14063 q 0,0.84375 0.17187,1.57812 0.1875,0.73438 0.54688,1.29688 0.35937,0.54687 0.90625,0.85937 0.5625,0.3125 1.3125,0.3125 0.96875,0 1.53125,-0.29687 0.57812,-0.3125 0.85937,-0.875 0.29688,-0.57813 0.42188,-1.375 z"
     fill-rule="nonzero"
     id="path32" />
  <path
     fill="#f8f9fa"
     d="m 414.56906,218.52223 c 0,-4.60393 3.73221,-8.33614 8.33612,-8.33614 h 74.19391 c 2.21088,0 4.33118,0.87827 5.89453,2.44161 1.5633,1.56332 2.44159,3.68364 2.44159,5.89453 v 33.34351 c 0,4.60391 -3.73224,8.33612 -8.33612,8.33612 h -74.19391 c -4.60391,0 -8.33612,-3.73221 -8.33612,-8.33612 z"
     fill-rule="evenodd"
     id="path33" />
  <path
     stroke="#bdc1c6"
     stroke-width="1"
     stroke-linejoin="round"
     stroke-linecap="butt"
     d="m 414.56906,218.52223 c 0,-4.60393 3.73221,-8.33614 8.33612,-8.33614 h 74.19391 c 2.21088,0 4.33118,0.87827 5.89453,2.44161 1.5633,1.56332 2.44159,3.68364 2.44159,5.89453 v 33.34351 c 0,4.60391 -3.73224,8.33612 -8.33612,8.33612 h -74.19391 c -4.60391,0 -8.33612,-3.73221 -8.33612,-8.33612 z"
     fill-rule="evenodd"
     id="path34" />
  <path
     fill="#000000"
     d="m 436.9787,229.67897 v 11.375 h -1.48438 v -11.375 z m 3.65625,0 v 1.23437 h -8.79688 v -1.23437 z m 5.57031,9.92187 v -4.34375 q 0,-0.5 -0.20312,-0.875 -0.20313,-0.375 -0.60938,-0.57812 -0.39062,-0.20313 -0.96875,-0.20313 -0.54687,0 -0.96875,0.1875 -0.40625,0.1875 -0.64062,0.5 -0.21875,0.29688 -0.21875,0.65625 h -1.45313 q 0,-0.45312 0.23438,-0.89062 0.23437,-0.45313 0.67187,-0.8125 0.45313,-0.375 1.0625,-0.57813 0.625,-0.21875 1.39063,-0.21875 0.92187,0 1.625,0.3125 0.71875,0.3125 1.10937,0.9375 0.40625,0.625 0.40625,1.57813 v 3.9375 q 0,0.42187 0.0781,0.90625 0.0781,0.46875 0.21875,0.8125 v 0.125 h -1.5 q -0.10938,-0.25 -0.17188,-0.67188 -0.0625,-0.42187 -0.0625,-0.78125 z m 0.25,-3.67187 0.0156,1.01562 h -1.46875 q -0.60938,0 -1.09375,0.0937 -0.48438,0.0937 -0.8125,0.29688 -0.32813,0.1875 -0.5,0.48437 -0.17188,0.29688 -0.17188,0.6875 0,0.39063 0.17188,0.71875 0.1875,0.32813 0.54687,0.53125 0.35938,0.1875 0.89063,0.1875 0.67187,0 1.17187,-0.28125 0.51563,-0.28125 0.8125,-0.6875 0.29688,-0.40625 0.32813,-0.79687 l 0.60937,0.70312 q -0.0469,0.32813 -0.29687,0.73438 -0.23438,0.39062 -0.64063,0.75 -0.40625,0.35937 -0.95312,0.60937 -0.54688,0.23438 -1.23438,0.23438 -0.85937,0 -1.51562,-0.32813 -0.64063,-0.34375 -1,-0.90625 -0.34375,-0.57812 -0.34375,-1.28125 0,-0.67187 0.26562,-1.1875 0.26563,-0.53125 0.76563,-0.875 0.5,-0.34375 1.20312,-0.51562 0.70313,-0.1875 1.5625,-0.1875 z m 8.39063,2.875 q 0,-0.3125 -0.14063,-0.57813 -0.14062,-0.26562 -0.5625,-0.48437 -0.40625,-0.23438 -1.25,-0.39063 -0.70312,-0.15625 -1.26562,-0.35937 -0.5625,-0.20313 -0.96875,-0.48438 -0.39063,-0.29687 -0.60938,-0.6875 -0.20312,-0.39062 -0.20312,-0.90625 0,-0.5 0.21875,-0.9375 0.23437,-0.45312 0.64062,-0.79687 0.40625,-0.34375 0.98438,-0.53125 0.57812,-0.20313 1.29687,-0.20313 1.01563,0 1.73438,0.35938 0.71875,0.35937 1.09375,0.95312 0.39062,0.59375 0.39062,1.32813 h -1.45312 q 0,-0.35938 -0.20313,-0.6875 -0.20312,-0.32813 -0.60937,-0.54688 -0.39063,-0.21875 -0.95313,-0.21875 -0.60937,0 -0.98437,0.1875 -0.35938,0.17188 -0.53125,0.45313 -0.17188,0.28125 -0.17188,0.59375 0,0.23437 0.0781,0.42187 0.0937,0.1875 0.29687,0.34375 0.21875,0.14063 0.59375,0.28125 0.39063,0.125 0.98438,0.26563 1.03125,0.23437 1.70312,0.5625 0.67188,0.32812 1,0.8125 0.32813,0.46875 0.32813,1.14062 0,0.5625 -0.23438,1.03125 -0.21875,0.45313 -0.65625,0.78125 -0.4375,0.32813 -1.03125,0.51563 -0.59375,0.1875 -1.34375,0.1875 -1.10937,0 -1.89062,-0.39063 -0.76563,-0.40625 -1.17188,-1.03125 -0.39062,-0.64062 -0.39062,-1.34375 h 1.45312 q 0.0312,0.59375 0.34375,0.9375 0.3125,0.34375 0.76563,0.5 0.45312,0.14063 0.89062,0.14063 0.59375,0 1,-0.15625 0.40625,-0.15625 0.60938,-0.42188 0.21875,-0.28125 0.21875,-0.64062 z m 4.78906,-9.75 v 12 h -1.45313 v -12 z m 5.15625,3.54687 -3.6875,3.9375 -2.0625,2.14063 -0.10938,-1.53125 1.46875,-1.76563 2.625,-2.78125 z m -1.3125,8.45313 -3.01563,-4.03125 0.75,-1.29688 3.96875,5.32813 z m 13.85937,-3.625 h 1.5 q -0.10937,1.07812 -0.60937,1.9375 -0.5,0.84375 -1.42188,1.34375 -0.90625,0.5 -2.28125,0.5 -1,0 -1.8125,-0.375 -0.8125,-0.375 -1.40625,-1.0625 -0.57812,-0.70313 -0.90625,-1.67188 -0.3125,-0.96875 -0.3125,-2.17187 v -1.125 q 0,-1.20313 0.3125,-2.17188 0.32813,-0.96875 0.92188,-1.65625 0.59375,-0.70312 1.4375,-1.07812 0.84375,-0.375 1.90625,-0.375 1.28125,0 2.17187,0.48437 0.89063,0.48438 1.39063,1.34375 0.5,0.84375 0.60937,1.96875 h -1.5 q -0.10937,-0.79687 -0.40625,-1.35937 -0.29687,-0.57813 -0.84375,-0.89063 -0.54687,-0.3125 -1.42187,-0.3125 -0.76563,0 -1.34375,0.29688 -0.5625,0.28125 -0.95313,0.8125 -0.39062,0.53125 -0.59375,1.28125 -0.1875,0.73437 -0.1875,1.64062 v 1.14063 q 0,0.84375 0.17188,1.57812 0.1875,0.73438 0.54687,1.29688 0.35938,0.54687 0.90625,0.85937 0.5625,0.3125 1.3125,0.3125 0.96875,0 1.53125,-0.29687 0.57813,-0.3125 0.85938,-0.875 0.29687,-0.57813 0.42187,-1.375 z m 10.63282,2.4375 v 1.1875 h -7.45313 v -1.04688 l 3.73438,-4.14062 q 0.6875,-0.76563 1.0625,-1.29688 0.375,-0.54687 0.53125,-0.96875 0.15625,-0.42187 0.15625,-0.875 0,-0.5625 -0.23438,-1.01562 -0.23437,-0.45313 -0.6875,-0.71875 -0.4375,-0.28125 -1.0625,-0.28125 -0.76562,0 -1.26562,0.29687 -0.5,0.28125 -0.75,0.8125 -0.25,0.51563 -0.25,1.20313 h -1.45313 q 0,-0.96875 0.42188,-1.76563 0.42187,-0.79687 1.25,-1.26562 0.82812,-0.46875 2.04687,-0.46875 1.07813,0 1.84375,0.375 0.76563,0.375 1.17188,1.0625 0.40625,0.6875 0.40625,1.59375 0,0.5 -0.17188,1.01562 -0.15625,0.51563 -0.45312,1.03125 -0.29688,0.5 -0.6875,1 -0.375,0.48438 -0.8125,0.95313 l -3.04688,3.3125 z"
     fill-rule="nonzero"
     id="path35" />
  <path
     fill="#000000"
     fill-opacity="0"
     d="m 227,160.57401 69.48032,74.61418"
     fill-rule="evenodd"
     id="path36" />
  <path
     stroke="#bdc1c6"
     stroke-width="1"
     stroke-linejoin="round"
     stroke-linecap="butt"
     d="m 227,160.57399 65.39142,70.22316"
     fill-rule="evenodd"
     id="path37" />
  <path
     fill="#bdc1c6"
     stroke="#bdc1c6"
     stroke-width="1"
     stroke-linecap="butt"
     d="m 291.18261,231.92278 4.30145,2.19553 -1.88385,-4.44677 z"
     fill-rule="evenodd"
     id="path38" />
  <path
     fill="#f8f9fa"
     d="m 296.4667,218.52223 c 0,-4.60393 3.73221,-8.33614 8.33612,-8.33614 h 74.19388 c 2.21088,0 4.33121,0.87827 5.89453,2.44161 1.56333,1.56332 2.44159,3.68364 2.44159,5.89453 v 33.34351 c 0,4.60391 -3.73221,8.33612 -8.33612,8.33612 h -74.19388 c -4.60391,0 -8.33612,-3.73221 -8.33612,-8.33612 z"
     fill-rule="evenodd"
     id="path39" />
  <path
     stroke="#bdc1c6"
     stroke-width="1"
     stroke-linejoin="round"
     stroke-linecap="butt"
     d="m 296.4667,218.52223 c 0,-4.60393 3.73221,-8.33614 8.33612,-8.33614 h 74.19388 c 2.21088,0 4.33121,0.87827 5.89453,2.44161 1.56333,1.56332 2.44159,3.68364 2.44159,5.89453 v 33.34351 c 0,4.60391 -3.73221,8.33612 -8.33612,8.33612 h -74.19388 c -4.60391,0 -8.33612,-3.73221 -8.33612,-8.33612 z"
     fill-rule="evenodd"
     id="path40" />
  <path
     fill="#000000"
     d="m 318.87631,229.67897 v 11.375 h -1.48438 v -11.375 z m 3.65625,0 v 1.23437 h -8.79688 v -1.23437 z m 5.57031,9.92187 v -4.34375 q 0,-0.5 -0.20312,-0.875 -0.20313,-0.375 -0.60938,-0.57812 -0.39062,-0.20313 -0.96875,-0.20313 -0.54687,0 -0.96875,0.1875 -0.40625,0.1875 -0.64062,0.5 -0.21875,0.29688 -0.21875,0.65625 h -1.45313 q 0,-0.45312 0.23438,-0.89062 0.23437,-0.45313 0.67187,-0.8125 0.45313,-0.375 1.0625,-0.57813 0.625,-0.21875 1.39063,-0.21875 0.92187,0 1.625,0.3125 0.71875,0.3125 1.10937,0.9375 0.40625,0.625 0.40625,1.57813 v 3.9375 q 0,0.42187 0.0781,0.90625 0.0781,0.46875 0.21875,0.8125 v 0.125 h -1.5 q -0.10938,-0.25 -0.17188,-0.67188 -0.0625,-0.42187 -0.0625,-0.78125 z m 0.25,-3.67187 0.0156,1.01562 h -1.46875 q -0.60938,0 -1.09375,0.0937 -0.48438,0.0937 -0.8125,0.29688 -0.32813,0.1875 -0.5,0.48437 -0.17188,0.29688 -0.17188,0.6875 0,0.39063 0.17188,0.71875 0.1875,0.32813 0.54687,0.53125 0.35938,0.1875 0.89063,0.1875 0.67187,0 1.17187,-0.28125 0.51563,-0.28125 0.8125,-0.6875 0.29688,-0.40625 0.32813,-0.79687 l 0.60937,0.70312 q -0.0469,0.32813 -0.29687,0.73438 -0.23438,0.39062 -0.64063,0.75 -0.40625,0.35937 -0.95312,0.60937 -0.54688,0.23438 -1.23438,0.23438 -0.85937,0 -1.51562,-0.32813 -0.64063,-0.34375 -1,-0.90625 -0.34375,-0.57812 -0.34375,-1.28125 0,-0.67187 0.26562,-1.1875 0.26563,-0.53125 0.76563,-0.875 0.5,-0.34375 1.20312,-0.51562 0.70313,-0.1875 1.5625,-0.1875 z m 8.39063,2.875 q 0,-0.3125 -0.14063,-0.57813 -0.14062,-0.26562 -0.5625,-0.48437 -0.40625,-0.23438 -1.25,-0.39063 -0.70312,-0.15625 -1.26562,-0.35937 -0.5625,-0.20313 -0.96875,-0.48438 -0.39063,-0.29687 -0.60938,-0.6875 -0.20312,-0.39062 -0.20312,-0.90625 0,-0.5 0.21875,-0.9375 0.23437,-0.45312 0.64062,-0.79687 0.40625,-0.34375 0.98438,-0.53125 0.57812,-0.20313 1.29687,-0.20313 1.01563,0 1.73438,0.35938 0.71875,0.35937 1.09375,0.95312 0.39062,0.59375 0.39062,1.32813 h -1.45312 q 0,-0.35938 -0.20313,-0.6875 -0.20312,-0.32813 -0.60937,-0.54688 -0.39063,-0.21875 -0.95313,-0.21875 -0.60937,0 -0.98437,0.1875 -0.35938,0.17188 -0.53125,0.45313 -0.17188,0.28125 -0.17188,0.59375 0,0.23437 0.0781,0.42187 0.0937,0.1875 0.29687,0.34375 0.21875,0.14063 0.59375,0.28125 0.39063,0.125 0.98438,0.26563 1.03125,0.23437 1.70312,0.5625 0.67188,0.32812 1,0.8125 0.32813,0.46875 0.32813,1.14062 0,0.5625 -0.23438,1.03125 -0.21875,0.45313 -0.65625,0.78125 -0.4375,0.32813 -1.03125,0.51563 -0.59375,0.1875 -1.34375,0.1875 -1.10937,0 -1.89062,-0.39063 -0.76563,-0.40625 -1.17188,-1.03125 -0.39062,-0.64062 -0.39062,-1.34375 h 1.45312 q 0.0312,0.59375 0.34375,0.9375 0.3125,0.34375 0.76563,0.5 0.45312,0.14063 0.89062,0.14063 0.59375,0 1,-0.15625 0.40625,-0.15625 0.60938,-0.42188 0.21875,-0.28125 0.21875,-0.64062 z m 4.78906,-9.75 v 12 h -1.45313 v -12 z m 5.15625,3.54687 -3.6875,3.9375 -2.0625,2.14063 -0.10938,-1.53125 1.46875,-1.76563 2.625,-2.78125 z m -1.3125,8.45313 -3.01563,-4.03125 0.75,-1.29688 3.96875,5.32813 z m 13.85937,-3.625 h 1.5 q -0.10937,1.07812 -0.60937,1.9375 -0.5,0.84375 -1.42188,1.34375 -0.90625,0.5 -2.28125,0.5 -1,0 -1.8125,-0.375 -0.8125,-0.375 -1.40625,-1.0625 -0.57812,-0.70313 -0.90625,-1.67188 -0.3125,-0.96875 -0.3125,-2.17187 v -1.125 q 0,-1.20313 0.3125,-2.17188 0.32813,-0.96875 0.92188,-1.65625 0.59375,-0.70312 1.4375,-1.07812 0.84375,-0.375 1.90625,-0.375 1.28125,0 2.17187,0.48437 0.89063,0.48438 1.39063,1.34375 0.5,0.84375 0.60937,1.96875 h -1.5 q -0.10937,-0.79687 -0.40625,-1.35937 -0.29687,-0.57813 -0.84375,-0.89063 -0.54687,-0.3125 -1.42187,-0.3125 -0.76563,0 -1.34375,0.29688 -0.5625,0.28125 -0.95313,0.8125 -0.39062,0.53125 -0.59375,1.28125 -0.1875,0.73437 -0.1875,1.64062 v 1.14063 q 0,0.84375 0.17188,1.57812 0.1875,0.73438 0.54687,1.29688 0.35938,0.54687 0.90625,0.85937 0.5625,0.3125 1.3125,0.3125 0.96875,0 1.53125,-0.29687 0.57813,-0.3125 0.85938,-0.875 0.29687,-0.57813 0.42187,-1.375 z m 7.92969,-7.8125 v 11.4375 h -1.45312 v -9.64063 l -2.90625,1.0625 v -1.29687 l 4.125,-1.5625 z"
     fill-rule="nonzero"
     id="path41" />
  <path
     fill="#000000"
     fill-opacity="0"
     d="m 387.33282,235.19397 h 27.24411"
     fill-rule="evenodd"
     id="path42" />
  <path
     stroke="#bdc1c6"
     stroke-width="1"
     stroke-linejoin="round"
     stroke-linecap="butt"
     d="m 387.33286,235.19397 h 21.24408"
     fill-rule="evenodd"
     id="path43" />
  <path
     fill="#bdc1c6"
     stroke="#bdc1c6"
     stroke-width="1"
     stroke-linecap="butt"
     d="m 408.57693,236.84571 4.53809,-1.65175 -4.53809,-1.65173 z"
     fill-rule="evenodd"
     id="path44" />
</svg>
