<?xml version="1.0" encoding="UTF-8" standalone="no"?>
<svg
   version="1.1"
   viewBox="0 0 400 220"
   fill="none"
   stroke="none"
   stroke-linecap="square"
   stroke-miterlimit="10"
   id="svg29"
   sodipodi:docname="graph-joinnode.svg"
   width="400"
   height="220"
   inkscape:version="1.4.3 (0d15f75, 2025-12-25)"
   xmlns:inkscape="http://www.inkscape.org/namespaces/inkscape"
   xmlns:sodipodi="http://sodipodi.sourceforge.net/DTD/sodipodi-0.dtd"
   xmlns="http://www.w3.org/2000/svg"
   xmlns:svg="http://www.w3.org/2000/svg">
  <defs
     id="defs29" />
  <sodipodi:namedview
     id="namedview29"
     pagecolor="#ffffff"
     bordercolor="#666666"
     borderopacity="1.0"
     inkscape:showpageshadow="2"
     inkscape:pageopacity="0.0"
     inkscape:pagecheckerboard="0"
     inkscape:deskcolor="#d1d1d1"
     inkscape:zoom="0.93333333"
     inkscape:cx="406.07143"
     inkscape:cy="139.28571"
     inkscape:window-width="1950"
     inkscape:window-height="1257"
     inkscape:window-x="1970"
     inkscape:window-y="221"
     inkscape:window-maximized="0"
     inkscape:current-layer="svg29" />
  <path
     fill="#f8f9fa"
     d="m 14.428571,17.407549 c 0,-4.60391 3.732208,-8.3361204 8.336128,-8.3361204 h 65.815942 c 2.21087,0 4.33119,0.87826 5.89453,2.4415904 1.56332,1.56332 2.44159,3.68365 2.44159,5.89453 v 33.34351 c 0,4.60391 -3.73221,8.33612 -8.33612,8.33612 H 22.764699 c -4.60392,0 -8.336128,-3.73221 -8.336128,-8.33612 z"
     fill-rule="evenodd"
     id="path3" />
  <path
     stroke="#bdc1c6"
     stroke-width="1"
     stroke-linejoin="round"
     stroke-linecap="butt"
     d="m 14.428571,17.407549 c 0,-4.60391 3.732208,-8.3361204 8.336128,-8.3361204 h 65.815942 c 2.21087,0 4.33119,0.87826 5.89453,2.4415904 1.56332,1.56332 2.44159,3.68365 2.44159,5.89453 v 33.34351 c 0,4.60391 -3.73221,8.33612 -8.33612,8.33612 H 22.764699 c -4.60392,0 -8.336128,-3.73221 -8.336128,-8.33612 z"
     fill-rule="evenodd"
     id="path4" />
  <path
     fill="#000000"
     d="m 37.133606,28.564299 v 11.375 h -1.484375 v -11.375 z m 3.656255,0 v 1.23437 h -8.79688 v -1.23437 z m 5.57031,9.92187 v -4.34375 q 0,-0.5 -0.20313,-0.875 -0.20312,-0.375 -0.60937,-0.57812 -0.39063,-0.20313 -0.96875,-0.20313 -0.54688,0 -0.96875,0.1875 -0.40625,0.1875 -0.64063,0.5 -0.21875,0.29688 -0.21875,0.65625 h -1.45312 q 0,-0.45312 0.23437,-0.89062 0.23438,-0.45313 0.67188,-0.8125 0.45312,-0.375 1.0625,-0.57813 0.625,-0.21875 1.39062,-0.21875 0.92188,0 1.625,0.3125 0.71875,0.3125 1.10938,0.9375 0.40625,0.625 0.40625,1.57813 v 3.9375 q 0,0.42187 0.0781,0.90625 0.0781,0.46875 0.21875,0.8125 v 0.125 h -1.5 q -0.10937,-0.25 -0.17187,-0.67188 -0.0625,-0.42187 -0.0625,-0.78125 z m 0.25,-3.67187 0.0156,1.01562 h -1.46875 q -0.60937,0 -1.09375,0.0937 -0.48437,0.0937 -0.8125,0.29688 -0.32812,0.1875 -0.5,0.48437 -0.17187,0.29688 -0.17187,0.6875 0,0.39063 0.17187,0.71875 0.1875,0.32813 0.54688,0.53125 0.35937,0.1875 0.89062,0.1875 0.67188,0 1.17188,-0.28125 0.51562,-0.28125 0.8125,-0.6875 0.29687,-0.40625 0.32812,-0.79687 l 0.60938,0.70312 q -0.0469,0.32813 -0.29688,0.73438 -0.23437,0.39062 -0.64062,0.75 -0.40625,0.35937 -0.95313,0.60937 -0.54687,0.23438 -1.23437,0.23438 -0.85938,0 -1.51563,-0.32813 -0.64062,-0.34375 -1,-0.90625 -0.34375,-0.57812 -0.34375,-1.28125 0,-0.67187 0.26563,-1.1875 0.26562,-0.53125 0.76562,-0.875 0.5,-0.34375 1.20313,-0.51562 0.70312,-0.1875 1.5625,-0.1875 z m 8.39062,2.875 q 0,-0.3125 -0.14062,-0.57813 -0.14063,-0.26562 -0.5625,-0.48437 -0.40625,-0.23438 -1.25,-0.39063 -0.70313,-0.15625 -1.26563,-0.35937 -0.5625,-0.20313 -0.96875,-0.48438 -0.39062,-0.29687 -0.60937,-0.6875 -0.20313,-0.39062 -0.20313,-0.90625 0,-0.5 0.21875,-0.9375 0.23438,-0.45312 0.64063,-0.79687 0.40625,-0.34375 0.98437,-0.53125 0.57813,-0.20313 1.29688,-0.20313 1.01562,0 1.73437,0.35938 0.71875,0.35937 1.09375,0.95312 0.39063,0.59375 0.39063,1.32813 h -1.45313 q 0,-0.35938 -0.20312,-0.6875 -0.20313,-0.32813 -0.60938,-0.54688 -0.39062,-0.21875 -0.95312,-0.21875 -0.60938,0 -0.98438,0.1875 -0.35937,0.17188 -0.53125,0.45313 -0.17187,0.28125 -0.17187,0.59375 0,0.23437 0.0781,0.42187 0.0937,0.1875 0.29688,0.34375 0.21875,0.14063 0.59375,0.28125 0.39062,0.125 0.98437,0.26563 1.03125,0.23437 1.70313,0.5625 0.67187,0.32812 1,0.8125 0.32812,0.46875 0.32812,1.14062 0,0.5625 -0.23437,1.03125 -0.21875,0.45313 -0.65625,0.78125 -0.4375,0.32813 -1.03125,0.51563 -0.59375,0.1875 -1.34375,0.1875 -1.10938,0 -1.89063,-0.39063 -0.76562,-0.40625 -1.17187,-1.03125 -0.39063,-0.64062 -0.39063,-1.34375 h 1.45313 q 0.0312,0.59375 0.34375,0.9375 0.3125,0.34375 0.76562,0.5 0.45313,0.14063 0.89063,0.14063 0.59375,0 1,-0.15625 0.40625,-0.15625 0.60937,-0.42188 0.21875,-0.28125 0.21875,-0.64062 z m 4.78907,-9.75 v 12 h -1.45313 v -12 z m 5.15625,3.54687 -3.6875,3.9375 -2.0625,2.14063 -0.10938,-1.53125 1.46875,-1.76563 2.625,-2.78125 z m -1.3125,8.45313 -3.01563,-4.03125 0.75,-1.29688 3.96875,5.32813 z m 11.20312,-10.375 -3.76563,10.375 h -1.53125 l 4.32813,-11.375 h 1 z m 3.15625,10.375 -3.76563,-10.375 -0.0312,-1 h 1 l 4.34375,11.375 z m -0.1875,-4.21875 v 1.23437 h -6.39063 v -1.23437 z"
     fill-rule="nonzero"
     id="path5" />
  <path
     fill="#f8f9fa"
     d="m 14.428571,97.407549 c 0,-4.60391 3.732208,-8.33612 8.336128,-8.33612 h 65.815942 c 2.21087,0 4.33119,0.87826 5.89453,2.44159 1.56332,1.56332 2.44159,3.68365 2.44159,5.89453 v 33.343511 c 0,4.60389 -3.73221,8.3361 -8.33612,8.3361 H 22.764699 c -4.60392,0 -8.336128,-3.73221 -8.336128,-8.3361 z"
     fill-rule="evenodd"
     id="path6" />
  <path
     stroke="#bdc1c6"
     stroke-width="1"
     stroke-linejoin="round"
     stroke-linecap="butt"
     d="m 14.428571,97.407549 c 0,-4.60391 3.732208,-8.33612 8.336128,-8.33612 h 65.815942 c 2.21087,0 4.33119,0.87826 5.89453,2.44159 1.56332,1.56332 2.44159,3.68365 2.44159,5.89453 v 33.343511 c 0,4.60389 -3.73221,8.3361 -8.33612,8.3361 H 22.764699 c -4.60392,0 -8.336128,-3.73221 -8.336128,-8.3361 z"
     fill-rule="evenodd"
     id="path7" />
  <path
     fill="#000000"
     d="m 37.367981,108.5643 v 11.375 h -1.484375 v -11.375 z m 3.65625,0 v 1.23437 h -8.796875 v -1.23437 z m 5.57031,9.92187 v -4.34375 q 0,-0.5 -0.20312,-0.875 -0.20313,-0.375 -0.60938,-0.57812 -0.39062,-0.20313 -0.96875,-0.20313 -0.54687,0 -0.96875,0.1875 -0.40625,0.1875 -0.64062,0.5 -0.21875,0.29688 -0.21875,0.65625 h -1.45313 q 0,-0.45312 0.23438,-0.89062 0.23437,-0.45313 0.67187,-0.8125 0.45313,-0.375 1.0625,-0.57813 0.625,-0.21875 1.39063,-0.21875 0.92187,0 1.625,0.3125 0.71875,0.3125 1.10937,0.9375 0.40625,0.625 0.40625,1.57813 v 3.9375 q 0,0.42187 0.0781,0.90625 0.0781,0.46875 0.21875,0.8125 v 0.125 h -1.5 q -0.10938,-0.25 -0.17188,-0.67188 -0.0625,-0.42187 -0.0625,-0.78125 z m 0.25,-3.67187 0.0156,1.01562 h -1.46875 q -0.60938,0 -1.09375,0.0937 -0.48438,0.0937 -0.8125,0.29688 -0.32813,0.1875 -0.5,0.48437 -0.17188,0.29688 -0.17188,0.6875 0,0.39063 0.17188,0.71875 0.1875,0.32813 0.54687,0.53125 0.35938,0.1875 0.89063,0.1875 0.67187,0 1.17187,-0.28125 0.51563,-0.28125 0.8125,-0.6875 0.29688,-0.40625 0.32813,-0.79687 l 0.60937,0.70312 q -0.0469,0.32813 -0.29687,0.73438 -0.23438,0.39062 -0.64063,0.75 -0.40625,0.35937 -0.95312,0.60937 -0.54688,0.23438 -1.23438,0.23438 -0.85937,0 -1.51562,-0.32813 -0.64063,-0.34375 -1,-0.90625 -0.34375,-0.57812 -0.34375,-1.28125 0,-0.67187 0.26562,-1.1875 0.26563,-0.53125 0.76563,-0.875 0.5,-0.34375 1.20312,-0.51562 0.70313,-0.1875 1.5625,-0.1875 z m 8.39063,2.875 q 0,-0.3125 -0.14063,-0.57813 -0.14062,-0.26562 -0.5625,-0.48437 -0.40625,-0.23438 -1.25,-0.39063 -0.70312,-0.15625 -1.26562,-0.35937 -0.5625,-0.20313 -0.96875,-0.48438 -0.39063,-0.29687 -0.60938,-0.6875 -0.20312,-0.39062 -0.20312,-0.90625 0,-0.5 0.21875,-0.9375 0.23437,-0.45312 0.64062,-0.79687 0.40625,-0.34375 0.98438,-0.53125 0.57812,-0.20313 1.29687,-0.20313 1.01563,0 1.73438,0.35938 0.71875,0.35937 1.09375,0.95312 0.39062,0.59375 0.39062,1.32813 h -1.45312 q 0,-0.35938 -0.20313,-0.6875 -0.20312,-0.32813 -0.60937,-0.54688 -0.39063,-0.21875 -0.95313,-0.21875 -0.60937,0 -0.98437,0.1875 -0.35938,0.17188 -0.53125,0.45313 -0.17188,0.28125 -0.17188,0.59375 0,0.23437 0.0781,0.42187 0.0937,0.1875 0.29687,0.34375 0.21875,0.14063 0.59375,0.28125 0.39063,0.125 0.98438,0.26563 1.03125,0.23437 1.70312,0.5625 0.67188,0.32812 1,0.8125 0.32813,0.46875 0.32813,1.14062 0,0.5625 -0.23438,1.03125 -0.21875,0.45313 -0.65625,0.78125 -0.4375,0.32813 -1.03125,0.51563 -0.59375,0.1875 -1.34375,0.1875 -1.10937,0 -1.89062,-0.39063 -0.76563,-0.40625 -1.17188,-1.03125 -0.39062,-0.64062 -0.39062,-1.34375 h 1.45312 q 0.0312,0.59375 0.34375,0.9375 0.3125,0.34375 0.76563,0.5 0.45312,0.14063 0.89062,0.14063 0.59375,0 1,-0.15625 0.40625,-0.15625 0.60938,-0.42188 0.21875,-0.28125 0.21875,-0.64062 z m 4.78906,-9.75 v 12 h -1.45312 v -12 z m 5.15625,3.54687 -3.6875,3.9375 -2.0625,2.14063 -0.10937,-1.53125 1.46875,-1.76563 2.625,-2.78125 z m -1.3125,8.45313 -3.01562,-4.03125 0.75,-1.29688 3.96875,5.32813 z m 11.04687,-5.32813 h -2.875 l -0.0156,-1.20312 h 2.60937 q 0.65625,0 1.14063,-0.21875 0.48437,-0.21875 0.75,-0.625 0.26562,-0.42188 0.26562,-0.98438 0,-0.625 -0.23437,-1.01562 -0.23438,-0.40625 -0.73438,-0.57813 -0.48437,-0.1875 -1.23437,-0.1875 h -2.21875 v 10.14063 h -1.5 v -11.375 h 3.71875 q 0.875,0 1.5625,0.17187 0.6875,0.17188 1.17187,0.54688 0.48438,0.375 0.73438,0.95312 0.25,0.5625 0.25,1.35938 0,0.70312 -0.35938,1.26562 -0.35937,0.5625 -1,0.92188 -0.64062,0.35937 -1.48437,0.46875 z m -0.0625,5.32813 h -3.40625 l 0.84375,-1.23438 h 2.5625 q 0.71875,0 1.21875,-0.25 0.5,-0.25 0.76563,-0.70312 0.26562,-0.45313 0.26562,-1.07813 0,-0.64062 -0.23437,-1.09375 -0.21875,-0.46875 -0.70313,-0.71875 -0.48437,-0.25 -1.25,-0.25 h -2.14062 l 0.0156,-1.20312 h 2.9375 l 0.3125,0.4375 q 0.82813,0.0625 1.39063,0.46875 0.57812,0.39062 0.875,1 0.29687,0.60937 0.29687,1.34375 0,1.0625 -0.46875,1.79687 -0.45312,0.71875 -1.29687,1.10938 -0.84375,0.375 -1.98438,0.375 z"
     fill-rule="nonzero"
     id="path8" />
  <path
     fill="#f8f9fa"
     d="m 14.428571,170.40755 c 0,-4.60391 3.732208,-8.33615 8.336128,-8.33615 h 65.815942 c 2.21087,0 4.33119,0.87829 5.89453,2.44162 1.56332,1.56332 2.44159,3.68365 2.44159,5.89453 v 33.34348 c 0,4.60391 -3.73221,8.33612 -8.33612,8.33612 H 22.764699 c -4.60392,0 -8.336128,-3.73221 -8.336128,-8.33612 z"
     fill-rule="evenodd"
     id="path9" />
  <path
     stroke="#bdc1c6"
     stroke-width="1"
     stroke-linejoin="round"
     stroke-linecap="butt"
     d="m 14.428571,170.40755 c 0,-4.60391 3.732208,-8.33615 8.336128,-8.33615 h 65.815942 c 2.21087,0 4.33119,0.87829 5.89453,2.44162 1.56332,1.56332 2.44159,3.68365 2.44159,5.89453 v 33.34348 c 0,4.60391 -3.73221,8.33612 -8.33612,8.33612 H 22.764699 c -4.60392,0 -8.336128,-3.73221 -8.336128,-8.33612 z"
     fill-rule="evenodd"
     id="path10" />
  <path
     fill="#000000"
     d="m 37.145321,181.5643 v 11.375 h -1.484375 v -11.375 z m 3.65625,0 v 1.23437 h -8.796875 v -1.23437 z m 5.57031,9.92187 v -4.34375 q 0,-0.5 -0.20312,-0.875 -0.20313,-0.375 -0.60938,-0.57812 -0.39062,-0.20313 -0.96875,-0.20313 -0.54687,0 -0.96875,0.1875 -0.40625,0.1875 -0.64062,0.5 -0.21875,0.29688 -0.21875,0.65625 h -1.45313 q 0,-0.45312 0.23438,-0.89062 0.23437,-0.45313 0.67187,-0.8125 0.45313,-0.375 1.0625,-0.57813 0.625,-0.21875 1.39063,-0.21875 0.92187,0 1.625,0.3125 0.71875,0.3125 1.10937,0.9375 0.40625,0.625 0.40625,1.57813 v 3.9375 q 0,0.42187 0.0781,0.90625 0.0781,0.46875 0.21875,0.8125 v 0.125 h -1.5 q -0.10938,-0.25 -0.17188,-0.67188 -0.0625,-0.42187 -0.0625,-0.78125 z m 0.25,-3.67187 0.0156,1.01562 h -1.46875 q -0.60938,0 -1.09375,0.0937 -0.48438,0.0937 -0.8125,0.29688 -0.32813,0.1875 -0.5,0.48437 -0.17188,0.29688 -0.17188,0.6875 0,0.39063 0.17188,0.71875 0.1875,0.32813 0.54687,0.53125 0.35938,0.1875 0.89063,0.1875 0.67187,0 1.17187,-0.28125 0.51563,-0.28125 0.8125,-0.6875 0.29688,-0.40625 0.32813,-0.79687 l 0.60937,0.70312 q -0.0469,0.32813 -0.29687,0.73438 -0.23438,0.39062 -0.64063,0.75 -0.40625,0.35937 -0.95312,0.60937 -0.54688,0.23438 -1.23438,0.23438 -0.85937,0 -1.51562,-0.32813 -0.64063,-0.34375 -1,-0.90625 -0.34375,-0.57812 -0.34375,-1.28125 0,-0.67187 0.26562,-1.1875 0.26563,-0.53125 0.76563,-0.875 0.5,-0.34375 1.20312,-0.51562 0.70313,-0.1875 1.5625,-0.1875 z m 8.39063,2.875 q 0,-0.3125 -0.14063,-0.57813 -0.14062,-0.26562 -0.5625,-0.48437 -0.40625,-0.23438 -1.25,-0.39063 -0.70312,-0.15625 -1.26562,-0.35937 -0.5625,-0.20313 -0.96875,-0.48438 -0.39063,-0.29687 -0.60938,-0.6875 -0.20312,-0.39062 -0.20312,-0.90625 0,-0.5 0.21875,-0.9375 0.23437,-0.45312 0.64062,-0.79687 0.40625,-0.34375 0.98438,-0.53125 0.57812,-0.20313 1.29687,-0.20313 1.01563,0 1.73438,0.35938 0.71875,0.35937 1.09375,0.95312 0.39062,0.59375 0.39062,1.32813 h -1.45312 q 0,-0.35938 -0.20313,-0.6875 -0.20312,-0.32813 -0.60937,-0.54688 -0.39063,-0.21875 -0.95313,-0.21875 -0.60937,0 -0.98437,0.1875 -0.35938,0.17188 -0.53125,0.45313 -0.17188,0.28125 -0.17188,0.59375 0,0.23437 0.0781,0.42187 0.0937,0.1875 0.29687,0.34375 0.21875,0.14063 0.59375,0.28125 0.39063,0.125 0.98438,0.26563 1.03125,0.23437 1.70312,0.5625 0.67188,0.32812 1,0.8125 0.32813,0.46875 0.32813,1.14062 0,0.5625 -0.23438,1.03125 -0.21875,0.45313 -0.65625,0.78125 -0.4375,0.32813 -1.03125,0.51563 -0.59375,0.1875 -1.34375,0.1875 -1.10937,0 -1.89062,-0.39063 -0.76563,-0.40625 -1.17188,-1.03125 -0.39062,-0.64062 -0.39062,-1.34375 h 1.45312 q 0.0312,0.59375 0.34375,0.9375 0.3125,0.34375 0.76563,0.5 0.45312,0.14063 0.89062,0.14063 0.59375,0 1,-0.15625 0.40625,-0.15625 0.60938,-0.42188 0.21875,-0.28125 0.21875,-0.64062 z m 4.78906,-9.75 v 12 h -1.45313 v -12 z m 5.15625,3.54687 -3.6875,3.9375 -2.0625,2.14063 -0.10938,-1.53125 1.46875,-1.76563 2.625,-2.78125 z m -1.3125,8.45313 -3.01563,-4.03125 0.75,-1.29688 3.96875,5.32813 z m 13.85937,-3.625 h 1.5 q -0.10937,1.07812 -0.60937,1.9375 -0.5,0.84375 -1.42188,1.34375 -0.90625,0.5 -2.28125,0.5 -1,0 -1.8125,-0.375 -0.8125,-0.375 -1.40625,-1.0625 -0.57812,-0.70313 -0.90625,-1.67188 -0.3125,-0.96875 -0.3125,-2.17187 v -1.125 q 0,-1.20313 0.3125,-2.17188 0.32813,-0.96875 0.92188,-1.65625 0.59375,-0.70312 1.4375,-1.07812 0.84375,-0.375 1.90625,-0.375 1.28125,0 2.17187,0.48437 0.89063,0.48438 1.39063,1.34375 0.5,0.84375 0.60937,1.96875 h -1.5 q -0.10937,-0.79687 -0.40625,-1.35937 -0.29687,-0.57813 -0.84375,-0.89063 -0.54687,-0.3125 -1.42187,-0.3125 -0.76563,0 -1.34375,0.29688 -0.5625,0.28125 -0.95313,0.8125 -0.39062,0.53125 -0.59375,1.28125 -0.1875,0.73437 -0.1875,1.64062 v 1.14063 q 0,0.84375 0.17188,1.57812 0.1875,0.73438 0.54687,1.29688 0.35938,0.54687 0.90625,0.85937 0.5625,0.3125 1.3125,0.3125 0.96875,0 1.53125,-0.29687 0.57813,-0.3125 0.85938,-0.875 0.29687,-0.57813 0.42187,-1.375 z"
     fill-rule="nonzero"
     id="path11" />
  <path
     fill="#ffd966"
     d="m 158.42857,98.407549 c 0,-4.60391 3.73221,-8.33612 8.33612,-8.33612 h 79.8317 c 2.21087,0 4.3312,0.87826 5.89453,2.44159 1.56332,1.56332 2.44159,3.68365 2.44159,5.89453 v 33.343511 c 0,4.60389 -3.73221,8.3361 -8.33612,8.3361 h -79.8317 c -4.60391,0 -8.33612,-3.73221 -8.33612,-8.3361 z"
     fill-rule="evenodd"
     id="path12" />
  <path
     stroke="#bdc1c6"
     stroke-width="1"
     stroke-linejoin="round"
     stroke-linecap="butt"
     d="m 158.42857,98.407549 c 0,-4.60391 3.73221,-8.33612 8.33612,-8.33612 h 79.8317 c 2.21087,0 4.3312,0.87826 5.89453,2.44159 1.56332,1.56332 2.44159,3.68365 2.44159,5.89453 v 33.343511 c 0,4.60389 -3.73221,8.3361 -8.33612,8.3361 h -79.8317 c -4.60391,0 -8.33612,-3.73221 -8.33612,-8.3361 z"
     fill-rule="evenodd"
     id="path13" />
  <path
     fill="#000000"
     d="m 176.42663,117.61117 v -8.04688 h 1.5 v 8.04688 q 0,1.125 -0.46875,1.90625 -0.45313,0.76562 -1.26563,1.17187 -0.79687,0.40625 -1.84375,0.40625 -1.04687,0 -1.85937,-0.35937 -0.8125,-0.35938 -1.28125,-1.09375 -0.45313,-0.73438 -0.45313,-1.85938 h 1.5 q 0,0.71875 0.26563,1.1875 0.26562,0.45313 0.73437,0.67188 0.48438,0.21875 1.09375,0.21875 0.59375,0 1.0625,-0.25 0.46875,-0.25 0.73438,-0.75 0.28125,-0.51563 0.28125,-1.25 z m 3.45312,-0.8125 v -0.17188 q 0,-0.92187 0.26563,-1.70312 0.26562,-0.78125 0.76562,-1.35938 0.5,-0.59375 1.20313,-0.90625 0.71875,-0.32812 1.60937,-0.32812 0.89063,0 1.59375,0.32812 0.71875,0.3125 1.21875,0.90625 0.51563,0.57813 0.78125,1.35938 0.26563,0.78125 0.26563,1.70312 v 0.17188 q 0,0.92187 -0.26563,1.70312 -0.26562,0.78125 -0.78125,1.35938 -0.5,0.57812 -1.20312,0.90625 -0.70313,0.32812 -1.59375,0.32812 -0.89063,0 -1.60938,-0.32812 -0.70312,-0.32813 -1.21875,-0.90625 -0.5,-0.57813 -0.76562,-1.35938 -0.26563,-0.78125 -0.26563,-1.70312 z m 1.45313,-0.17188 v 0.17188 q 0,0.64062 0.14062,1.20312 0.15625,0.54688 0.45313,0.98438 0.29687,0.42187 0.75,0.67187 0.45312,0.25 1.0625,0.25 0.59375,0 1.03125,-0.25 0.45312,-0.25 0.75,-0.67187 0.29687,-0.4375 0.45312,-0.98438 0.15625,-0.5625 0.15625,-1.20312 v -0.17188 q 0,-0.625 -0.15625,-1.1875 -0.15625,-0.5625 -0.45312,-0.98437 -0.29688,-0.4375 -0.75,-0.6875 -0.45313,-0.25 -1.04688,-0.25 -0.59375,0 -1.04687,0.25 -0.45313,0.25 -0.75,0.6875 -0.29688,0.42187 -0.45313,0.98437 -0.14062,0.5625 -0.14062,1.1875 z m 9.625,-4.14062 v 8.45312 h -1.45313 v -8.45312 z m -1.5625,-2.25 q 0,-0.34375 0.21875,-0.57813 0.21875,-0.25 0.64062,-0.25 0.40625,0 0.625,0.25 0.23438,0.23438 0.23438,0.57813 0,0.34375 -0.23438,0.57812 -0.21875,0.23438 -0.625,0.23438 -0.42187,0 -0.64062,-0.23438 -0.21875,-0.23437 -0.21875,-0.57812 z m 5.32812,4.04687 v 6.65625 h -1.4375 v -8.45312 h 1.35938 z m -0.34375,2.10938 -0.59375,-0.0312 q 0,-0.85938 0.25,-1.59375 0.25,-0.75 0.70313,-1.29688 0.45312,-0.54687 1.07812,-0.84375 0.64065,-0.29687 1.40627,-0.29687 0.625,0 1.125,0.17187 0.5,0.15625 0.84375,0.53125 0.35938,0.35938 0.54688,0.95313 0.1875,0.57812 0.1875,1.40625 v 5.54687 h -1.45313 v -5.5625 q 0,-0.65625 -0.20312,-1.0625 -0.1875,-0.40625 -0.5625,-0.57812 -0.375,-0.1875 -0.92188,-0.1875 -0.53125,0 -0.98439,0.23437 -0.4375,0.21875 -0.75,0.625 -0.3125,0.39063 -0.5,0.90625 -0.17187,0.5 -0.17188,1.07813 z m 20.67971,-6.82813 v 11.375 h -1.51563 l -5.73437,-8.78125 v 8.78125 h -1.5 v -11.375 h 1.5 l 5.75,8.79688 v -8.79688 z m 2.05469,7.23438 v -0.17188 q 0,-0.92187 0.26562,-1.70312 0.26563,-0.78125 0.76563,-1.35938 0.5,-0.59375 1.20312,-0.90625 0.71875,-0.32812 1.60938,-0.32812 0.89062,0 1.59375,0.32812 0.71875,0.3125 1.21875,0.90625 0.51562,0.57813 0.78125,1.35938 0.26562,0.78125 0.26562,1.70312 v 0.17188 q 0,0.92187 -0.26562,1.70312 -0.26563,0.78125 -0.78125,1.35938 -0.5,0.57812 -1.20313,0.90625 -0.70312,0.32812 -1.59375,0.32812 -0.89062,0 -1.60937,-0.32812 -0.70313,-0.32813 -1.21875,-0.90625 -0.5,-0.57813 -0.76563,-1.35938 -0.26562,-0.78125 -0.26562,-1.70312 z m 1.45312,-0.17188 v 0.17188 q 0,0.64062 0.14063,1.20312 0.15625,0.54688 0.45312,0.98438 0.29688,0.42187 0.75,0.67187 0.45313,0.25 1.0625,0.25 0.59375,0 1.03125,-0.25 0.45313,-0.25 0.75,-0.67187 0.29688,-0.4375 0.45313,-0.98438 0.15625,-0.5625 0.15625,-1.20312 v -0.17188 q 0,-0.625 -0.15625,-1.1875 -0.15625,-0.5625 -0.45313,-0.98437 -0.29687,-0.4375 -0.75,-0.6875 -0.45312,-0.25 -1.04687,-0.25 -0.59375,0 -1.04688,0.25 -0.45312,0.25 -0.75,0.6875 -0.29687,0.42187 -0.45312,0.98437 -0.14063,0.5625 -0.14063,1.1875 z m 13.39063,2.67188 v -10.35938 h 1.45312 v 12 h -1.32812 z m -5.6875,-2.5 v -0.15625 q 0,-0.96875 0.23437,-1.76563 0.23438,-0.79687 0.67188,-1.35937 0.45312,-0.57813 1.0625,-0.875 0.60937,-0.3125 1.375,-0.3125 0.79687,0 1.39062,0.28125 0.59375,0.26562 1.01563,0.79687 0.42187,0.53125 0.65625,1.28125 0.25,0.73438 0.34375,1.67188 v 0.71875 q -0.0937,0.92187 -0.34375,1.67187 -0.23438,0.73438 -0.65625,1.26563 -0.42188,0.51562 -1.03125,0.79687 -0.59375,0.28125 -1.39063,0.28125 -0.75,0 -1.35937,-0.3125 -0.60938,-0.32812 -1.0625,-0.90625 -0.4375,-0.57812 -0.67188,-1.35937 -0.23437,-0.79688 -0.23437,-1.71875 z m 1.45312,-0.15625 v 0.15625 q 0,0.64062 0.125,1.20312 0.125,0.54688 0.39063,0.96875 0.28125,0.42188 0.70312,0.65625 0.42188,0.23438 1.01563,0.23438 0.71875,0 1.17187,-0.29688 0.46875,-0.3125 0.75,-0.8125 0.28125,-0.5 0.4375,-1.07812 v -1.89063 q -0.0937,-0.42187 -0.26562,-0.82812 -0.17188,-0.40625 -0.45313,-0.71875 -0.28125,-0.3125 -0.6875,-0.5 -0.39062,-0.1875 -0.9375,-0.1875 -0.59375,0 -1.03125,0.25 -0.42187,0.23437 -0.70312,0.67187 -0.26563,0.42188 -0.39063,0.98438 -0.125,0.54687 -0.125,1.1875 z m 11.42969,4.45312 q -0.875,0 -1.59375,-0.29687 -0.71875,-0.3125 -1.23438,-0.85938 -0.5,-0.54687 -0.78125,-1.29687 -0.26562,-0.75 -0.26562,-1.64063 v -0.32812 q 0,-1.03125 0.29687,-1.82813 0.3125,-0.8125 0.82813,-1.375 0.53125,-0.5625 1.1875,-0.84375 0.67187,-0.29687 1.375,-0.29687 0.90625,0 1.5625,0.3125 0.67187,0.3125 1.09375,0.875 0.42187,0.54687 0.625,1.3125 0.20312,0.75 0.20312,1.64062 v 0.64063 h -6.3125 v -1.17188 h 4.85938 v -0.10937 q -0.0312,-0.5625 -0.23438,-1.09375 -0.1875,-0.53125 -0.625,-0.875 -0.42187,-0.34375 -1.17187,-0.34375 -0.48438,0 -0.90625,0.20312 -0.40625,0.20313 -0.70313,0.60938 -0.29687,0.40625 -0.46875,1 -0.15625,0.57812 -0.15625,1.34375 v 0.32812 q 0,0.60938 0.15625,1.14063 0.17188,0.51562 0.5,0.92187 0.32813,0.39063 0.78125,0.625 0.46875,0.21875 1.0625,0.21875 0.76563,0 1.29688,-0.3125 0.53125,-0.3125 0.9375,-0.82812 l 0.875,0.6875 q -0.28125,0.42187 -0.70313,0.79687 -0.42187,0.375 -1.03125,0.60938 -0.60937,0.23437 -1.45312,0.23437 z"
     fill-rule="nonzero"
     id="path14" />
  <path
     fill="#f8f9fa"
     d="m 302.42856,98.407549 c 0,-4.60391 3.73221,-8.33612 8.33612,-8.33612 h 65.81595 c 2.21088,0 4.33121,0.87826 5.89453,2.44159 1.56333,1.56332 2.44159,3.68365 2.44159,5.89453 v 33.343511 c 0,4.60389 -3.73221,8.3361 -8.33612,8.3361 h -65.81595 c -4.60391,0 -8.33612,-3.73221 -8.33612,-8.3361 z"
     fill-rule="evenodd"
     id="path15" />
  <path
     stroke="#bdc1c6"
     stroke-width="1"
     stroke-linejoin="round"
     stroke-linecap="butt"
     d="m 302.42856,98.407549 c 0,-4.60391 3.73221,-8.33612 8.33612,-8.33612 h 65.81595 c 2.21088,0 4.33121,0.87826 5.89453,2.44159 1.56333,1.56332 2.44159,3.68365 2.44159,5.89453 v 33.343511 c 0,4.60389 -3.73221,8.3361 -8.33612,8.3361 h -65.81595 c -4.60391,0 -8.33612,-3.73221 -8.33612,-8.3361 z"
     fill-rule="evenodd"
     id="path16" />
  <path
     fill="#000000"
     d="m 325.10234,109.5643 v 11.375 h -1.48438 v -11.375 z m 3.65625,0 v 1.23437 h -8.79688 v -1.23437 z m 5.57031,9.92187 v -4.34375 q 0,-0.5 -0.20312,-0.875 -0.20313,-0.375 -0.60938,-0.57812 -0.39062,-0.20313 -0.96875,-0.20313 -0.54687,0 -0.96875,0.1875 -0.40625,0.1875 -0.64062,0.5 -0.21875,0.29688 -0.21875,0.65625 h -1.45313 q 0,-0.45312 0.23438,-0.89062 0.23437,-0.45313 0.67187,-0.8125 0.45313,-0.375 1.0625,-0.57813 0.625,-0.21875 1.39063,-0.21875 0.92187,0 1.625,0.3125 0.71875,0.3125 1.10937,0.9375 0.40625,0.625 0.40625,1.57813 v 3.9375 q 0,0.42187 0.0781,0.90625 0.0781,0.46875 0.21875,0.8125 v 0.125 h -1.5 q -0.10938,-0.25 -0.17188,-0.67188 -0.0625,-0.42187 -0.0625,-0.78125 z m 0.25,-3.67187 0.0156,1.01562 h -1.46875 q -0.60938,0 -1.09375,0.0937 -0.48438,0.0937 -0.8125,0.29688 -0.32813,0.1875 -0.5,0.48437 -0.17188,0.29688 -0.17188,0.6875 0,0.39063 0.17188,0.71875 0.1875,0.32813 0.54687,0.53125 0.35938,0.1875 0.89063,0.1875 0.67187,0 1.17187,-0.28125 0.51563,-0.28125 0.8125,-0.6875 0.29688,-0.40625 0.32813,-0.79687 l 0.60937,0.70312 q -0.0469,0.32813 -0.29687,0.73438 -0.23438,0.39062 -0.64063,0.75 -0.40625,0.35937 -0.95312,0.60937 -0.54688,0.23438 -1.23438,0.23438 -0.85937,0 -1.51562,-0.32813 -0.64063,-0.34375 -1,-0.90625 -0.34375,-0.57812 -0.34375,-1.28125 0,-0.67187 0.26562,-1.1875 0.26563,-0.53125 0.76563,-0.875 0.5,-0.34375 1.20312,-0.51562 0.70313,-0.1875 1.5625,-0.1875 z m 8.39066,2.875 q 0,-0.3125 -0.14063,-0.57813 -0.14062,-0.26562 -0.5625,-0.48437 -0.40625,-0.23438 -1.25,-0.39063 -0.70312,-0.15625 -1.26562,-0.35937 -0.5625,-0.20313 -0.96875,-0.48438 -0.39063,-0.29687 -0.60938,-0.6875 -0.20312,-0.39062 -0.20312,-0.90625 0,-0.5 0.21875,-0.9375 0.23437,-0.45312 0.64062,-0.79687 0.40625,-0.34375 0.98438,-0.53125 0.57812,-0.20313 1.29687,-0.20313 1.01563,0 1.73438,0.35938 0.71875,0.35937 1.09375,0.95312 0.39062,0.59375 0.39062,1.32813 h -1.45312 q 0,-0.35938 -0.20313,-0.6875 -0.20312,-0.32813 -0.60937,-0.54688 -0.39063,-0.21875 -0.95313,-0.21875 -0.60937,0 -0.98437,0.1875 -0.35938,0.17188 -0.53125,0.45313 -0.17188,0.28125 -0.17188,0.59375 0,0.23437 0.0781,0.42187 0.0937,0.1875 0.29687,0.34375 0.21875,0.14063 0.59375,0.28125 0.39063,0.125 0.98438,0.26563 1.03125,0.23437 1.70312,0.5625 0.67188,0.32812 1,0.8125 0.32813,0.46875 0.32813,1.14062 0,0.5625 -0.23438,1.03125 -0.21875,0.45313 -0.65625,0.78125 -0.4375,0.32813 -1.03125,0.51563 -0.59375,0.1875 -1.34375,0.1875 -1.10937,0 -1.89062,-0.39063 -0.76563,-0.40625 -1.17188,-1.03125 -0.39062,-0.64062 -0.39062,-1.34375 h 1.45312 q 0.0312,0.59375 0.34375,0.9375 0.3125,0.34375 0.76563,0.5 0.45312,0.14063 0.89062,0.14063 0.59375,0 1,-0.15625 0.40625,-0.15625 0.60938,-0.42188 0.21875,-0.28125 0.21875,-0.64062 z m 4.78906,-9.75 v 12 h -1.45312 v -12 z m 5.15625,3.54687 -3.6875,3.9375 -2.0625,2.14063 -0.10937,-1.53125 1.46875,-1.76563 2.625,-2.78125 z m -1.3125,8.45313 -3.01562,-4.03125 0.75,-1.29688 3.96875,5.32813 z m 10.07813,0 h -2.375 l 0.0156,-1.23438 h 2.35938 q 1.21875,0 2.03125,-0.5 0.8125,-0.51562 1.21875,-1.4375 0.40625,-0.9375 0.40625,-2.17187 v -0.70313 q 0,-0.96875 -0.23438,-1.73437 -0.23437,-0.76563 -0.6875,-1.28125 -0.45312,-0.53125 -1.10937,-0.79688 -0.64063,-0.28125 -1.48438,-0.28125 h -2.5625 v -1.23437 h 2.5625 q 1.10938,0 2.03125,0.375 0.92188,0.35937 1.59375,1.0625 0.67188,0.70312 1.03125,1.6875 0.35938,0.98437 0.35938,2.21875 v 0.6875 q 0,1.23437 -0.35938,2.21875 -0.35937,0.98437 -1.04687,1.6875 -0.67188,0.6875 -1.625,1.0625 -0.9375,0.375 -2.125,0.375 z m -1.57813,-11.375 v 11.375 h -1.5 v -11.375 z"
     fill-rule="nonzero"
     id="path17" />
  <path
     fill="#000000"
     fill-opacity="0"
     d="M 96.916761,34.079299 158.42857,115.08717"
     fill-rule="evenodd"
     id="path18" />
  <path
     stroke="#bdc1c6"
     stroke-width="1"
     stroke-linejoin="round"
     stroke-linecap="butt"
     d="M 96.916761,34.079299 154.80011,110.30867"
     fill-rule="evenodd"
     id="path19" />
  <path
     fill="#bdc1c6"
     stroke="#bdc1c6"
     stroke-width="1"
     stroke-linecap="butt"
     d="m 153.48463,111.30754 4.05986,2.61534 -1.42892,-4.6131 z"
     fill-rule="evenodd"
     id="path20" />
  <path
     fill="#000000"
     fill-opacity="0"
     d="m 96.916761,114.0793 61.511809,1.00787"
     fill-rule="evenodd"
     id="path21" />
  <path
     stroke="#bdc1c6"
     stroke-width="1"
     stroke-linejoin="round"
     stroke-linecap="butt"
     d="m 96.916761,114.0793 55.512599,0.90958"
     fill-rule="evenodd"
     id="path22" />
  <path
     fill="#bdc1c6"
     stroke="#bdc1c6"
     stroke-width="1"
     stroke-linecap="butt"
     d="m 152.40231,116.64038 4.56456,-1.57716 -4.51044,-1.72585 z"
     fill-rule="evenodd"
     id="path23" />
  <path
     fill="#000000"
     fill-opacity="0"
     d="M 96.916761,187.07928 158.42857,115.0793"
     fill-rule="evenodd"
     id="path24" />
  <path
     stroke="#bdc1c6"
     stroke-width="1"
     stroke-linejoin="round"
     stroke-linecap="butt"
     d="M 96.916761,187.07928 154.53122,119.64115"
     fill-rule="evenodd"
     id="path25" />
  <path
     fill="#bdc1c6"
     stroke="#bdc1c6"
     stroke-width="1"
     stroke-linecap="butt"
     d="m 155.78706,120.71406 1.69192,-4.52327 -4.20359,2.37747 z"
     fill-rule="evenodd"
     id="path26" />
  <path
     fill="#000000"
     fill-opacity="0"
     d="m 254.93251,115.0793 h 47.49606"
     fill-rule="evenodd"
     id="path27" />
  <path
     stroke="#bdc1c6"
     stroke-width="1"
     stroke-linejoin="round"
     stroke-linecap="butt"
     d="m 254.93251,115.0793 h 41.49606"
     fill-rule="evenodd"
     id="path28" />
  <path
     fill="#bdc1c6"
     stroke="#bdc1c6"
     stroke-width="1"
     stroke-linecap="butt"
     d="m 296.42856,116.73103 4.53809,-1.65173 -4.53809,-1.65174 z"
     fill-rule="evenodd"
     id="path29" />
</svg>
