<?xml version="1.0" encoding="UTF-8" standalone="no"?>
<svg
   version="1.1"
   viewBox="0 0 516 270"
   fill="none"
   stroke="none"
   stroke-linecap="square"
   stroke-miterlimit="10"
   id="svg64"
   sodipodi:docname="template_workflows.svg"
   width="516"
   height="270"
   inkscape:version="1.4.3 (0d15f75, 2025-12-25)"
   xmlns:inkscape="http://www.inkscape.org/namespaces/inkscape"
   xmlns:sodipodi="http://sodipodi.sourceforge.net/DTD/sodipodi-0.dtd"
   xmlns="http://www.w3.org/2000/svg"
   xmlns:svg="http://www.w3.org/2000/svg">
  <defs
     id="defs64" />
  <sodipodi:namedview
     id="namedview64"
     pagecolor="#ffffff"
     bordercolor="#666666"
     borderopacity="1.0"
     inkscape:showpageshadow="2"
     inkscape:pageopacity="0.0"
     inkscape:pagecheckerboard="0"
     inkscape:deskcolor="#d1d1d1"
     inkscape:zoom="0.93333333"
     inkscape:cx="269.46429"
     inkscape:cy="129.64286"
     inkscape:window-width="1794"
     inkscape:window-height="1279"
     inkscape:window-x="2207"
     inkscape:window-y="81"
     inkscape:window-maximized="0"
     inkscape:current-layer="svg64" />
  <path
     fill="#f8f9fa"
     d="m 358.50793,60.785563 c 0,-3.40524 2.7605,-6.16574 6.16571,-6.16574 h 140.17249 c 1.63525,0 3.20349,0.64961 4.3598,1.80591 1.15631,1.15629 1.80591,2.72458 1.80591,4.35983 V 257.93439 c 0,3.40524 -2.7605,6.16574 -6.16571,6.16574 H 364.67364 c -3.40521,0 -6.16571,-2.7605 -6.16571,-6.16574 z"
     fill-rule="evenodd"
     id="path3" />
  <path
     stroke="#bdc1c6"
     stroke-width="1"
     stroke-linejoin="round"
     stroke-linecap="butt"
     d="m 358.50793,60.785563 c 0,-3.40524 2.7605,-6.16574 6.16571,-6.16574 h 140.17249 c 1.63525,0 3.20349,0.64961 4.3598,1.80591 1.15631,1.15629 1.80591,2.72458 1.80591,4.35983 V 257.93439 c 0,3.40524 -2.7605,6.16574 -6.16571,6.16574 H 364.67364 c -3.40521,0 -6.16571,-2.7605 -6.16571,-6.16574 z"
     fill-rule="evenodd"
     id="path4" />
  <path
     fill="#3c4043"
     d="m 396.48318,68.012203 h -2.45313 v -1.54688 h 2.45313 q 0.57812,0 0.9375,-0.1875 0.35937,-0.1875 0.51562,-0.53125 0.17188,-0.34375 0.17188,-0.76562 0,-0.42188 -0.17188,-0.79688 -0.15625,-0.375 -0.51562,-0.59375 -0.35938,-0.21875 -0.9375,-0.21875 h -1.76563 v 8.07813 h -1.98437 v -9.64063 h 3.75 q 1.14062,0 1.95312,0.40625 0.8125,0.40625 1.23438,1.125 0.4375,0.71875 0.4375,1.625 0,0.9375 -0.4375,1.625 -0.42188,0.6875 -1.23438,1.0625 -0.8125,0.35938 -1.95312,0.35938 z m 8.66864,1.82812 v -3.20312 q 0,-0.34375 -0.10938,-0.59375 -0.10937,-0.25 -0.35937,-0.375 -0.23438,-0.14063 -0.59375,-0.14063 -0.32813,0 -0.5625,0.10938 -0.21875,0.10937 -0.34375,0.3125 -0.125,0.20312 -0.125,0.46875 h -1.90625 q 0,-0.45313 0.20312,-0.85938 0.21875,-0.42187 0.60938,-0.73437 0.40625,-0.3125 0.96875,-0.48438 0.5625,-0.1875 1.26562,-0.1875 0.82813,0 1.46875,0.28125 0.65625,0.28125 1.03125,0.84375 0.375,0.54688 0.375,1.375 v 3.0625 q 0,0.59375 0.0625,0.96875 0.0781,0.375 0.21875,0.65625 v 0.10938 h -1.92187 q -0.14063,-0.29688 -0.21875,-0.73438 -0.0625,-0.4375 -0.0625,-0.875 z m 0.25,-2.75 0.0156,1.07813 h -1.0625 q -0.375,0 -0.65625,0.0937 -0.28125,0.0781 -0.46875,0.23437 -0.17187,0.15625 -0.26562,0.35938 -0.0781,0.20312 -0.0781,0.45312 0,0.23438 0.10938,0.4375 0.125,0.1875 0.32812,0.29688 0.21875,0.10937 0.5,0.10937 0.4375,0 0.75,-0.17187 0.3125,-0.17188 0.48438,-0.42188 0.1875,-0.25 0.1875,-0.46875 l 0.51562,0.79688 q -0.10937,0.28125 -0.29687,0.57812 -0.1875,0.28125 -0.46875,0.54688 -0.26563,0.25 -0.65625,0.40625 -0.39063,0.15625 -0.92188,0.15625 -0.6875,0 -1.25,-0.26563 -0.54687,-0.28125 -0.875,-0.76562 -0.3125,-0.48438 -0.3125,-1.10938 0,-0.5625 0.20313,-1 0.21875,-0.4375 0.625,-0.73437 0.42187,-0.29688 1.04687,-0.45313 0.625,-0.15625 1.4375,-0.15625 z m 5.05493,-1.25 v 5.60938 h -1.92187 v -7.17188 h 1.79687 z m 2.15625,-1.60937 -0.0312,1.78125 q -0.14062,-0.0312 -0.34375,-0.0469 -0.1875,-0.0156 -0.34375,-0.0156 -0.40625,0 -0.70312,0.10937 -0.29688,0.0937 -0.5,0.29688 -0.1875,0.20312 -0.28125,0.48437 -0.0937,0.28125 -0.10938,0.65625 l -0.39062,-0.125 q 0,-0.70312 0.14062,-1.28125 0.14063,-0.59375 0.40625,-1.03125 0.26563,-0.4375 0.65625,-0.67187 0.39063,-0.23438 0.90625,-0.23438 0.15625,0 0.3125,0.0312 0.17188,0.0156 0.28125,0.0469 z m 4.54498,5.60937 v -3.20312 q 0,-0.34375 -0.10937,-0.59375 -0.10938,-0.25 -0.35938,-0.375 -0.23437,-0.14063 -0.59375,-0.14063 -0.32812,0 -0.5625,0.10938 -0.21875,0.10937 -0.34375,0.3125 -0.125,0.20312 -0.125,0.46875 h -1.90625 q 0,-0.45313 0.20313,-0.85938 0.21875,-0.42187 0.60937,-0.73437 0.40625,-0.3125 0.96875,-0.48438 0.5625,-0.1875 1.26563,-0.1875 0.82812,0 1.46875,0.28125 0.65625,0.28125 1.03125,0.84375 0.375,0.54688 0.375,1.375 v 3.0625 q 0,0.59375 0.0625,0.96875 0.0781,0.375 0.21875,0.65625 v 0.10938 h -1.92188 q -0.14062,-0.29688 -0.21875,-0.73438 -0.0625,-0.4375 -0.0625,-0.875 z m 0.25,-2.75 0.0156,1.07813 h -1.0625 q -0.375,0 -0.65625,0.0937 -0.28125,0.0781 -0.46875,0.23437 -0.17188,0.15625 -0.26563,0.35938 -0.0781,0.20312 -0.0781,0.45312 0,0.23438 0.10937,0.4375 0.125,0.1875 0.32813,0.29688 0.21875,0.10937 0.5,0.10937 0.4375,0 0.75,-0.17187 0.3125,-0.17188 0.48437,-0.42188 0.1875,-0.25 0.1875,-0.46875 l 0.51563,0.79688 q -0.10938,0.28125 -0.29688,0.57812 -0.1875,0.28125 -0.46875,0.54688 -0.26562,0.25 -0.65625,0.40625 -0.39062,0.15625 -0.92187,0.15625 -0.6875,0 -1.25,-0.26563 -0.54688,-0.28125 -0.875,-0.76562 -0.3125,-0.48438 -0.3125,-1.10938 0,-0.5625 0.20312,-1 0.21875,-0.4375 0.625,-0.73437 0.42188,-0.29688 1.04688,-0.45313 0.625,-0.15625 1.4375,-0.15625 z m 5.14869,-5.8125 v 10.17188 h -1.90625 v -10.17188 z m 3.58929,0 v 10.17188 h -1.90625 v -10.17188 z m 4.88617,10.29688 q -0.84375,0 -1.51563,-0.26563 -0.65625,-0.26562 -1.125,-0.73437 -0.45312,-0.48438 -0.70312,-1.10938 -0.23438,-0.64062 -0.23438,-1.35937 v -0.26563 q 0,-0.8125 0.23438,-1.48437 0.23437,-0.67188 0.65625,-1.17188 0.4375,-0.5 1.0625,-0.76562 0.625,-0.26563 1.40625,-0.26563 0.76562,0 1.34375,0.25 0.59375,0.25 0.98437,0.71875 0.40625,0.45313 0.60938,1.10938 0.21875,0.64062 0.21875,1.4375 v 0.78125 h -5.70313 v -1.26563 h 3.82813 v -0.14062 q 0,-0.40625 -0.14063,-0.71875 -0.14062,-0.3125 -0.4375,-0.5 -0.28125,-0.1875 -0.71875,-0.1875 -0.375,0 -0.65625,0.17187 -0.26562,0.15625 -0.4375,0.46875 -0.17187,0.29688 -0.25,0.70313 -0.0781,0.39062 -0.0781,0.85937 v 0.26563 q 0,0.4375 0.10937,0.8125 0.125,0.35937 0.35938,0.625 0.23437,0.25 0.54687,0.40625 0.32813,0.14062 0.75,0.14062 0.51563,0 0.95313,-0.20312 0.45312,-0.20313 0.78125,-0.60938 l 0.9375,1 q -0.23438,0.32813 -0.625,0.625 -0.375,0.29688 -0.92188,0.48438 -0.54687,0.1875 -1.23437,0.1875 z m 6.02741,-10.29688 v 10.17188 h -1.90625 v -10.17188 z m 8.99133,2.17188 -2.625,8 h -2.10938 l 3.57813,-9.64063 h 1.34375 z m 2.17187,8 -2.625,-8 -0.20312,-1.64063 h 1.35937 l 3.59375,9.64063 z m -0.10937,-3.59375 v 1.5625 h -5.09375 v -1.5625 z m 7.5498,-3.57813 h 1.71875 v 6.9375 q 0,0.96875 -0.4375,1.65625 -0.42187,0.6875 -1.20312,1.04688 -0.76563,0.35937 -1.79688,0.35937 -0.45312,0 -0.95312,-0.125 -0.5,-0.125 -0.95313,-0.375 -0.45312,-0.25 -0.75,-0.625 l 0.82813,-1.14062 q 0.34375,0.39062 0.78125,0.60937 0.4375,0.21875 0.96875,0.21875 0.51562,0 0.85937,-0.20312 0.35938,-0.1875 0.54688,-0.54688 0.20312,-0.35937 0.20312,-0.85937 v -5.29688 z m -4.82812,3.67188 v -0.14063 q 0,-0.8125 0.20312,-1.48437 0.20313,-0.67188 0.57813,-1.15625 0.375,-0.48438 0.90625,-0.75 0.54687,-0.26563 1.21875,-0.26563 0.71875,0 1.20312,0.26563 0.48438,0.26562 0.78125,0.75 0.3125,0.48437 0.48438,1.14062 0.1875,0.65625 0.28125,1.45313 v 0.29687 q -0.0937,0.75 -0.29688,1.39063 -0.20312,0.64062 -0.53125,1.125 -0.3125,0.48437 -0.79687,0.75 -0.48438,0.25 -1.14063,0.25 -0.65625,0 -1.20312,-0.26563 -0.53125,-0.26562 -0.90625,-0.75 -0.375,-0.5 -0.57813,-1.15625 -0.20312,-0.67187 -0.20312,-1.45312 z m 1.90625,-0.14063 v 0.14063 q 0,0.45312 0.0781,0.84375 0.0937,0.375 0.28125,0.67187 0.1875,0.28125 0.45313,0.45313 0.28125,0.15625 0.65625,0.15625 0.51562,0 0.84375,-0.21875 0.34375,-0.21875 0.5,-0.60938 0.17187,-0.39062 0.20312,-0.90625 v -0.85937 q -0.0156,-0.42188 -0.125,-0.75 -0.0937,-0.34375 -0.28125,-0.57813 -0.17187,-0.23437 -0.45312,-0.35937 -0.28125,-0.14063 -0.67188,-0.14063 -0.375,0 -0.65625,0.17188 -0.28125,0.15625 -0.46875,0.45312 -0.17187,0.29688 -0.26562,0.6875 -0.0937,0.39063 -0.0937,0.84375 z m 9.43561,3.76563 q -0.84375,0 -1.51563,-0.26563 -0.65625,-0.26562 -1.125,-0.73437 -0.45312,-0.48438 -0.70312,-1.10938 -0.23438,-0.64062 -0.23438,-1.35937 v -0.26563 q 0,-0.8125 0.23438,-1.48437 0.23437,-0.67188 0.65625,-1.17188 0.4375,-0.5 1.0625,-0.76562 0.625,-0.26563 1.40625,-0.26563 0.76562,0 1.34375,0.25 0.59375,0.25 0.98437,0.71875 0.40625,0.45313 0.60938,1.10938 0.21875,0.64062 0.21875,1.4375 v 0.78125 h -5.70313 v -1.26563 h 3.82813 v -0.14062 q 0,-0.40625 -0.14063,-0.71875 -0.14062,-0.3125 -0.4375,-0.5 -0.28125,-0.1875 -0.71875,-0.1875 -0.375,0 -0.65625,0.17187 -0.26562,0.15625 -0.4375,0.46875 -0.17187,0.29688 -0.25,0.70313 -0.0781,0.39062 -0.0781,0.85937 v 0.26563 q 0,0.4375 0.10937,0.8125 0.125,0.35937 0.35938,0.625 0.23437,0.25 0.54687,0.40625 0.32813,0.14062 0.75,0.14062 0.51563,0 0.95313,-0.20312 0.45312,-0.20313 0.78125,-0.60938 l 0.9375,1 q -0.23438,0.32813 -0.625,0.625 -0.375,0.29688 -0.92188,0.48438 -0.54687,0.1875 -1.23437,0.1875 z m 5.88678,-5.76563 v 5.64063 h -1.90625 v -7.17188 h 1.78125 z m -0.28125,1.8125 h -0.51563 q 0,-0.79687 0.20313,-1.4375 0.20312,-0.64062 0.57812,-1.09375 0.375,-0.45312 0.89063,-0.6875 0.51562,-0.25 1.14062,-0.25 0.5,0 0.92188,0.15625 0.42187,0.14063 0.71875,0.45313 0.29687,0.3125 0.45312,0.84375 0.17188,0.51562 0.17188,1.28125 v 4.5625 h -1.92188 v -4.57813 q 0,-0.46875 -0.14062,-0.73437 -0.125,-0.26563 -0.375,-0.375 -0.25,-0.10938 -0.625,-0.10938 -0.39063,0 -0.67188,0.15625 -0.28125,0.14063 -0.46875,0.42188 -0.17187,0.26562 -0.26562,0.625 -0.0937,0.34375 -0.0937,0.76562 z m 9.52429,-3.34375 v 1.35938 h -4.17188 v -1.35938 z m -3.14063,-1.76562 h 1.90625 v 6.78125 q 0,0.3125 0.0781,0.48437 0.0937,0.15625 0.25,0.21875 0.17187,0.0625 0.42187,0.0625 0.1875,0 0.32813,-0.0156 0.14062,-0.0156 0.23437,-0.0312 l 0.0156,1.39062 q -0.25,0.0937 -0.54688,0.125 -0.28125,0.0469 -0.625,0.0469 -0.625,0 -1.09375,-0.20313 -0.46875,-0.20312 -0.71875,-0.67187 -0.25,-0.46875 -0.25,-1.21875 z"
     fill-rule="nonzero"
     id="path5" />
  <path
     fill="#e8f0fe"
     d="m 388.85284,101.40435 c 0,-1.23447 1.00073,-2.235197 2.23517,-2.235197 h 104.00207 c 0.59284,0 1.16138,0.23549 1.58051,0.65468 0.41919,0.419167 0.65472,0.987697 0.65472,1.580517 v 25.38789 c 0,1.23444 -1.00073,2.23517 -2.23523,2.23517 H 391.08801 c -1.23444,0 -2.23517,-1.00073 -2.23517,-2.23517 z"
     fill-rule="evenodd"
     id="path6" />
  <path
     stroke="#1a73e8"
     stroke-width="1"
     stroke-linejoin="round"
     stroke-linecap="butt"
     d="m 388.85284,101.40435 c 0,-1.23447 1.00073,-2.235197 2.23517,-2.235197 h 104.00207 c 0.59284,0 1.16138,0.23549 1.58051,0.65468 0.41919,0.419167 0.65472,0.987697 0.65472,1.580517 v 25.38789 c 0,1.23444 -1.00073,2.23517 -2.23523,2.23517 H 391.08801 c -1.23444,0 -2.23517,-1.00073 -2.23517,-2.23517 z"
     fill-rule="evenodd"
     id="path7" />
  <path
     fill="#174ea6"
     d="m 424.21478,110.25766 -3.14063,8.64062 h -1.28125 l 3.60938,-9.46875 h 0.82812 z m 2.625,8.64062 -3.14063,-8.64062 -0.0156,-0.82813 h 0.82812 l 3.625,9.46875 z m -0.15625,-3.5 v 1.01563 h -5.32813 v -1.01563 z m 7.10077,-3.54687 h 1.09375 v 6.89062 q 0,0.9375 -0.39063,1.59375 -0.375,0.65625 -1.04687,1 -0.67188,0.34375 -1.54688,0.34375 -0.35937,0 -0.85937,-0.125 -0.48438,-0.10937 -0.96875,-0.375 -0.46875,-0.26562 -0.78125,-0.71875 l 0.625,-0.71875 q 0.45312,0.53125 0.9375,0.73438 0.48437,0.21875 0.95312,0.21875 0.57813,0 0.98438,-0.21875 0.42187,-0.21875 0.65625,-0.64063 0.23437,-0.42187 0.23437,-1.03125 v -5.40625 z m -4.85938,3.60937 v -0.14062 q 0,-0.8125 0.1875,-1.46875 0.20313,-0.65625 0.5625,-1.125 0.35938,-0.48438 0.875,-0.73438 0.51563,-0.26562 1.15625,-0.26562 0.67188,0 1.15625,0.23437 0.5,0.23438 0.84375,0.67188 0.35938,0.4375 0.5625,1.0625 0.20313,0.60937 0.28125,1.39062 v 0.59375 q -0.0781,0.78125 -0.28125,1.40625 -0.20312,0.60938 -0.5625,1.04688 -0.34375,0.4375 -0.84375,0.67187 -0.5,0.21875 -1.17187,0.21875 -0.625,0 -1.14063,-0.26562 -0.5,-0.26563 -0.875,-0.73438 -0.35937,-0.48437 -0.5625,-1.14062 -0.1875,-0.65625 -0.1875,-1.42188 z m 1.20313,-0.14062 v 0.14062 q 0,0.51563 0.10937,0.98438 0.10938,0.46875 0.32813,0.82812 0.23437,0.34375 0.57812,0.54688 0.35938,0.1875 0.84375,0.1875 0.59375,0 0.98438,-0.25 0.39062,-0.26563 0.625,-0.67188 0.23437,-0.42187 0.35937,-0.90625 v -1.5625 q -0.0625,-0.35937 -0.21875,-0.6875 -0.14062,-0.34375 -0.375,-0.60937 -0.23437,-0.26563 -0.57812,-0.42188 -0.32813,-0.15625 -0.78125,-0.15625 -0.5,0 -0.85938,0.20313 -0.34375,0.20312 -0.57812,0.5625 -0.21875,0.35937 -0.32813,0.82812 -0.10937,0.45313 -0.10937,0.98438 z m 9.49969,3.70312 q -0.73437,0 -1.34375,-0.25 -0.59375,-0.25 -1.01562,-0.70312 -0.42188,-0.45313 -0.65625,-1.07813 -0.21875,-0.625 -0.21875,-1.375 v -0.26562 q 0,-0.85938 0.25,-1.53125 0.25,-0.67188 0.6875,-1.14063 0.4375,-0.46875 0.98437,-0.70312 0.5625,-0.25 1.15625,-0.25 0.75,0 1.29688,0.26562 0.54687,0.25 0.89062,0.71875 0.35938,0.46875 0.53125,1.09375 0.17188,0.625 0.17188,1.375 v 0.53125 h -5.25 v -0.98437 h 4.04687 v -0.0781 q -0.0312,-0.46875 -0.20312,-0.90625 -0.15625,-0.45312 -0.51563,-0.73437 -0.35937,-0.29688 -0.96875,-0.29688 -0.40625,0 -0.76562,0.17188 -0.34375,0.17187 -0.59375,0.51562 -0.23438,0.34375 -0.375,0.82813 -0.14063,0.48437 -0.14063,1.125 v 0.26562 q 0,0.51563 0.14063,0.95313 0.14062,0.4375 0.40625,0.76562 0.28125,0.32813 0.65625,0.51563 0.39062,0.1875 0.89062,0.1875 0.64063,0 1.07813,-0.25 0.4375,-0.26563 0.78125,-0.70313 l 0.71875,0.57813 q -0.21875,0.34375 -0.57813,0.65625 -0.34375,0.3125 -0.85937,0.51562 -0.51563,0.1875 -1.20313,0.1875 z m 5.34876,-5.65625 v 5.53125 h -1.20313 v -7.04687 h 1.14063 z m -0.29688,1.75 -0.5,-0.0312 q 0.0156,-0.71875 0.21875,-1.32812 0.20313,-0.625 0.57813,-1.07813 0.39062,-0.45312 0.90625,-0.70312 0.53125,-0.25 1.17187,-0.25 0.51563,0 0.92188,0.14062 0.42187,0.14063 0.71875,0.45313 0.29687,0.29687 0.45312,0.78125 0.15625,0.48437 0.15625,1.1875 v 4.60937 h -1.20312 v -4.625 q 0,-0.5625 -0.17188,-0.89062 -0.15625,-0.32813 -0.46875,-0.48438 -0.3125,-0.15625 -0.76562,-0.15625 -0.45313,0 -0.82813,0.1875 -0.35937,0.1875 -0.625,0.53125 -0.26562,0.32813 -0.42187,0.75 -0.14063,0.42188 -0.14063,0.90625 z m 9.39167,-3.26562 v 0.92187 h -3.79688 v -0.92187 z m -2.51563,-1.70313 h 1.20313 v 7 q 0,0.35938 0.10937,0.54688 0.10938,0.1875 0.28125,0.25 0.1875,0.0469 0.39063,0.0469 0.14062,0 0.3125,-0.0312 0.17187,-0.0312 0.25,-0.0469 v 0.98437 q -0.14063,0.0469 -0.375,0.0781 -0.21875,0.0469 -0.54688,0.0469 -0.4375,0 -0.8125,-0.17187 -0.375,-0.17188 -0.59375,-0.57813 -0.21875,-0.42187 -0.21875,-1.125 z m 10.93195,0.10938 -3.14063,8.64062 h -1.28125 l 3.60938,-9.46875 h 0.82812 z m 2.625,8.64062 -3.14063,-8.64062 -0.0156,-0.82813 h 0.82812 l 3.625,9.46875 z m -0.15625,-3.5 v 1.01563 h -5.32813 v -1.01563 z"
     fill-rule="nonzero"
     id="path8" />
  <path
     fill="#e8f0fe"
     d="m 388.85284,159.58036 c 0,-1.23447 1.00073,-2.2352 2.23517,-2.2352 h 104.00207 c 0.59284,0 1.16138,0.23551 1.58051,0.65466 0.41919,0.41919 0.65472,0.98771 0.65472,1.58054 v 25.38788 c 0,1.23446 -1.00073,2.2352 -2.23523,2.2352 H 391.08801 c -1.23444,0 -2.23517,-1.00074 -2.23517,-2.2352 z"
     fill-rule="evenodd"
     id="path9" />
  <path
     stroke="#1a73e8"
     stroke-width="1"
     stroke-linejoin="round"
     stroke-linecap="butt"
     d="m 388.85284,159.58036 c 0,-1.23447 1.00073,-2.2352 2.23517,-2.2352 h 104.00207 c 0.59284,0 1.16138,0.23551 1.58051,0.65466 0.41919,0.41919 0.65472,0.98771 0.65472,1.58054 v 25.38788 c 0,1.23446 -1.00073,2.2352 -2.23523,2.2352 H 391.08801 c -1.23444,0 -2.23517,-1.00074 -2.23517,-2.2352 z"
     fill-rule="evenodd"
     id="path10" />
  <path
     fill="#174ea6"
     d="m 424.41003,168.43366 -3.14063,8.64062 h -1.28125 l 3.60938,-9.46875 h 0.82812 z m 2.625,8.64062 -3.14063,-8.64062 -0.0156,-0.82813 h 0.82812 l 3.625,9.46875 z m -0.15625,-3.5 v 1.01563 h -5.32813 v -1.01563 z m 7.10077,-3.54687 h 1.09375 v 6.89062 q 0,0.9375 -0.39063,1.59375 -0.375,0.65625 -1.04687,1 -0.67188,0.34375 -1.54688,0.34375 -0.35937,0 -0.85937,-0.125 -0.48438,-0.10937 -0.96875,-0.375 -0.46875,-0.26562 -0.78125,-0.71875 l 0.625,-0.71875 q 0.45312,0.53125 0.9375,0.73438 0.48437,0.21875 0.95312,0.21875 0.57813,0 0.98438,-0.21875 0.42187,-0.21875 0.65625,-0.64063 0.23437,-0.42187 0.23437,-1.03125 v -5.40625 z m -4.85938,3.60937 v -0.14062 q 0,-0.8125 0.1875,-1.46875 0.20313,-0.65625 0.5625,-1.125 0.35938,-0.48438 0.875,-0.73438 0.51563,-0.26562 1.15625,-0.26562 0.67188,0 1.15625,0.23437 0.5,0.23438 0.84375,0.67188 0.35938,0.4375 0.5625,1.0625 0.20313,0.60937 0.28125,1.39062 v 0.59375 q -0.0781,0.78125 -0.28125,1.40625 -0.20312,0.60938 -0.5625,1.04688 -0.34375,0.4375 -0.84375,0.67187 -0.5,0.21875 -1.17187,0.21875 -0.625,0 -1.14063,-0.26562 -0.5,-0.26563 -0.875,-0.73438 -0.35937,-0.48437 -0.5625,-1.14062 -0.1875,-0.65625 -0.1875,-1.42188 z m 1.20313,-0.14062 v 0.14062 q 0,0.51563 0.10937,0.98438 0.10938,0.46875 0.32813,0.82812 0.23437,0.34375 0.57812,0.54688 0.35938,0.1875 0.84375,0.1875 0.59375,0 0.98438,-0.25 0.39062,-0.26563 0.625,-0.67188 0.23437,-0.42187 0.35937,-0.90625 v -1.5625 q -0.0625,-0.35937 -0.21875,-0.6875 -0.14062,-0.34375 -0.375,-0.60937 -0.23437,-0.26563 -0.57812,-0.42188 -0.32813,-0.15625 -0.78125,-0.15625 -0.5,0 -0.85938,0.20313 -0.34375,0.20312 -0.57812,0.5625 -0.21875,0.35937 -0.32813,0.82812 -0.10937,0.45313 -0.10937,0.98438 z m 9.49963,3.70312 q -0.73437,0 -1.34375,-0.25 -0.59375,-0.25 -1.01562,-0.70312 -0.42188,-0.45313 -0.65625,-1.07813 -0.21875,-0.625 -0.21875,-1.375 v -0.26562 q 0,-0.85938 0.25,-1.53125 0.25,-0.67188 0.6875,-1.14063 0.4375,-0.46875 0.98437,-0.70312 0.5625,-0.25 1.15625,-0.25 0.75,0 1.29688,0.26562 0.54687,0.25 0.89062,0.71875 0.35938,0.46875 0.53125,1.09375 0.17188,0.625 0.17188,1.375 v 0.53125 h -5.25 v -0.98437 h 4.04687 v -0.0781 q -0.0312,-0.46875 -0.20312,-0.90625 -0.15625,-0.45312 -0.51563,-0.73437 -0.35937,-0.29688 -0.96875,-0.29688 -0.40625,0 -0.76562,0.17188 -0.34375,0.17187 -0.59375,0.51562 -0.23438,0.34375 -0.375,0.82813 -0.14063,0.48437 -0.14063,1.125 v 0.26562 q 0,0.51563 0.14063,0.95313 0.14062,0.4375 0.40625,0.76562 0.28125,0.32813 0.65625,0.51563 0.39062,0.1875 0.89062,0.1875 0.64063,0 1.07813,-0.25 0.4375,-0.26563 0.78125,-0.70313 l 0.71875,0.57813 q -0.21875,0.34375 -0.57813,0.65625 -0.34375,0.3125 -0.85937,0.51562 -0.51563,0.1875 -1.20313,0.1875 z m 5.34882,-5.65625 v 5.53125 h -1.20313 v -7.04687 h 1.14063 z m -0.29688,1.75 -0.5,-0.0312 q 0.0156,-0.71875 0.21875,-1.32812 0.20313,-0.625 0.57813,-1.07813 0.39062,-0.45312 0.90625,-0.70312 0.53125,-0.25 1.17187,-0.25 0.51563,0 0.92188,0.14062 0.42187,0.14063 0.71875,0.45313 0.29687,0.29687 0.45312,0.78125 0.15625,0.48437 0.15625,1.1875 v 4.60937 h -1.20312 v -4.625 q 0,-0.5625 -0.17188,-0.89062 -0.15625,-0.32813 -0.46875,-0.48438 -0.3125,-0.15625 -0.76562,-0.15625 -0.45313,0 -0.82813,0.1875 -0.35937,0.1875 -0.625,0.53125 -0.26562,0.32813 -0.42187,0.75 -0.14063,0.42188 -0.14063,0.90625 z m 9.39167,-3.26562 v 0.92187 h -3.79688 v -0.92187 z m -2.51563,-1.70313 h 1.20313 v 7 q 0,0.35938 0.10937,0.54688 0.10938,0.1875 0.28125,0.25 0.1875,0.0469 0.39063,0.0469 0.14062,0 0.3125,-0.0312 0.17187,-0.0312 0.25,-0.0469 v 0.98437 q -0.14063,0.0469 -0.375,0.0781 -0.21875,0.0469 -0.54688,0.0469 -0.4375,0 -0.8125,-0.17187 -0.375,-0.17188 -0.59375,-0.57813 -0.21875,-0.42187 -0.21875,-1.125 z m 10.80689,4.3125 h -2.40625 l -0.0156,-1 h 2.1875 q 0.53125,0 0.9375,-0.1875 0.40625,-0.1875 0.625,-0.51562 0.23438,-0.34375 0.23438,-0.82813 0,-0.51562 -0.20313,-0.84375 -0.20312,-0.32812 -0.60937,-0.48437 -0.40625,-0.15625 -1.03125,-0.15625 h -1.84375 v 8.45312 h -1.26563 v -9.46875 h 3.10938 q 0.73437,0 1.29687,0.14063 0.57813,0.14062 0.96875,0.45312 0.40625,0.3125 0.60938,0.79688 0.21875,0.46875 0.21875,1.125 0,0.59375 -0.29688,1.0625 -0.29687,0.46875 -0.82812,0.76562 -0.53125,0.29688 -1.25,0.39063 z m -0.0625,4.4375 h -2.84375 l 0.71875,-1.01562 h 2.125 q 0.59375,0 1.01562,-0.20313 0.42188,-0.21875 0.64063,-0.59375 0.21875,-0.39062 0.21875,-0.90625 0,-0.53125 -0.1875,-0.90625 -0.1875,-0.39062 -0.59375,-0.59375 -0.40625,-0.21875 -1.03125,-0.21875 h -1.79688 l 0.0156,-1 h 2.4375 l 0.28125,0.35938 q 0.67187,0.0625 1.14062,0.39062 0.48438,0.32813 0.73438,0.84375 0.25,0.5 0.25,1.10938 0,0.89062 -0.39063,1.5 -0.375,0.60937 -1.07812,0.92187 -0.70313,0.3125 -1.65625,0.3125 z"
     fill-rule="nonzero"
     id="path11" />
  <path
     fill="#e8f0fe"
     d="m 388.85284,217.75392 c 0,-1.23447 1.00073,-2.2352 2.23517,-2.2352 h 104.00207 c 0.59284,0 1.16138,0.23551 1.58051,0.65469 0.41919,0.41916 0.65472,0.98771 0.65472,1.58051 v 25.38788 c 0,1.23446 -1.00073,2.2352 -2.23523,2.2352 H 391.08801 c -1.23444,0 -2.23517,-1.00074 -2.23517,-2.2352 z"
     fill-rule="evenodd"
     id="path12" />
  <path
     stroke="#1a73e8"
     stroke-width="1"
     stroke-linejoin="round"
     stroke-linecap="butt"
     d="m 388.85284,217.75392 c 0,-1.23447 1.00073,-2.2352 2.23517,-2.2352 h 104.00207 c 0.59284,0 1.16138,0.23551 1.58051,0.65469 0.41919,0.41916 0.65472,0.98771 0.65472,1.58051 v 25.38788 c 0,1.23446 -1.00073,2.2352 -2.23523,2.2352 H 391.08801 c -1.23444,0 -2.23517,-1.00074 -2.23517,-2.2352 z"
     fill-rule="evenodd"
     id="path13" />
  <path
     fill="#174ea6"
     d="m 424.22454,226.60724 -3.14063,8.64062 h -1.28125 l 3.60938,-9.46875 h 0.82812 z m 2.625,8.64062 -3.14063,-8.64062 -0.0156,-0.82813 h 0.82812 l 3.625,9.46875 z m -0.15625,-3.5 v 1.01563 h -5.32813 v -1.01563 z m 7.10077,-3.54687 h 1.09375 v 6.89062 q 0,0.9375 -0.39063,1.59375 -0.375,0.65625 -1.04687,1 -0.67188,0.34375 -1.54688,0.34375 -0.35937,0 -0.85937,-0.125 -0.48438,-0.10937 -0.96875,-0.375 -0.46875,-0.26562 -0.78125,-0.71875 l 0.625,-0.71875 q 0.45312,0.53125 0.9375,0.73438 0.48437,0.21875 0.95312,0.21875 0.57813,0 0.98438,-0.21875 0.42187,-0.21875 0.65625,-0.64063 0.23437,-0.42187 0.23437,-1.03125 v -5.40625 z m -4.85938,3.60937 v -0.14062 q 0,-0.8125 0.1875,-1.46875 0.20313,-0.65625 0.5625,-1.125 0.35938,-0.48438 0.875,-0.73438 0.51563,-0.26562 1.15625,-0.26562 0.67188,0 1.15625,0.23437 0.5,0.23438 0.84375,0.67188 0.35938,0.4375 0.5625,1.0625 0.20313,0.60937 0.28125,1.39062 v 0.59375 q -0.0781,0.78125 -0.28125,1.40625 -0.20312,0.60938 -0.5625,1.04688 -0.34375,0.4375 -0.84375,0.67187 -0.5,0.21875 -1.17187,0.21875 -0.625,0 -1.14063,-0.26562 -0.5,-0.26563 -0.875,-0.73438 -0.35937,-0.48437 -0.5625,-1.14062 -0.1875,-0.65625 -0.1875,-1.42188 z m 1.20313,-0.14062 v 0.14062 q 0,0.51563 0.10937,0.98438 0.10938,0.46875 0.32813,0.82812 0.23437,0.34375 0.57812,0.54688 0.35938,0.1875 0.84375,0.1875 0.59375,0 0.98438,-0.25 0.39062,-0.26563 0.625,-0.67188 0.23437,-0.42187 0.35937,-0.90625 v -1.5625 q -0.0625,-0.35937 -0.21875,-0.6875 -0.14062,-0.34375 -0.375,-0.60937 -0.23437,-0.26563 -0.57812,-0.42188 -0.32813,-0.15625 -0.78125,-0.15625 -0.5,0 -0.85938,0.20313 -0.34375,0.20312 -0.57812,0.5625 -0.21875,0.35937 -0.32813,0.82812 -0.10937,0.45313 -0.10937,0.98438 z m 9.49969,3.70312 q -0.73437,0 -1.34375,-0.25 -0.59375,-0.25 -1.01562,-0.70312 -0.42188,-0.45313 -0.65625,-1.07813 -0.21875,-0.625 -0.21875,-1.375 v -0.26562 q 0,-0.85938 0.25,-1.53125 0.25,-0.67188 0.6875,-1.14063 0.4375,-0.46875 0.98437,-0.70312 0.5625,-0.25 1.15625,-0.25 0.75,0 1.29688,0.26562 0.54687,0.25 0.89062,0.71875 0.35938,0.46875 0.53125,1.09375 0.17188,0.625 0.17188,1.375 v 0.53125 h -5.25 v -0.98437 h 4.04687 v -0.0781 q -0.0312,-0.46875 -0.20312,-0.90625 -0.15625,-0.45312 -0.51563,-0.73437 -0.35937,-0.29688 -0.96875,-0.29688 -0.40625,0 -0.76562,0.17188 -0.34375,0.17187 -0.59375,0.51562 -0.23438,0.34375 -0.375,0.82813 -0.14063,0.48437 -0.14063,1.125 v 0.26562 q 0,0.51563 0.14063,0.95313 0.14062,0.4375 0.40625,0.76562 0.28125,0.32813 0.65625,0.51563 0.39062,0.1875 0.89062,0.1875 0.64063,0 1.07813,-0.25 0.4375,-0.26563 0.78125,-0.70313 l 0.71875,0.57813 q -0.21875,0.34375 -0.57813,0.65625 -0.34375,0.3125 -0.85937,0.51562 -0.51563,0.1875 -1.20313,0.1875 z m 5.34876,-5.65625 v 5.53125 h -1.20313 v -7.04687 h 1.14063 z m -0.29688,1.75 -0.5,-0.0312 q 0.0156,-0.71875 0.21875,-1.32812 0.20313,-0.625 0.57813,-1.07813 0.39062,-0.45312 0.90625,-0.70312 0.53125,-0.25 1.17187,-0.25 0.51563,0 0.92188,0.14062 0.42187,0.14063 0.71875,0.45313 0.29687,0.29687 0.45312,0.78125 0.15625,0.48437 0.15625,1.1875 v 4.60937 h -1.20312 v -4.625 q 0,-0.5625 -0.17188,-0.89062 -0.15625,-0.32813 -0.46875,-0.48438 -0.3125,-0.15625 -0.76562,-0.15625 -0.45313,0 -0.82813,0.1875 -0.35937,0.1875 -0.625,0.53125 -0.26562,0.32813 -0.42187,0.75 -0.14063,0.42188 -0.14063,0.90625 z m 9.39167,-3.26562 v 0.92187 h -3.79688 v -0.92187 z m -2.51563,-1.70313 h 1.20313 v 7 q 0,0.35938 0.10937,0.54688 0.10938,0.1875 0.28125,0.25 0.1875,0.0469 0.39063,0.0469 0.14062,0 0.3125,-0.0312 0.17187,-0.0312 0.25,-0.0469 v 0.98437 q -0.14063,0.0469 -0.375,0.0781 -0.21875,0.0469 -0.54688,0.0469 -0.4375,0 -0.8125,-0.17187 -0.375,-0.17188 -0.59375,-0.57813 -0.21875,-0.42187 -0.21875,-1.125 z m 13.13507,5.73438 h 1.25 q -0.0937,0.90625 -0.51562,1.60937 -0.40625,0.70313 -1.17188,1.125 -0.76562,0.40625 -1.89062,0.40625 -0.84375,0 -1.53125,-0.3125 -0.67188,-0.3125 -1.15625,-0.875 -0.48438,-0.57812 -0.75,-1.39062 -0.26563,-0.8125 -0.26563,-1.8125 v -0.9375 q 0,-1 0.26563,-1.8125 0.26562,-0.8125 0.75,-1.39063 0.5,-0.57812 1.20312,-0.89062 0.70313,-0.3125 1.59375,-0.3125 1.0625,0 1.79688,0.40625 0.75,0.40625 1.15625,1.125 0.42187,0.70312 0.51562,1.64062 h -1.25 q -0.0781,-0.65625 -0.32812,-1.14062 -0.25,-0.48438 -0.70313,-0.73438 -0.45312,-0.26562 -1.1875,-0.26562 -0.64062,0 -1.125,0.25 -0.46875,0.23437 -0.79687,0.6875 -0.3125,0.4375 -0.48438,1.0625 -0.15625,0.60937 -0.15625,1.35937 v 0.95313 q 0,0.70312 0.14063,1.3125 0.15625,0.60937 0.45312,1.07812 0.29688,0.45313 0.75,0.71875 0.46875,0.26563 1.10938,0.26563 0.79687,0 1.26562,-0.25 0.48438,-0.26563 0.71875,-0.73438 0.25,-0.46875 0.34375,-1.14062 z"
     fill-rule="nonzero"
     id="path14" />
  <path
     fill="#000000"
     fill-opacity="0"
     d="m 369.60878,92.428993 v 21.669297 h 19.24408"
     fill-rule="evenodd"
     id="path15" />
  <path
     stroke="#595959"
     stroke-width="1"
     stroke-linejoin="round"
     stroke-linecap="butt"
     d="m 369.60878,92.429013 v 21.669277 h 13.24408"
     fill-rule="evenodd"
     id="path16" />
  <path
     fill="#595959"
     stroke="#595959"
     stroke-width="1"
     stroke-linecap="butt"
     d="m 382.85284,115.75002 4.53809,-1.65173 -4.53809,-1.65174 z"
     fill-rule="evenodd"
     id="path17" />
  <path
     fill="#000000"
     fill-opacity="0"
     d="m 369.60878,139.73887 v 32.53543 h 19.24408"
     fill-rule="evenodd"
     id="path18" />
  <path
     stroke="#595959"
     stroke-width="1"
     stroke-linejoin="round"
     stroke-linecap="butt"
     d="m 369.60878,139.73887 v 32.53543 h 13.24408"
     fill-rule="evenodd"
     id="path19" />
  <path
     fill="#595959"
     stroke="#595959"
     stroke-width="1"
     stroke-linecap="butt"
     d="m 382.85284,173.92602 4.53809,-1.65173 -4.53809,-1.65174 z"
     fill-rule="evenodd"
     id="path20" />
  <path
     fill="#000000"
     fill-opacity="0"
     d="M 369.60878,94.006923 V 230.44785 h 19.24408"
     fill-rule="evenodd"
     id="path21" />
  <path
     stroke="#595959"
     stroke-width="1"
     stroke-linejoin="round"
     stroke-linecap="butt"
     d="M 369.60878,94.006923 V 230.44785 h 13.24408"
     fill-rule="evenodd"
     id="path22" />
  <path
     fill="#595959"
     stroke="#595959"
     stroke-width="1"
     stroke-linecap="butt"
     d="m 382.85284,232.09958 4.53809,-1.65173 -4.53809,-1.65174 z"
     fill-rule="evenodd"
     id="path23" />
  <path
     fill="#000000"
     fill-opacity="0"
     d="M 5.8581829,5.3571429 H 505.29125 V 42.585473 H 5.8581829 Z"
     fill-rule="evenodd"
     id="path24" />
  <path
     fill="#595959"
     d="m 172.25248,16.952553 v 14.21875 h -2.92188 v -14.21875 z m 4.375,0 v 2.29687 h -11.59375 v -2.29687 z m 5.44727,14.42187 q -1.21875,0 -2.20313,-0.39062 -0.96875,-0.40625 -1.65625,-1.10938 -0.67187,-0.70312 -1.04687,-1.64062 -0.35938,-0.9375 -0.35938,-1.98438 v -0.39062 q 0,-1.20313 0.34375,-2.1875 0.34375,-1 0.98438,-1.73438 0.64062,-0.73437 1.5625,-1.125 0.92187,-0.40625 2.0625,-0.40625 1.125,0 1.98437,0.375 0.875,0.375 1.46875,1.0625 0.59375,0.67188 0.89063,1.625 0.3125,0.95313 0.3125,2.10938 v 1.17187 h -8.40625 v -1.875 h 5.64062 v -0.20312 q 0,-0.59375 -0.21875,-1.04688 -0.20312,-0.46875 -0.625,-0.73437 -0.42187,-0.28125 -1.07812,-0.28125 -0.54688,0 -0.95313,0.25 -0.39062,0.23437 -0.64062,0.67187 -0.25,0.4375 -0.375,1.03125 -0.125,0.59375 -0.125,1.29688 v 0.39062 q 0,0.64063 0.17187,1.17188 0.1875,0.53125 0.51563,0.92187 0.34375,0.39063 0.82812,0.60938 0.48438,0.21875 1.10938,0.21875 0.75,0 1.40625,-0.29688 0.67187,-0.29687 1.14062,-0.90625 l 1.375,1.48438 q -0.32812,0.48437 -0.90625,0.92187 -0.57812,0.4375 -1.375,0.71875 -0.79687,0.28125 -1.82812,0.28125 z m 8.7539,-8.57812 v 8.375 h -2.82812 v -10.5625 h 2.65625 z m -0.39062,2.71875 h -0.78125 q 0,-1.10938 0.26562,-2.03125 0.26563,-0.9375 0.78125,-1.625 0.53125,-0.6875 1.29688,-1.0625 0.78125,-0.39063 1.79687,-0.39063 0.70313,0 1.28125,0.21875 0.59375,0.20313 1.01563,0.65625 0.42187,0.4375 0.65625,1.15625 0.23437,0.70313 0.23437,1.6875 v 7.04688 h -2.8125 v -6.73438 q 0,-0.73437 -0.20312,-1.125 -0.1875,-0.39062 -0.54688,-0.54687 -0.34375,-0.15625 -0.84375,-0.15625 -0.54687,0 -0.95312,0.23437 -0.40625,0.21875 -0.67188,0.625 -0.26562,0.39063 -0.39062,0.92188 -0.125,0.51562 -0.125,1.125 z m 6.29687,-0.32813 -1.01562,0.14063 q 0,-1.04688 0.25,-1.92188 0.26562,-0.89062 0.78125,-1.5625 0.51562,-0.6875 1.26562,-1.0625 0.76563,-0.375 1.76563,-0.375 0.76562,0 1.39062,0.21875 0.625,0.21875 1.0625,0.70313 0.45313,0.46875 0.6875,1.23437 0.23438,0.75 0.23438,1.85938 v 6.75 h -2.8125 v -6.75 q 0,-0.73438 -0.20313,-1.10938 -0.1875,-0.39062 -0.54687,-0.54687 -0.34375,-0.15625 -0.82813,-0.15625 -0.51562,0 -0.90625,0.20312 -0.375,0.20313 -0.625,0.5625 -0.25,0.34375 -0.375,0.8125 -0.125,0.45313 -0.125,1 z m 11.41797,-2.54687 v 12.59375 h -2.8125 v -14.625 h 2.60938 z m 6.6875,3.125 v 0.20312 q 0,1.15625 -0.26562,2.14063 -0.26563,0.98437 -0.78125,1.71875 -0.51563,0.73437 -1.29688,1.14062 -0.76562,0.40625 -1.75,0.40625 -0.96875,0 -1.6875,-0.39062 -0.70312,-0.40625 -1.1875,-1.10938 -0.48437,-0.70312 -0.78125,-1.64062 -0.29687,-0.9375 -0.45312,-2.01563 v -0.53125 q 0.15625,-1.15625 0.45312,-2.10937 0.29688,-0.96875 0.78125,-1.67188 0.48438,-0.71875 1.1875,-1.10937 0.70313,-0.39063 1.65625,-0.39063 1.01563,0 1.78125,0.39063 0.76563,0.375 1.28125,1.09375 0.53125,0.70312 0.79688,1.6875 0.26562,0.98437 0.26562,2.1875 z m -2.8125,0.20312 v -0.20312 q 0,-0.67188 -0.125,-1.23438 -0.10937,-0.57812 -0.34375,-1 -0.23437,-0.4375 -0.625,-0.67187 -0.39062,-0.25 -0.9375,-0.25 -0.57812,0 -0.98437,0.1875 -0.40625,0.1875 -0.65625,0.54687 -0.25,0.34375 -0.375,0.84375 -0.125,0.48438 -0.15625,1.09375 v 1.35938 q 0.0469,0.71875 0.26562,1.29687 0.23438,0.5625 0.70313,0.90625 0.46875,0.32813 1.21875,0.32813 0.5625,0 0.9375,-0.25 0.39062,-0.25 0.625,-0.6875 0.23437,-0.4375 0.34375,-1.01563 0.10937,-0.57812 0.10937,-1.25 z m 7.53125,-9.79687 v 15 H 216.731 v -15 z m 8.02734,12.60937 v -4.70312 q 0,-0.5 -0.17187,-0.85938 -0.15625,-0.375 -0.51563,-0.57812 -0.34375,-0.20313 -0.89062,-0.20313 -0.46875,0 -0.8125,0.15625 -0.32813,0.15625 -0.51563,0.45313 -0.1875,0.29687 -0.1875,0.70312 h -2.8125 q 0,-0.67187 0.3125,-1.28125 0.3125,-0.60937 0.90625,-1.0625 0.59375,-0.46875 1.42188,-0.73437 0.82812,-0.26563 1.84375,-0.26563 1.23437,0 2.1875,0.42188 0.96875,0.40625 1.51562,1.23437 0.54688,0.8125 0.54688,2.03125 v 4.53125 q 0,0.85938 0.10937,1.42188 0.10938,0.54687 0.3125,0.95312 v 0.17188 h -2.84375 q -0.20312,-0.4375 -0.3125,-1.07813 -0.0937,-0.65625 -0.0937,-1.3125 z m 0.375,-4.04687 0.0156,1.59375 h -1.57813 q -0.54687,0 -0.96875,0.125 -0.40625,0.125 -0.67187,0.35937 -0.25,0.23438 -0.375,0.53125 -0.125,0.29688 -0.125,0.65625 0,0.375 0.15625,0.65625 0.17187,0.28125 0.48437,0.45313 0.3125,0.15625 0.73438,0.15625 0.64062,0 1.10937,-0.25 0.46875,-0.25 0.71875,-0.625 0.26563,-0.375 0.26563,-0.70313 l 0.75,1.1875 q -0.15625,0.40625 -0.42188,0.84375 -0.26562,0.42188 -0.6875,0.79688 -0.40625,0.375 -0.98437,0.625 -0.57813,0.23437 -1.35938,0.23437 -1.01562,0 -1.82812,-0.40625 -0.8125,-0.40625 -1.29688,-1.125 -0.46875,-0.71875 -0.46875,-1.64062 0,-0.82813 0.3125,-1.46875 0.3125,-0.65625 0.92188,-1.09375 0.60937,-0.45313 1.53125,-0.67188 0.92187,-0.23437 2.125,-0.23437 z m 9.79688,-4.125 v 1.98437 h -6.14063 v -1.98437 z m -4.625,-2.60938 h 2.8125 v 9.98438 q 0,0.46875 0.125,0.71875 0.125,0.23437 0.35937,0.32812 0.25,0.0937 0.625,0.0937 0.26563,0 0.46875,-0.0156 0.20313,-0.0312 0.35938,-0.0625 v 2.0625 q -0.35938,0.125 -0.78125,0.1875 -0.40625,0.0781 -0.92188,0.0781 -0.92187,0 -1.60937,-0.3125 -0.6875,-0.3125 -1.0625,-0.98437 -0.375,-0.6875 -0.375,-1.8125 z m 11.08008,13.375 q -1.21875,0 -2.20313,-0.39062 -0.96875,-0.40625 -1.65625,-1.10938 -0.67187,-0.70312 -1.04687,-1.64062 -0.35938,-0.9375 -0.35938,-1.98438 v -0.39062 q 0,-1.20313 0.34375,-2.1875 0.34375,-1 0.98438,-1.73438 0.64062,-0.73437 1.5625,-1.125 0.92187,-0.40625 2.0625,-0.40625 1.125,0 1.98437,0.375 0.875,0.375 1.46875,1.0625 0.59375,0.67188 0.89063,1.625 0.3125,0.95313 0.3125,2.10938 v 1.17187 h -8.40625 v -1.875 h 5.64062 v -0.20312 q 0,-0.59375 -0.21875,-1.04688 -0.20312,-0.46875 -0.625,-0.73437 -0.42187,-0.28125 -1.07812,-0.28125 -0.54688,0 -0.95313,0.25 -0.39062,0.23437 -0.64062,0.67187 -0.25,0.4375 -0.375,1.03125 -0.125,0.59375 -0.125,1.29688 v 0.39062 q 0,0.64063 0.17187,1.17188 0.1875,0.53125 0.51563,0.92187 0.34375,0.39063 0.82812,0.60938 0.48438,0.21875 1.10938,0.21875 0.75,0 1.40625,-0.29688 0.67187,-0.29687 1.14062,-0.90625 l 1.375,1.48438 q -0.32812,0.48437 -0.90625,0.92187 -0.57812,0.4375 -1.375,0.71875 -0.79687,0.28125 -1.82812,0.28125 z m 13.92773,-2.9375 2.20313,-7.82812 h 1.78125 l -0.57813,3.07812 -2.1875,7.48438 h -1.5 z m -1.10937,-7.82812 1.57812,7.8125 0.14063,2.75 h -1.76563 l -2.67187,-10.5625 z m 7.10937,7.6875 1.53125,-7.6875 h 2.71875 l -2.67187,10.5625 h -1.75 z m -1.76562,-7.6875 2.1875,7.76562 0.29687,2.79688 h -1.5 l -2.20312,-7.48438 -0.54688,-3.07812 z m 6.98437,5.39062 v -0.20312 q 0,-1.17188 0.32813,-2.14063 0.34375,-0.98437 0.96875,-1.70312 0.64062,-0.73438 1.5625,-1.14063 0.9375,-0.40625 2.14062,-0.40625 1.20313,0 2.14063,0.40625 0.9375,0.40625 1.5625,1.14063 0.64062,0.71875 0.96875,1.70312 0.34375,0.96875 0.34375,2.14063 v 0.20312 q 0,1.14063 -0.34375,2.125 -0.32813,0.98438 -0.96875,1.71875 -0.625,0.71875 -1.5625,1.125 -0.92188,0.40625 -2.125,0.40625 -1.20313,0 -2.14063,-0.40625 -0.92187,-0.40625 -1.5625,-1.125 -0.64062,-0.73437 -0.98437,-1.71875 -0.32813,-0.98437 -0.32813,-2.125 z m 2.8125,-0.20312 v 0.20312 q 0,0.65625 0.10938,1.23438 0.125,0.57812 0.375,1.01562 0.26562,0.4375 0.6875,0.6875 0.42187,0.23438 1.03125,0.23438 0.57812,0 1,-0.23438 0.42187,-0.25 0.67187,-0.6875 0.26563,-0.4375 0.375,-1.01562 0.125,-0.57813 0.125,-1.23438 v -0.20312 q 0,-0.65625 -0.125,-1.21875 -0.10937,-0.57813 -0.375,-1.01563 -0.25,-0.45312 -0.67187,-0.70312 -0.42188,-0.25 -1.01563,-0.25 -0.59375,0 -1.01562,0.25 -0.42188,0.25 -0.6875,0.70312 -0.25,0.4375 -0.375,1.01563 -0.10938,0.5625 -0.10938,1.21875 z m 11.74219,-2.89063 v 8.26563 h -2.8125 v -10.5625 h 2.64062 z m 3.1875,-2.375 -0.0469,2.60938 q -0.20312,-0.0312 -0.5,-0.0469 -0.28125,-0.0312 -0.51562,-0.0312 -0.59375,0 -1.03125,0.15625 -0.4375,0.15625 -0.73438,0.45313 -0.28125,0.28125 -0.42187,0.70312 -0.14063,0.42188 -0.15625,0.95313 l -0.57813,-0.17188 q 0,-1.03125 0.20313,-1.89062 0.21875,-0.85938 0.60937,-1.5 0.39063,-0.65625 0.96875,-1 0.57813,-0.35938 1.32813,-0.35938 0.23437,0 0.46875,0.0469 0.25,0.0312 0.40625,0.0781 z m 4.13672,-4.375 v 15.01563 h -2.8125 v -15.01563 z m 6.65625,4.45313 -4.57813,5.23437 -2.46875,2.48438 -1.03125,-2.03125 1.95313,-2.48438 2.75,-3.20312 z m -2.92188,10.5625 -3.125,-4.89063 1.95313,-1.6875 4.42187,6.57813 z m 7.71485,0 h -2.82813 v -11.375 q 0,-1.25 0.51563,-2.09375 0.51562,-0.85938 1.48437,-1.29688 0.98438,-0.4375 2.375,-0.4375 0.5625,0 1.42188,0.0625 0.875,0.0469 1.78128,0.125 0.90625,0.0625 1.57812,0.14063 l -1.17187,2.21875 q -0.87503,-0.15625 -1.68753,-0.23438 -0.8125,-0.0937 -1.53125,-0.0937 -0.625,0 -1.0625,0.1875 -0.42188,0.17188 -0.65625,0.53125 -0.21875,0.35938 -0.21875,0.89063 z m 3.51562,0 v -14.875 h 2.81253 v 14.875 z m -1.40625,-10.5625 v 1.98437 h -6.5 v -1.98437 z m 6.11527,5.39062 v -0.20312 q 0,-1.17188 0.32812,-2.14063 0.34375,-0.98437 0.96875,-1.70312 0.64063,-0.73438 1.5625,-1.14063 0.9375,-0.40625 2.14063,-0.40625 1.20312,0 2.14062,0.40625 0.9375,0.40625 1.5625,1.14063 0.64063,0.71875 0.96875,1.70312 0.34375,0.96875 0.34375,2.14063 v 0.20312 q 0,1.14063 -0.34375,2.125 -0.32812,0.98438 -0.96875,1.71875 -0.625,0.71875 -1.5625,1.125 -0.92187,0.40625 -2.125,0.40625 -1.20312,0 -2.14062,-0.40625 -0.92188,-0.40625 -1.5625,-1.125 -0.64063,-0.73437 -0.98438,-1.71875 -0.32812,-0.98437 -0.32812,-2.125 z m 2.8125,-0.20312 v 0.20312 q 0,0.65625 0.10937,1.23438 0.125,0.57812 0.375,1.01562 0.26563,0.4375 0.6875,0.6875 0.42188,0.23438 1.03125,0.23438 0.57813,0 1,-0.23438 0.42188,-0.25 0.67188,-0.6875 0.26562,-0.4375 0.375,-1.01562 0.125,-0.57813 0.125,-1.23438 v -0.20312 q 0,-0.65625 -0.125,-1.21875 -0.10938,-0.57813 -0.375,-1.01563 -0.25,-0.45312 -0.67188,-0.70312 -0.42187,-0.25 -1.01562,-0.25 -0.59375,0 -1.01563,0.25 -0.42187,0.25 -0.6875,0.70312 -0.25,0.4375 -0.375,1.01563 -0.10937,0.5625 -0.10937,1.21875 z m 11.94531,2.64062 2.20312,-7.82812 h 1.78125 l -0.57812,3.07812 -2.1875,7.48438 h -1.5 z m -1.10938,-7.82812 1.57813,7.8125 0.14062,2.75 h -1.76562 l -2.67188,-10.5625 z m 7.10938,7.6875 1.53125,-7.6875 h 2.71875 l -2.67188,10.5625 h -1.75 z m -1.76563,-7.6875 2.1875,7.76562 0.29688,2.79688 h -1.5 l -2.20313,-7.48438 -0.54687,-3.07812 z m 13.15625,7.64062 q 0,-0.29687 -0.1875,-0.54687 -0.17187,-0.25 -0.64062,-0.45313 -0.46875,-0.20312 -1.35938,-0.39062 -0.8125,-0.17188 -1.5,-0.4375 -0.6875,-0.26563 -1.1875,-0.64063 -0.5,-0.39062 -0.78125,-0.90625 -0.28125,-0.53125 -0.28125,-1.20312 0,-0.67188 0.28125,-1.25 0.29688,-0.59375 0.82813,-1.04688 0.54687,-0.45312 1.32812,-0.70312 0.79688,-0.26563 1.78125,-0.26563 1.375,0 2.35938,0.4375 1,0.4375 1.53125,1.21875 0.53125,0.76563 0.53125,1.73438 h -2.8125 q 0,-0.40625 -0.17188,-0.73438 -0.17187,-0.32812 -0.53125,-0.51562 -0.35937,-0.1875 -0.92187,-0.1875 -0.46875,0 -0.8125,0.15625 -0.34375,0.15625 -0.53125,0.4375 -0.17188,0.26562 -0.17188,0.57812 0,0.25 0.0937,0.4375 0.10938,0.1875 0.34375,0.34375 0.23438,0.15625 0.60938,0.29688 0.375,0.125 0.9375,0.23437 1.14062,0.23438 2.03125,0.60938 0.90625,0.375 1.4375,1.01562 0.53125,0.64063 0.53125,1.67188 0,0.70312 -0.3125,1.29687 -0.3125,0.57813 -0.90625,1.01563 -0.57813,0.4375 -1.40625,0.6875 -0.8125,0.23437 -1.82813,0.23437 -1.46875,0 -2.5,-0.53125 -1.01562,-0.53125 -1.54687,-1.34375 -0.51563,-0.8125 -0.51563,-1.67187 h 2.67188 q 0.0156,0.5625 0.29687,0.92187 0.28125,0.34375 0.71875,0.5 0.4375,0.15625 0.9375,0.15625 0.54688,0 0.90625,-0.14062 0.35938,-0.15625 0.54688,-0.40625 0.20312,-0.26563 0.20312,-0.60938 z"
     fill-rule="nonzero"
     id="path25" />
  <path
     fill="#f8f9fa"
     d="m 182.18378,60.784233 c 0,-3.40524 2.76047,-6.16573 6.16571,-6.16573 h 140.17249 c 1.63525,0 3.20355,0.6496 4.3598,1.8059 1.15631,1.15629 1.80591,2.72458 1.80591,4.35983 V 257.93308 c 0,3.40524 -2.7605,6.16574 -6.16571,6.16574 H 188.34949 c -3.40524,0 -6.16571,-2.7605 -6.16571,-6.16574 z"
     fill-rule="evenodd"
     id="path26" />
  <path
     stroke="#bdc1c6"
     stroke-width="1"
     stroke-linejoin="round"
     stroke-linecap="butt"
     d="m 182.18378,60.784233 c 0,-3.40524 2.76047,-6.16573 6.16571,-6.16573 h 140.17249 c 1.63525,0 3.20355,0.6496 4.3598,1.8059 1.15631,1.15629 1.80591,2.72458 1.80591,4.35983 V 257.93308 c 0,3.40524 -2.7605,6.16574 -6.16571,6.16574 H 188.34949 c -3.40524,0 -6.16571,-2.7605 -6.16571,-6.16574 z"
     fill-rule="evenodd"
     id="path27" />
  <path
     fill="#3c4043"
     d="m 230.48605,69.901513 v 1.54687 h -4.85938 v -1.54687 z m -4.21875,-8.09375 v 9.64062 h -1.98438 v -9.64062 z m 4.93127,6.125 v -0.14063 q 0,-0.78125 0.21875,-1.4375 0.23438,-0.67187 0.65625,-1.15625 0.4375,-0.5 1.0625,-0.76562 0.625,-0.28125 1.45313,-0.28125 0.8125,0 1.4375,0.28125 0.64062,0.26562 1.07812,0.76562 0.4375,0.48438 0.65625,1.15625 0.21875,0.65625 0.21875,1.4375 v 0.14063 q 0,0.78125 -0.21875,1.45312 -0.21875,0.67188 -0.65625,1.17188 -0.4375,0.48437 -1.0625,0.75 -0.625,0.26562 -1.45312,0.26562 -0.8125,0 -1.45313,-0.26562 -0.625,-0.26563 -1.0625,-0.75 -0.42187,-0.5 -0.65625,-1.17188 -0.21875,-0.67187 -0.21875,-1.45312 z m 1.90625,-0.14063 v 0.14063 q 0,0.45312 0.0781,0.84375 0.0781,0.39062 0.25,0.6875 0.1875,0.29687 0.46875,0.46875 0.28125,0.15625 0.6875,0.15625 0.40625,0 0.6875,-0.15625 0.28125,-0.17188 0.45312,-0.46875 0.17188,-0.29688 0.25,-0.6875 0.0937,-0.39063 0.0937,-0.84375 v -0.14063 q 0,-0.4375 -0.0937,-0.8125 -0.0781,-0.39062 -0.25,-0.6875 -0.17187,-0.3125 -0.46875,-0.48437 -0.28125,-0.17188 -0.67187,-0.17188 -0.40625,0 -0.6875,0.17188 -0.28125,0.17187 -0.46875,0.48437 -0.17188,0.29688 -0.25,0.6875 -0.0781,0.375 -0.0781,0.8125 z m 5.74915,0.14063 v -0.14063 q 0,-0.78125 0.21875,-1.4375 0.23437,-0.67187 0.65625,-1.15625 0.4375,-0.5 1.0625,-0.76562 0.625,-0.28125 1.45312,-0.28125 0.8125,0 1.4375,0.28125 0.64063,0.26562 1.07813,0.76562 0.4375,0.48438 0.65625,1.15625 0.21875,0.65625 0.21875,1.4375 v 0.14063 q 0,0.78125 -0.21875,1.45312 -0.21875,0.67188 -0.65625,1.17188 -0.4375,0.48437 -1.0625,0.75 -0.625,0.26562 -1.45313,0.26562 -0.8125,0 -1.45312,-0.26562 -0.625,-0.26563 -1.0625,-0.75 -0.42188,-0.5 -0.65625,-1.17188 -0.21875,-0.67187 -0.21875,-1.45312 z m 1.90625,-0.14063 v 0.14063 q 0,0.45312 0.0781,0.84375 0.0781,0.39062 0.25,0.6875 0.1875,0.29687 0.46875,0.46875 0.28125,0.15625 0.6875,0.15625 0.40625,0 0.6875,-0.15625 0.28125,-0.17188 0.45313,-0.46875 0.17187,-0.29688 0.25,-0.6875 0.0937,-0.39063 0.0937,-0.84375 v -0.14063 q 0,-0.4375 -0.0937,-0.8125 -0.0781,-0.39062 -0.25,-0.6875 -0.17188,-0.3125 -0.46875,-0.48437 -0.28125,-0.17188 -0.67188,-0.17188 -0.40625,0 -0.6875,0.17188 -0.28125,0.17187 -0.46875,0.48437 -0.17187,0.29688 -0.25,0.6875 -0.0781,0.375 -0.0781,0.8125 z m 7.9679,-2.125 v 8.53125 h -1.92188 v -9.92187 h 1.78125 z m 4.53125,2.125 v 0.14063 q 0,0.78125 -0.1875,1.45312 -0.17188,0.65625 -0.53125,1.15625 -0.34375,0.48438 -0.875,0.76563 -0.51563,0.26562 -1.1875,0.26562 -0.65625,0 -1.14063,-0.25 -0.48437,-0.26562 -0.8125,-0.75 -0.32812,-0.48437 -0.53125,-1.10937 -0.1875,-0.64063 -0.29687,-1.375 v -0.35938 q 0.10937,-0.78125 0.29687,-1.4375 0.20313,-0.65625 0.53125,-1.125 0.32813,-0.48437 0.79688,-0.75 0.48437,-0.26562 1.14062,-0.26562 0.6875,0 1.20313,0.26562 0.51562,0.25 0.875,0.73438 0.35937,0.48437 0.53125,1.15625 0.1875,0.65625 0.1875,1.48437 z m -1.92188,0.14063 v -0.14063 q 0,-0.46875 -0.0781,-0.84375 -0.0625,-0.39062 -0.23438,-0.6875 -0.15625,-0.29687 -0.42187,-0.45312 -0.26563,-0.15625 -0.625,-0.15625 -0.39063,0 -0.67188,0.125 -0.28125,0.125 -0.45312,0.35937 -0.17188,0.23438 -0.26563,0.57813 -0.0781,0.32812 -0.0937,0.73437 v 0.92188 q 0.0312,0.5 0.1875,0.89062 0.15625,0.375 0.46875,0.60938 0.3125,0.21875 0.82813,0.21875 0.39062,0 0.64062,-0.17188 0.26563,-0.17187 0.42188,-0.46875 0.15625,-0.29687 0.21875,-0.6875 0.0781,-0.39062 0.0781,-0.82812 z m 10.51529,-4.48438 -2.625,8 h -2.10938 l 3.57813,-9.64062 h 1.34375 z m 2.17187,8 -2.625,-8 -0.20312,-1.64062 h 1.35937 l 3.59375,9.64062 z m -0.10937,-3.59375 v 1.5625 h -5.09375 v -1.5625 z m 7.5498,-3.57812 h 1.71875 v 6.9375 q 0,0.96875 -0.4375,1.65625 -0.42187,0.6875 -1.20312,1.04687 -0.76563,0.35938 -1.79688,0.35938 -0.45312,0 -0.95312,-0.125 -0.5,-0.125 -0.95313,-0.375 -0.45312,-0.25 -0.75,-0.625 l 0.82813,-1.14063 q 0.34375,0.39063 0.78125,0.60938 0.4375,0.21875 0.96875,0.21875 0.51562,0 0.85937,-0.20313 0.35938,-0.1875 0.54688,-0.54687 0.20312,-0.35938 0.20312,-0.85938 v -5.29687 z m -4.82812,3.67187 v -0.14062 q 0,-0.8125 0.20312,-1.48438 0.20313,-0.67187 0.57813,-1.15625 0.375,-0.48437 0.90625,-0.75 0.54687,-0.26562 1.21875,-0.26562 0.71875,0 1.20312,0.26562 0.48438,0.26563 0.78125,0.75 0.3125,0.48438 0.48438,1.14063 0.1875,0.65625 0.28125,1.45312 v 0.29688 q -0.0937,0.75 -0.29688,1.39062 -0.20312,0.64063 -0.53125,1.125 -0.3125,0.48438 -0.79687,0.75 -0.48438,0.25 -1.14063,0.25 -0.65625,0 -1.20312,-0.26562 -0.53125,-0.26563 -0.90625,-0.75 -0.375,-0.5 -0.57813,-1.15625 -0.20312,-0.67188 -0.20312,-1.45313 z m 1.90625,-0.14062 v 0.14062 q 0,0.45313 0.0781,0.84375 0.0937,0.375 0.28125,0.67188 0.1875,0.28125 0.45313,0.45312 0.28125,0.15625 0.65625,0.15625 0.51562,0 0.84375,-0.21875 0.34375,-0.21875 0.5,-0.60937 0.17187,-0.39063 0.20312,-0.90625 v -0.85938 q -0.0156,-0.42187 -0.125,-0.75 -0.0937,-0.34375 -0.28125,-0.57812 -0.17187,-0.23438 -0.45312,-0.35938 -0.28125,-0.14062 -0.67188,-0.14062 -0.375,0 -0.65625,0.17187 -0.28125,0.15625 -0.46875,0.45313 -0.17187,0.29687 -0.26562,0.6875 -0.0937,0.39062 -0.0937,0.84375 z m 9.43561,3.76562 q -0.84375,0 -1.51563,-0.26562 -0.65625,-0.26563 -1.125,-0.73438 -0.45312,-0.48437 -0.70312,-1.10937 -0.23438,-0.64063 -0.23438,-1.35938 v -0.26562 q 0,-0.8125 0.23438,-1.48438 0.23437,-0.67187 0.65625,-1.17187 0.4375,-0.5 1.0625,-0.76563 0.625,-0.26562 1.40625,-0.26562 0.76562,0 1.34375,0.25 0.59375,0.25 0.98437,0.71875 0.40625,0.45312 0.60938,1.10937 0.21875,0.64063 0.21875,1.4375 v 0.78125 h -5.70313 v -1.26562 h 3.82813 v -0.14063 q 0,-0.40625 -0.14063,-0.71875 -0.14062,-0.3125 -0.4375,-0.5 -0.28125,-0.1875 -0.71875,-0.1875 -0.375,0 -0.65625,0.17188 -0.26562,0.15625 -0.4375,0.46875 -0.17187,0.29687 -0.25,0.70312 -0.0781,0.39063 -0.0781,0.85938 v 0.26562 q 0,0.4375 0.10937,0.8125 0.125,0.35938 0.35938,0.625 0.23437,0.25 0.54687,0.40625 0.32813,0.14063 0.75,0.14063 0.51563,0 0.95313,-0.20313 0.45312,-0.20312 0.78125,-0.60937 l 0.9375,1 q -0.23438,0.32812 -0.625,0.625 -0.375,0.29687 -0.92188,0.48437 -0.54687,0.1875 -1.23437,0.1875 z m 5.88678,-5.76562 v 5.64062 h -1.90625 v -7.17187 h 1.78125 z m -0.28125,1.8125 h -0.51563 q 0,-0.79688 0.20313,-1.4375 0.20312,-0.64063 0.57812,-1.09375 0.375,-0.45313 0.89063,-0.6875 0.51562,-0.25 1.14062,-0.25 0.5,0 0.92188,0.15625 0.42187,0.14062 0.71875,0.45312 0.29687,0.3125 0.45312,0.84375 0.17188,0.51563 0.17188,1.28125 v 4.5625 h -1.92188 v -4.57812 q 0,-0.46875 -0.14062,-0.73438 -0.125,-0.26562 -0.375,-0.375 -0.25,-0.10937 -0.625,-0.10937 -0.39063,0 -0.67188,0.15625 -0.28125,0.14062 -0.46875,0.42187 -0.17187,0.26563 -0.26562,0.625 -0.0937,0.34375 -0.0937,0.76563 z m 9.52429,-3.34375 v 1.35937 h -4.17188 v -1.35937 z m -3.14063,-1.76563 h 1.90625 v 6.78125 q 0,0.3125 0.0781,0.48438 0.0937,0.15625 0.25,0.21875 0.17187,0.0625 0.42187,0.0625 0.1875,0 0.32813,-0.0156 0.14062,-0.0156 0.23437,-0.0312 l 0.0156,1.39063 q -0.25,0.0937 -0.54688,0.125 -0.28125,0.0469 -0.625,0.0469 -0.625,0 -1.09375,-0.20312 -0.46875,-0.20313 -0.71875,-0.67188 -0.25,-0.46875 -0.25,-1.21875 z"
     fill-rule="nonzero"
     id="path28" />
  <path
     fill="#e8f0fe"
     d="m 210.87248,112.51383 c 0,-1.23447 1.00073,-2.23518 2.2352,-2.23518 h 104.00204 c 0.59284,0 1.16138,0.23549 1.58051,0.65466 0.41919,0.41919 0.65472,0.98772 0.65472,1.58052 v 25.38788 c 0,1.23446 -1.00073,2.2352 -2.23523,2.2352 H 213.10768 c -1.23447,0 -2.2352,-1.00074 -2.2352,-2.2352 z"
     fill-rule="evenodd"
     id="path29" />
  <path
     stroke="#1a73e8"
     stroke-width="1"
     stroke-linejoin="round"
     stroke-linecap="butt"
     d="m 210.87248,112.51383 c 0,-1.23447 1.00073,-2.23518 2.2352,-2.23518 h 104.00204 c 0.59284,0 1.16138,0.23549 1.58051,0.65466 0.41919,0.41919 0.65472,0.98772 0.65472,1.58052 v 25.38788 c 0,1.23446 -1.00073,2.2352 -2.23523,2.2352 H 213.10768 c -1.23447,0 -2.2352,-1.00074 -2.2352,-2.2352 z"
     fill-rule="evenodd"
     id="path30" />
  <path
     fill="#174ea6"
     d="m 246.23443,121.36716 -3.14063,8.64062 h -1.28125 l 3.60938,-9.46876 h 0.82812 z m 2.625,8.64062 -3.14063,-8.64062 -0.0156,-0.82814 h 0.82812 l 3.625,9.46876 z m -0.15625,-3.5 v 1.01563 h -5.32813 v -1.01563 z m 7.10077,-3.54687 h 1.09375 v 6.89062 q 0,0.9375 -0.39063,1.59375 -0.375,0.65625 -1.04687,1 -0.67188,0.34375 -1.54688,0.34375 -0.35937,0 -0.85937,-0.125 -0.48438,-0.10937 -0.96875,-0.375 -0.46875,-0.26562 -0.78125,-0.71875 l 0.625,-0.71875 q 0.45312,0.53125 0.9375,0.73438 0.48437,0.21875 0.95312,0.21875 0.57813,0 0.98438,-0.21875 0.42187,-0.21875 0.65625,-0.64063 0.23437,-0.42187 0.23437,-1.03125 v -5.40625 z m -4.85938,3.60937 v -0.14062 q 0,-0.8125 0.1875,-1.46875 0.20313,-0.65625 0.5625,-1.125 0.35938,-0.48438 0.875,-0.73438 0.51563,-0.26562 1.15625,-0.26562 0.67188,0 1.15625,0.23437 0.5,0.23438 0.84375,0.67188 0.35938,0.4375 0.5625,1.0625 0.20313,0.60937 0.28125,1.39062 v 0.59375 q -0.0781,0.78125 -0.28125,1.40625 -0.20312,0.60938 -0.5625,1.04688 -0.34375,0.4375 -0.84375,0.67187 -0.5,0.21875 -1.17187,0.21875 -0.625,0 -1.14063,-0.26562 -0.5,-0.26563 -0.875,-0.73438 -0.35937,-0.48437 -0.5625,-1.14062 -0.1875,-0.65625 -0.1875,-1.42188 z m 1.20313,-0.14062 v 0.14062 q 0,0.51563 0.10937,0.98438 0.10938,0.46875 0.32813,0.82812 0.23437,0.34375 0.57812,0.54688 0.35938,0.1875 0.84375,0.1875 0.59375,0 0.98438,-0.25 0.39062,-0.26563 0.625,-0.67188 0.23437,-0.42187 0.35937,-0.90625 v -1.5625 q -0.0625,-0.35937 -0.21875,-0.6875 -0.14062,-0.34375 -0.375,-0.60937 -0.23437,-0.26563 -0.57812,-0.42188 -0.32813,-0.15625 -0.78125,-0.15625 -0.5,0 -0.85938,0.20313 -0.34375,0.20312 -0.57812,0.5625 -0.21875,0.35937 -0.32813,0.82812 -0.10937,0.45313 -0.10937,0.98438 z m 9.49966,3.70312 q -0.73437,0 -1.34375,-0.25 -0.59375,-0.25 -1.01562,-0.70312 -0.42188,-0.45313 -0.65625,-1.07813 -0.21875,-0.625 -0.21875,-1.375 v -0.26562 q 0,-0.85938 0.25,-1.53125 0.25,-0.67188 0.6875,-1.14063 0.4375,-0.46875 0.98437,-0.70312 0.5625,-0.25 1.15625,-0.25 0.75,0 1.29688,0.26562 0.54687,0.25 0.89062,0.71875 0.35938,0.46875 0.53125,1.09375 0.17188,0.625 0.17188,1.375 v 0.53125 h -5.25 v -0.98437 h 4.04687 v -0.0781 q -0.0312,-0.46875 -0.20312,-0.90625 -0.15625,-0.45312 -0.51563,-0.73437 -0.35937,-0.29688 -0.96875,-0.29688 -0.40625,0 -0.76562,0.17188 -0.34375,0.17187 -0.59375,0.51562 -0.23438,0.34375 -0.375,0.82813 -0.14063,0.48437 -0.14063,1.125 v 0.26562 q 0,0.51563 0.14063,0.95313 0.14062,0.4375 0.40625,0.76562 0.28125,0.32813 0.65625,0.51563 0.39062,0.1875 0.89062,0.1875 0.64063,0 1.07813,-0.25 0.4375,-0.26563 0.78125,-0.70313 l 0.71875,0.57813 q -0.21875,0.34375 -0.57813,0.65625 -0.34375,0.3125 -0.85937,0.51562 -0.51563,0.1875 -1.20313,0.1875 z m 5.34882,-5.65625 v 5.53125 h -1.20313 v -7.04687 h 1.14063 z m -0.29688,1.75 -0.5,-0.0312 q 0.0156,-0.71875 0.21875,-1.32812 0.20313,-0.625 0.57813,-1.07813 0.39062,-0.45312 0.90625,-0.70312 0.53125,-0.25 1.17187,-0.25 0.51563,0 0.92188,0.14062 0.42187,0.14063 0.71875,0.45313 0.29687,0.29687 0.45312,0.78125 0.15625,0.48437 0.15625,1.1875 v 4.60937 h -1.20312 v -4.625 q 0,-0.5625 -0.17188,-0.89062 -0.15625,-0.32813 -0.46875,-0.48438 -0.3125,-0.15625 -0.76562,-0.15625 -0.45313,0 -0.82813,0.1875 -0.35937,0.1875 -0.625,0.53125 -0.26562,0.32813 -0.42187,0.75 -0.14063,0.42188 -0.14063,0.90625 z m 9.39167,-3.26562 v 0.92187 h -3.79688 v -0.92187 z m -2.51563,-1.70313 h 1.20313 v 7 q 0,0.35938 0.10937,0.54688 0.10938,0.1875 0.28125,0.25 0.1875,0.0469 0.39063,0.0469 0.14062,0 0.3125,-0.0312 0.17187,-0.0312 0.25,-0.0469 v 0.98437 q -0.14063,0.0469 -0.375,0.0781 -0.21875,0.0469 -0.54688,0.0469 -0.4375,0 -0.8125,-0.17187 -0.375,-0.17188 -0.59375,-0.57813 -0.21875,-0.42187 -0.21875,-1.125 z m 10.93189,0.10938 -3.14063,8.64062 h -1.28125 l 3.60938,-9.46876 h 0.82812 z m 2.625,8.64062 -3.14063,-8.64062 -0.0156,-0.82814 h 0.82812 l 3.625,9.46876 z m -0.15625,-3.5 v 1.01563 h -5.32813 v -1.01563 z"
     fill-rule="nonzero"
     id="path31" />
  <path
     fill="#e8f0fe"
     d="m 210.87248,162.80142 c 0,-1.23447 1.00073,-2.23517 2.2352,-2.23517 h 104.00204 c 0.59284,0 1.16132,0.23548 1.58051,0.65466 0.41919,0.41919 0.65466,0.98771 0.65466,1.58051 v 25.38791 c 0,1.23443 -1.00073,2.23517 -2.23517,2.23517 H 213.10768 c -1.23447,0 -2.2352,-1.00073 -2.2352,-2.23517 z"
     fill-rule="evenodd"
     id="path32" />
  <path
     stroke="#1a73e8"
     stroke-width="1"
     stroke-linejoin="round"
     stroke-linecap="butt"
     d="m 210.87248,162.80142 c 0,-1.23447 1.00073,-2.23517 2.2352,-2.23517 h 104.00204 c 0.59284,0 1.16132,0.23548 1.58051,0.65466 0.41919,0.41919 0.65466,0.98771 0.65466,1.58051 v 25.38791 c 0,1.23443 -1.00073,2.23517 -2.23517,2.23517 H 213.10768 c -1.23447,0 -2.2352,-1.00073 -2.2352,-2.23517 z"
     fill-rule="evenodd"
     id="path33" />
  <path
     fill="#174ea6"
     d="m 246.42965,171.65476 -3.14063,8.64062 h -1.28125 l 3.60938,-9.46875 h 0.82812 z m 2.625,8.64062 -3.14063,-8.64062 -0.0156,-0.82813 h 0.82812 l 3.625,9.46875 z m -0.15625,-3.5 v 1.01563 h -5.32813 v -1.01563 z m 7.10077,-3.54687 h 1.09375 v 6.89062 q 0,0.9375 -0.39063,1.59375 -0.375,0.65625 -1.04687,1 -0.67188,0.34375 -1.54688,0.34375 -0.35937,0 -0.85937,-0.125 -0.48438,-0.10937 -0.96875,-0.375 -0.46875,-0.26562 -0.78125,-0.71875 l 0.625,-0.71875 q 0.45312,0.53125 0.9375,0.73438 0.48437,0.21875 0.95312,0.21875 0.57813,0 0.98438,-0.21875 0.42187,-0.21875 0.65625,-0.64063 0.23437,-0.42187 0.23437,-1.03125 v -5.40625 z m -4.85938,3.60937 v -0.14062 q 0,-0.8125 0.1875,-1.46875 0.20313,-0.65625 0.5625,-1.125 0.35938,-0.48438 0.875,-0.73438 0.51563,-0.26562 1.15625,-0.26562 0.67188,0 1.15625,0.23437 0.5,0.23438 0.84375,0.67188 0.35938,0.4375 0.5625,1.0625 0.20313,0.60937 0.28125,1.39062 v 0.59375 q -0.0781,0.78125 -0.28125,1.40625 -0.20312,0.60938 -0.5625,1.04688 -0.34375,0.4375 -0.84375,0.67187 -0.5,0.21875 -1.17187,0.21875 -0.625,0 -1.14063,-0.26562 -0.5,-0.26563 -0.875,-0.73438 -0.35937,-0.48437 -0.5625,-1.14062 -0.1875,-0.65625 -0.1875,-1.42188 z m 1.20313,-0.14062 v 0.14062 q 0,0.51563 0.10937,0.98438 0.10938,0.46875 0.32813,0.82812 0.23437,0.34375 0.57812,0.54688 0.35938,0.1875 0.84375,0.1875 0.59375,0 0.98438,-0.25 0.39062,-0.26563 0.625,-0.67188 0.23437,-0.42187 0.35937,-0.90625 v -1.5625 q -0.0625,-0.35937 -0.21875,-0.6875 -0.14062,-0.34375 -0.375,-0.60937 -0.23437,-0.26563 -0.57812,-0.42188 -0.32813,-0.15625 -0.78125,-0.15625 -0.5,0 -0.85938,0.20313 -0.34375,0.20312 -0.57812,0.5625 -0.21875,0.35937 -0.32813,0.82812 -0.10937,0.45313 -0.10937,0.98438 z m 9.49969,3.70312 q -0.73437,0 -1.34375,-0.25 -0.59375,-0.25 -1.01562,-0.70312 -0.42188,-0.45313 -0.65625,-1.07813 -0.21875,-0.625 -0.21875,-1.375 v -0.26562 q 0,-0.85938 0.25,-1.53125 0.25,-0.67188 0.6875,-1.14063 0.4375,-0.46875 0.98437,-0.70312 0.5625,-0.25 1.15625,-0.25 0.75,0 1.29688,0.26562 0.54687,0.25 0.89062,0.71875 0.35938,0.46875 0.53125,1.09375 0.17188,0.625 0.17188,1.375 v 0.53125 h -5.25 v -0.98437 h 4.04687 v -0.0781 q -0.0312,-0.46875 -0.20312,-0.90625 -0.15625,-0.45312 -0.51563,-0.73437 -0.35937,-0.29688 -0.96875,-0.29688 -0.40625,0 -0.76562,0.17188 -0.34375,0.17187 -0.59375,0.51562 -0.23438,0.34375 -0.375,0.82813 -0.14063,0.48437 -0.14063,1.125 v 0.26562 q 0,0.51563 0.14063,0.95313 0.14062,0.4375 0.40625,0.76562 0.28125,0.32813 0.65625,0.51563 0.39062,0.1875 0.89062,0.1875 0.64063,0 1.07813,-0.25 0.4375,-0.26563 0.78125,-0.70313 l 0.71875,0.57813 q -0.21875,0.34375 -0.57813,0.65625 -0.34375,0.3125 -0.85937,0.51562 -0.51563,0.1875 -1.20313,0.1875 z m 5.34879,-5.65625 v 5.53125 h -1.20313 v -7.04687 h 1.14063 z m -0.29688,1.75 -0.5,-0.0312 q 0.0156,-0.71875 0.21875,-1.32812 0.20313,-0.625 0.57813,-1.07813 0.39062,-0.45312 0.90625,-0.70312 0.53125,-0.25 1.17187,-0.25 0.51563,0 0.92188,0.14062 0.42187,0.14063 0.71875,0.45313 0.29687,0.29687 0.45312,0.78125 0.15625,0.48437 0.15625,1.1875 v 4.60937 h -1.20312 v -4.625 q 0,-0.5625 -0.17188,-0.89062 -0.15625,-0.32813 -0.46875,-0.48438 -0.3125,-0.15625 -0.76562,-0.15625 -0.45313,0 -0.82813,0.1875 -0.35937,0.1875 -0.625,0.53125 -0.26562,0.32813 -0.42187,0.75 -0.14063,0.42188 -0.14063,0.90625 z m 9.39167,-3.26562 v 0.92187 h -3.79688 v -0.92187 z m -2.51563,-1.70313 h 1.20313 v 7 q 0,0.35938 0.10937,0.54688 0.10938,0.1875 0.28125,0.25 0.1875,0.0469 0.39063,0.0469 0.14062,0 0.3125,-0.0312 0.17187,-0.0312 0.25,-0.0469 v 0.98437 q -0.14063,0.0469 -0.375,0.0781 -0.21875,0.0469 -0.54688,0.0469 -0.4375,0 -0.8125,-0.17187 -0.375,-0.17188 -0.59375,-0.57813 -0.21875,-0.42187 -0.21875,-1.125 z m 10.80689,4.3125 h -2.40625 l -0.0156,-1 h 2.1875 q 0.53125,0 0.9375,-0.1875 0.40625,-0.1875 0.625,-0.51562 0.23438,-0.34375 0.23438,-0.82813 0,-0.51562 -0.20313,-0.84375 -0.20312,-0.32812 -0.60937,-0.48437 -0.40625,-0.15625 -1.03125,-0.15625 h -1.84375 v 8.45312 h -1.26563 v -9.46875 h 3.10938 q 0.73437,0 1.29687,0.14063 0.57813,0.14062 0.96875,0.45312 0.40625,0.3125 0.60938,0.79688 0.21875,0.46875 0.21875,1.125 0,0.59375 -0.29688,1.0625 -0.29687,0.46875 -0.82812,0.76562 -0.53125,0.29688 -1.25,0.39063 z m -0.0625,4.4375 h -2.84375 l 0.71875,-1.01562 h 2.125 q 0.59375,0 1.01562,-0.20313 0.42188,-0.21875 0.64063,-0.59375 0.21875,-0.39062 0.21875,-0.90625 0,-0.53125 -0.1875,-0.90625 -0.1875,-0.39062 -0.59375,-0.59375 -0.40625,-0.21875 -1.03125,-0.21875 h -1.79688 l 0.0156,-1 h 2.4375 l 0.28125,0.35938 q 0.67187,0.0625 1.14062,0.39062 0.48438,0.32813 0.73438,0.84375 0.25,0.5 0.25,1.10938 0,0.89062 -0.39063,1.5 -0.375,0.60937 -1.07812,0.92187 -0.70313,0.3125 -1.65625,0.3125 z"
     fill-rule="nonzero"
     id="path34" />
  <path
     fill="#000000"
     fill-opacity="0"
     d="m 265.10873,140.13692 v 20.44095"
     fill-rule="evenodd"
     id="path35" />
  <path
     stroke="#595959"
     stroke-width="1"
     stroke-linejoin="round"
     stroke-linecap="butt"
     d="m 265.10873,140.13692 v 14.44095"
     fill-rule="evenodd"
     id="path36" />
  <path
     fill="#595959"
     stroke="#595959"
     stroke-width="1"
     stroke-linecap="butt"
     d="m 263.457,154.57785 1.65173,4.53809 1.65174,-4.53809 z"
     fill-rule="evenodd"
     id="path37" />
  <path
     fill="#000000"
     fill-opacity="0"
     d="m 265.1087,237.01242 v 10.4548 H 197.52877 V 92.123093 h 67.64295 v 18.149187"
     fill-rule="evenodd"
     id="path38" />
  <path
     stroke="#595959"
     stroke-width="1"
     stroke-linejoin="round"
     stroke-linecap="butt"
     d="m 265.10873,237.01242 v 10.4548 H 197.52877 V 92.123073 h 67.64295 v 12.149197"
     fill-rule="evenodd"
     id="path39" />
  <path
     fill="#595959"
     stroke="#595959"
     stroke-width="1"
     stroke-linecap="butt"
     d="m 263.51998,104.27228 1.65173,4.5381 1.65174,-4.5381 z"
     fill-rule="evenodd"
     id="path40" />
  <path
     fill="#e8f0fe"
     d="m 210.87248,209.38935 c 0,-1.23444 1.00073,-2.23517 2.2352,-2.23517 h 104.00204 c 0.59284,0 1.16132,0.23548 1.58051,0.65466 0.41919,0.41919 0.65466,0.98771 0.65466,1.58051 v 25.38791 c 0,1.23447 -1.00073,2.23517 -2.23517,2.23517 H 213.10768 c -1.23447,0 -2.2352,-1.0007 -2.2352,-2.23517 z"
     fill-rule="evenodd"
     id="path41" />
  <path
     stroke="#1a73e8"
     stroke-width="1"
     stroke-linejoin="round"
     stroke-linecap="butt"
     d="m 210.87248,209.38935 c 0,-1.23444 1.00073,-2.23517 2.2352,-2.23517 h 104.00204 c 0.59284,0 1.16132,0.23548 1.58051,0.65466 0.41919,0.41919 0.65466,0.98771 0.65466,1.58051 v 25.38791 c 0,1.23447 -1.00073,2.23517 -2.23517,2.23517 H 213.10768 c -1.23447,0 -2.2352,-1.0007 -2.2352,-2.23517 z"
     fill-rule="evenodd"
     id="path42" />
  <path
     fill="#174ea6"
     d="m 246.42965,218.24268 -3.14063,8.64062 h -1.28125 l 3.60938,-9.46875 h 0.82812 z m 2.625,8.64062 -3.14063,-8.64062 -0.0156,-0.82813 h 0.82812 l 3.625,9.46875 z m -0.15625,-3.5 v 1.01563 h -5.32813 v -1.01563 z m 7.10077,-3.54687 h 1.09375 v 6.89062 q 0,0.9375 -0.39063,1.59375 -0.375,0.65625 -1.04687,1 -0.67188,0.34375 -1.54688,0.34375 -0.35937,0 -0.85937,-0.125 -0.48438,-0.10937 -0.96875,-0.375 -0.46875,-0.26562 -0.78125,-0.71875 l 0.625,-0.71875 q 0.45312,0.53125 0.9375,0.73438 0.48437,0.21875 0.95312,0.21875 0.57813,0 0.98438,-0.21875 0.42187,-0.21875 0.65625,-0.64063 0.23437,-0.42187 0.23437,-1.03125 v -5.40625 z m -4.85938,3.60937 v -0.14062 q 0,-0.8125 0.1875,-1.46875 0.20313,-0.65625 0.5625,-1.125 0.35938,-0.48438 0.875,-0.73438 0.51563,-0.26562 1.15625,-0.26562 0.67188,0 1.15625,0.23437 0.5,0.23438 0.84375,0.67188 0.35938,0.4375 0.5625,1.0625 0.20313,0.60937 0.28125,1.39062 v 0.59375 q -0.0781,0.78125 -0.28125,1.40625 -0.20312,0.60938 -0.5625,1.04688 -0.34375,0.4375 -0.84375,0.67187 -0.5,0.21875 -1.17187,0.21875 -0.625,0 -1.14063,-0.26562 -0.5,-0.26563 -0.875,-0.73438 -0.35937,-0.48437 -0.5625,-1.14062 -0.1875,-0.65625 -0.1875,-1.42188 z m 1.20313,-0.14062 v 0.14062 q 0,0.51563 0.10937,0.98438 0.10938,0.46875 0.32813,0.82812 0.23437,0.34375 0.57812,0.54688 0.35938,0.1875 0.84375,0.1875 0.59375,0 0.98438,-0.25 0.39062,-0.26563 0.625,-0.67188 0.23437,-0.42187 0.35937,-0.90625 v -1.5625 q -0.0625,-0.35937 -0.21875,-0.6875 -0.14062,-0.34375 -0.375,-0.60937 -0.23437,-0.26563 -0.57812,-0.42188 -0.32813,-0.15625 -0.78125,-0.15625 -0.5,0 -0.85938,0.20313 -0.34375,0.20312 -0.57812,0.5625 -0.21875,0.35937 -0.32813,0.82812 -0.10937,0.45313 -0.10937,0.98438 z m 9.49969,3.70312 q -0.73437,0 -1.34375,-0.25 -0.59375,-0.25 -1.01562,-0.70312 -0.42188,-0.45313 -0.65625,-1.07813 -0.21875,-0.625 -0.21875,-1.375 v -0.26562 q 0,-0.85938 0.25,-1.53125 0.25,-0.67188 0.6875,-1.14063 0.4375,-0.46875 0.98437,-0.70312 0.5625,-0.25 1.15625,-0.25 0.75,0 1.29688,0.26562 0.54687,0.25 0.89062,0.71875 0.35938,0.46875 0.53125,1.09375 0.17188,0.625 0.17188,1.375 v 0.53125 h -5.25 v -0.98437 h 4.04687 v -0.0781 q -0.0312,-0.46875 -0.20312,-0.90625 -0.15625,-0.45312 -0.51563,-0.73437 -0.35937,-0.29688 -0.96875,-0.29688 -0.40625,0 -0.76562,0.17188 -0.34375,0.17187 -0.59375,0.51562 -0.23438,0.34375 -0.375,0.82813 -0.14063,0.48437 -0.14063,1.125 v 0.26562 q 0,0.51563 0.14063,0.95313 0.14062,0.4375 0.40625,0.76562 0.28125,0.32813 0.65625,0.51563 0.39062,0.1875 0.89062,0.1875 0.64063,0 1.07813,-0.25 0.4375,-0.26563 0.78125,-0.70313 l 0.71875,0.57813 q -0.21875,0.34375 -0.57813,0.65625 -0.34375,0.3125 -0.85937,0.51562 -0.51563,0.1875 -1.20313,0.1875 z m 5.34879,-5.65625 v 5.53125 h -1.20313 v -7.04687 h 1.14063 z m -0.29688,1.75 -0.5,-0.0312 q 0.0156,-0.71875 0.21875,-1.32812 0.20313,-0.625 0.57813,-1.07813 0.39062,-0.45312 0.90625,-0.70312 0.53125,-0.25 1.17187,-0.25 0.51563,0 0.92188,0.14062 0.42187,0.14063 0.71875,0.45313 0.29687,0.29687 0.45312,0.78125 0.15625,0.48437 0.15625,1.1875 v 4.60937 h -1.20312 v -4.625 q 0,-0.5625 -0.17188,-0.89062 -0.15625,-0.32813 -0.46875,-0.48438 -0.3125,-0.15625 -0.76562,-0.15625 -0.45313,0 -0.82813,0.1875 -0.35937,0.1875 -0.625,0.53125 -0.26562,0.32813 -0.42187,0.75 -0.14063,0.42188 -0.14063,0.90625 z m 9.39167,-3.26562 v 0.92187 h -3.79688 v -0.92187 z m -2.51563,-1.70313 h 1.20313 v 7 q 0,0.35938 0.10937,0.54688 0.10938,0.1875 0.28125,0.25 0.1875,0.0469 0.39063,0.0469 0.14062,0 0.3125,-0.0312 0.17187,-0.0312 0.25,-0.0469 v 0.98437 q -0.14063,0.0469 -0.375,0.0781 -0.21875,0.0469 -0.54688,0.0469 -0.4375,0 -0.8125,-0.17187 -0.375,-0.17188 -0.59375,-0.57813 -0.21875,-0.42187 -0.21875,-1.125 z m 10.80689,4.3125 h -2.40625 l -0.0156,-1 h 2.1875 q 0.53125,0 0.9375,-0.1875 0.40625,-0.1875 0.625,-0.51562 0.23438,-0.34375 0.23438,-0.82813 0,-0.51562 -0.20313,-0.84375 -0.20312,-0.32812 -0.60937,-0.48437 -0.40625,-0.15625 -1.03125,-0.15625 h -1.84375 v 8.45312 h -1.26563 v -9.46875 h 3.10938 q 0.73437,0 1.29687,0.14063 0.57813,0.14062 0.96875,0.45312 0.40625,0.3125 0.60938,0.79688 0.21875,0.46875 0.21875,1.125 0,0.59375 -0.29688,1.0625 -0.29687,0.46875 -0.82812,0.76562 -0.53125,0.29688 -1.25,0.39063 z m -0.0625,4.4375 h -2.84375 l 0.71875,-1.01562 h 2.125 q 0.59375,0 1.01562,-0.20313 0.42188,-0.21875 0.64063,-0.59375 0.21875,-0.39062 0.21875,-0.90625 0,-0.53125 -0.1875,-0.90625 -0.1875,-0.39062 -0.59375,-0.59375 -0.40625,-0.21875 -1.03125,-0.21875 h -1.79688 l 0.0156,-1 h 2.4375 l 0.28125,0.35938 q 0.67187,0.0625 1.14062,0.39062 0.48438,0.32813 0.73438,0.84375 0.25,0.5 0.25,1.10938 0,0.89062 -0.39063,1.5 -0.375,0.60937 -1.07812,0.92187 -0.70313,0.3125 -1.65625,0.3125 z"
     fill-rule="nonzero"
     id="path43" />
  <path
     fill="#000000"
     fill-opacity="0"
     d="m 265.1087,190.4245 v 16.72443"
     fill-rule="evenodd"
     id="path44" />
  <path
     stroke="#595959"
     stroke-width="1"
     stroke-linejoin="round"
     stroke-linecap="butt"
     d="m 265.10873,190.4245 v 10.72443"
     fill-rule="evenodd"
     id="path45" />
  <path
     fill="#595959"
     stroke="#595959"
     stroke-width="1"
     stroke-linecap="butt"
     d="m 263.457,201.14892 1.65173,4.53809 1.65174,-4.53809 z"
     fill-rule="evenodd"
     id="path46" />
  <path
     fill="#f8f9fa"
     d="m 5.8571429,60.785563 c 0,-3.40524 2.7605,-6.16574 6.1657301,-6.16574 H 152.19534 c 1.63525,0 3.20355,0.64961 4.35983,1.80591 1.15631,1.15629 1.80591,2.72458 1.80591,4.35983 V 257.93439 c 0,3.40524 -2.7605,6.16574 -6.16574,6.16574 H 12.022873 c -3.4052301,0 -6.1657301,-2.7605 -6.1657301,-6.16574 z"
     fill-rule="evenodd"
     id="path47" />
  <path
     stroke="#bdc1c6"
     stroke-width="1"
     stroke-linejoin="round"
     stroke-linecap="butt"
     d="m 5.8571429,60.785563 c 0,-3.40524 2.7605,-6.16574 6.1657301,-6.16574 H 152.19534 c 1.63525,0 3.20355,0.64961 4.35983,1.80591 1.15631,1.15629 1.80591,2.72458 1.80591,4.35983 V 257.93439 c 0,3.40524 -2.7605,6.16574 -6.16574,6.16574 H 12.022873 c -3.4052301,0 -6.1657301,-2.7605 -6.1657301,-6.16574 z"
     fill-rule="evenodd"
     id="path48" />
  <path
     fill="#3c4043"
     d="m 37.992263,68.934073 q 0,-0.26563 -0.0781,-0.46875 -0.0625,-0.21875 -0.28125,-0.39063 -0.20312,-0.17187 -0.57812,-0.34375 -0.35938,-0.17187 -0.95313,-0.35937 -0.65625,-0.21875 -1.25,-0.48438 -0.57812,-0.26562 -1.03125,-0.60937 -0.4375,-0.35938 -0.70312,-0.82813 -0.25,-0.46875 -0.25,-1.09375 0,-0.59375 0.26562,-1.09375 0.26563,-0.5 0.73438,-0.84375 0.48437,-0.35937 1.14062,-0.54687 0.65625,-0.20313 1.4375,-0.20313 1.0625,0 1.85938,0.39063 0.79687,0.39062 1.23437,1.0625 0.4375,0.65625 0.4375,1.51562 h -1.96878 q 0,-0.42187 -0.1875,-0.73437 -0.17187,-0.32813 -0.53125,-0.51563 -0.34375,-0.1875 -0.875,-0.1875 -0.51562,0 -0.85937,0.15625 -0.34375,0.15625 -0.53125,0.42188 -0.17188,0.26562 -0.17188,0.59375 0,0.23437 0.125,0.4375 0.125,0.20312 0.375,0.375 0.25,0.17187 0.59375,0.32812 0.35938,0.14063 0.82813,0.28125 0.79687,0.25 1.39062,0.54688 0.60938,0.29687 1,0.67187 0.40625,0.35938 0.60938,0.84375 0.21875,0.46875 0.21875,1.0625 0,0.625 -0.25,1.125 -0.25,0.5 -0.71875,0.84375 -0.45313,0.34375 -1.09375,0.51563 -0.64063,0.17187 -1.4375,0.17187 -0.71875,0 -1.42188,-0.1875 -0.6875,-0.1875 -1.26562,-0.5625 -0.5625,-0.39062 -0.90625,-0.98437 -0.32813,-0.59375 -0.32813,-1.40625 h 2 q 0,0.45312 0.14063,0.76562 0.14062,0.29688 0.39062,0.5 0.25,0.1875 0.60938,0.28125 0.35937,0.0781 0.78125,0.0781 0.51562,0 0.84375,-0.14063 0.34375,-0.15625 0.5,-0.40625 0.15625,-0.26562 0.15625,-0.57812 z m 6.52261,2.64062 q -0.84375,0 -1.51562,-0.26562 -0.65625,-0.26563 -1.125,-0.73438 -0.45313,-0.48437 -0.70313,-1.10937 -0.23437,-0.64063 -0.23437,-1.35938 v -0.26562 q 0,-0.8125 0.23437,-1.48438 0.23438,-0.67187 0.65625,-1.17187 0.4375,-0.5 1.0625,-0.76563 0.625,-0.26562 1.40625,-0.26562 0.76563,0 1.34375,0.25 0.59375,0.25 0.98438,0.71875 0.40625,0.45312 0.60937,1.10937 0.21875,0.64063 0.21875,1.4375 v 0.78125 h -5.70312 v -1.26562 h 3.82812 v -0.14063 q 0,-0.40625 -0.14062,-0.71875 -0.14063,-0.3125 -0.4375,-0.5 -0.28125,-0.1875 -0.71875,-0.1875 -0.375,0 -0.65625,0.17188 -0.26563,0.15625 -0.4375,0.46875 -0.17188,0.29687 -0.25,0.70312 -0.0781,0.39063 -0.0781,0.85938 v 0.26562 q 0,0.4375 0.10938,0.8125 0.125,0.35938 0.35937,0.625 0.23438,0.25 0.54688,0.40625 0.32812,0.14063 0.75,0.14063 0.51562,0 0.95312,-0.20313 0.45313,-0.20312 0.78125,-0.60937 l 0.9375,1 q -0.23437,0.32812 -0.625,0.625 -0.375,0.29687 -0.92187,0.48437 -0.54688,0.1875 -1.23438,0.1875 z m 8.24614,2.625 v -8.45312 l 0.25,-1.46875 h 1.67188 v 9.92187 z m -4.53123,-6.26562 v -0.14063 q 0,-0.8125 0.1875,-1.48437 0.1875,-0.67188 0.53125,-1.15625 0.35937,-0.48438 0.875,-0.73438 0.53125,-0.26562 1.21875,-0.26562 0.65623,0 1.12498,0.26562 0.48438,0.26563 0.8125,0.75 0.32813,0.48438 0.51563,1.14063 0.20312,0.65625 0.3125,1.4375 v 0.29687 q -0.10938,0.75 -0.3125,1.39063 -0.1875,0.64062 -0.51563,1.125 -0.32812,0.48437 -0.8125,0.75 -0.48437,0.26562 -1.14061,0.26562 -0.67187,0 -1.20312,-0.26562 -0.51563,-0.28125 -0.875,-0.76563 -0.34375,-0.48437 -0.53125,-1.15625 -0.1875,-0.67187 -0.1875,-1.45312 z m 1.90625,-0.14063 v 0.14063 q 0,0.45312 0.0781,0.84375 0.0781,0.375 0.23438,0.67187 0.17187,0.29688 0.42187,0.46875 0.26563,0.17188 0.64061,0.17188 0.51563,0 0.82813,-0.21875 0.32812,-0.23438 0.48437,-0.625 0.15625,-0.40625 0.1875,-0.92188 v -0.85937 q -0.0156,-0.42188 -0.10937,-0.75 -0.0937,-0.34375 -0.26563,-0.57813 -0.17187,-0.23437 -0.45312,-0.35937 -0.26563,-0.14063 -0.65625,-0.14063 -0.37499,0 -0.64061,0.17188 -0.26563,0.15625 -0.4375,0.45312 -0.15625,0.29688 -0.23438,0.6875 -0.0781,0.39063 -0.0781,0.84375 z m 10.28938,1.9375 v -5.45312 h 1.90625 v 7.17187 h -1.79687 z m 0.20313,-1.46875 0.5625,-0.0156 q 0,0.71875 -0.17188,1.32812 -0.15625,0.60938 -0.48437,1.0625 -0.32813,0.45313 -0.84375,0.70313 -0.5,0.23437 -1.17188,0.23437 -0.53125,0 -0.96875,-0.14062 -0.4375,-0.15625 -0.75,-0.46875 -0.3125,-0.32813 -0.5,-0.82813 -0.17187,-0.51562 -0.17187,-1.21875 v -4.64062 h 1.90625 v 4.65625 q 0,0.3125 0.0781,0.53125 0.0781,0.21875 0.21875,0.35937 0.14063,0.14063 0.32813,0.20313 0.1875,0.0469 0.42187,0.0469 0.57813,0 0.92188,-0.23437 0.34375,-0.23438 0.48437,-0.64063 0.14063,-0.42187 0.14063,-0.9375 z m 6.45517,3.3125 q -0.84375,0 -1.51563,-0.26562 -0.65625,-0.26563 -1.125,-0.73438 -0.45312,-0.48437 -0.70312,-1.10937 -0.23438,-0.64063 -0.23438,-1.35938 v -0.26562 q 0,-0.8125 0.23438,-1.48438 0.23437,-0.67187 0.65625,-1.17187 0.4375,-0.5 1.0625,-0.76563 0.625,-0.26562 1.40625,-0.26562 0.76562,0 1.34375,0.25 0.59375,0.25 0.98437,0.71875 0.40625,0.45312 0.60938,1.10937 0.21875,0.64063 0.21875,1.4375 v 0.78125 h -5.70313 v -1.26562 h 3.82813 v -0.14063 q 0,-0.40625 -0.14063,-0.71875 -0.14062,-0.3125 -0.4375,-0.5 -0.28125,-0.1875 -0.71875,-0.1875 -0.375,0 -0.65625,0.17188 -0.26562,0.15625 -0.4375,0.46875 -0.17187,0.29687 -0.25,0.70312 -0.0781,0.39063 -0.0781,0.85938 v 0.26562 q 0,0.4375 0.10937,0.8125 0.125,0.35938 0.35938,0.625 0.23437,0.25 0.54687,0.40625 0.32813,0.14063 0.75,0.14063 0.51563,0 0.95313,-0.20313 0.45312,-0.20312 0.78125,-0.60937 l 0.9375,1 q -0.23438,0.32812 -0.625,0.625 -0.375,0.29687 -0.92188,0.48437 -0.54687,0.1875 -1.23437,0.1875 z m 5.88678,-5.76562 v 5.64062 h -1.90625 v -7.17187 h 1.78125 z m -0.28125,1.8125 h -0.51563 q 0,-0.79688 0.20313,-1.4375 0.20312,-0.64063 0.57812,-1.09375 0.375,-0.45313 0.89063,-0.6875 0.51562,-0.25 1.14062,-0.25 0.5,0 0.92188,0.15625 0.42187,0.14062 0.71875,0.45312 0.29687,0.3125 0.45312,0.84375 0.17188,0.51563 0.17188,1.28125 v 4.5625 h -1.92188 v -4.57812 q 0,-0.46875 -0.14062,-0.73438 -0.125,-0.26562 -0.375,-0.375 -0.25,-0.10937 -0.625,-0.10937 -0.39063,0 -0.67188,0.15625 -0.28125,0.14062 -0.46875,0.42187 -0.17187,0.26563 -0.26562,0.625 -0.0937,0.34375 -0.0937,0.76563 z m 8.97741,2.46875 q 0.34375,0 0.60938,-0.125 0.28125,-0.14063 0.4375,-0.39063 0.15625,-0.25 0.15625,-0.59375 h 1.79687 q 0,0.76563 -0.40625,1.35938 -0.39062,0.57812 -1.0625,0.90625 -0.67187,0.32812 -1.5,0.32812 -0.82812,0 -1.45312,-0.26562 -0.60938,-0.28125 -1.03125,-0.76563 -0.40625,-0.5 -0.60938,-1.15625 -0.20312,-0.67187 -0.20312,-1.42187 v -0.1875 q 0,-0.76563 0.20312,-1.42188 0.20313,-0.65625 0.60938,-1.14062 0.42187,-0.5 1.03125,-0.78125 0.625,-0.28125 1.45312,-0.28125 0.875,0 1.53125,0.34375 0.67188,0.32812 1.04688,0.95312 0.39062,0.625 0.39062,1.48438 h -1.79687 q 0,-0.35938 -0.14063,-0.64063 -0.14062,-0.29687 -0.40625,-0.46875 -0.26562,-0.1875 -0.67187,-0.1875 -0.40625,0 -0.67188,0.1875 -0.26562,0.17188 -0.42187,0.46875 -0.14063,0.29688 -0.20313,0.6875 -0.0469,0.375 -0.0469,0.79688 v 0.1875 q 0,0.42187 0.0469,0.8125 0.0625,0.375 0.20313,0.67187 0.15625,0.29688 0.42187,0.46875 0.26563,0.17188 0.6875,0.17188 z m 7.40976,1.48437 q -0.84375,0 -1.51562,-0.26562 -0.65625,-0.26563 -1.125,-0.73438 -0.45313,-0.48437 -0.70313,-1.10937 -0.23437,-0.64063 -0.23437,-1.35938 v -0.26562 q 0,-0.8125 0.23437,-1.48438 0.23438,-0.67187 0.65625,-1.17187 0.4375,-0.5 1.0625,-0.76563 0.625,-0.26562 1.40625,-0.26562 0.76563,0 1.34375,0.25 0.59375,0.25 0.98438,0.71875 0.40625,0.45312 0.60937,1.10937 0.21875,0.64063 0.21875,1.4375 v 0.78125 h -5.70312 v -1.26562 h 3.82812 v -0.14063 q 0,-0.40625 -0.14062,-0.71875 -0.14063,-0.3125 -0.4375,-0.5 -0.28125,-0.1875 -0.71875,-0.1875 -0.375,0 -0.65625,0.17188 -0.26563,0.15625 -0.4375,0.46875 -0.17188,0.29687 -0.25,0.70312 -0.0781,0.39063 -0.0781,0.85938 v 0.26562 q 0,0.4375 0.10938,0.8125 0.125,0.35938 0.35937,0.625 0.23438,0.25 0.54688,0.40625 0.32812,0.14063 0.75,0.14063 0.51562,0 0.95312,-0.20313 0.45313,-0.20312 0.78125,-0.60937 l 0.9375,1 q -0.23437,0.32812 -0.625,0.625 -0.375,0.29687 -0.92187,0.48437 -0.54688,0.1875 -1.23438,0.1875 z m 11.429417,-8.125 -2.624997,8 h -2.10938 l 3.57813,-9.64062 h 1.343747 z m 2.17187,8 -2.625,-8 -0.203117,-1.64062 h 1.359367 l 3.59375,9.64062 z m -0.10937,-3.59375 v 1.5625 h -5.093747 v -1.5625 z m 7.5498,-3.57812 h 1.71875 v 6.9375 q 0,0.96875 -0.4375,1.65625 -0.42187,0.6875 -1.20312,1.04687 -0.76563,0.35938 -1.79688,0.35938 -0.45312,0 -0.95312,-0.125 -0.5,-0.125 -0.95313,-0.375 -0.45312,-0.25 -0.75,-0.625 l 0.82813,-1.14063 q 0.34375,0.39063 0.78125,0.60938 0.4375,0.21875 0.96875,0.21875 0.51562,0 0.85937,-0.20313 0.35938,-0.1875 0.54688,-0.54687 0.20312,-0.35938 0.20312,-0.85938 v -5.29687 z m -4.82812,3.67187 v -0.14062 q 0,-0.8125 0.20312,-1.48438 0.20313,-0.67187 0.57813,-1.15625 0.375,-0.48437 0.90625,-0.75 0.54687,-0.26562 1.21875,-0.26562 0.71875,0 1.20312,0.26562 0.48438,0.26563 0.78125,0.75 0.3125,0.48438 0.48438,1.14063 0.1875,0.65625 0.28125,1.45312 v 0.29688 q -0.0937,0.75 -0.29688,1.39062 -0.20312,0.64063 -0.53125,1.125 -0.3125,0.48438 -0.79687,0.75 -0.48438,0.25 -1.14063,0.25 -0.65625,0 -1.20312,-0.26562 -0.53125,-0.26563 -0.90625,-0.75 -0.375,-0.5 -0.57813,-1.15625 -0.20312,-0.67188 -0.20312,-1.45313 z m 1.90625,-0.14062 v 0.14062 q 0,0.45313 0.0781,0.84375 0.0937,0.375 0.28125,0.67188 0.1875,0.28125 0.45313,0.45312 0.28125,0.15625 0.65625,0.15625 0.51562,0 0.84375,-0.21875 0.34375,-0.21875 0.5,-0.60937 0.17187,-0.39063 0.20312,-0.90625 v -0.85938 q -0.0156,-0.42187 -0.125,-0.75 -0.0937,-0.34375 -0.28125,-0.57812 -0.17187,-0.23438 -0.45312,-0.35938 -0.28125,-0.14062 -0.67188,-0.14062 -0.375,0 -0.65625,0.17187 -0.28125,0.15625 -0.46875,0.45313 -0.17187,0.29687 -0.26562,0.6875 -0.0937,0.39062 -0.0937,0.84375 z m 9.4356,3.76562 q -0.84375,0 -1.51562,-0.26562 -0.65625,-0.26563 -1.125,-0.73438 -0.45313,-0.48437 -0.70313,-1.10937 -0.23437,-0.64063 -0.23437,-1.35938 v -0.26562 q 0,-0.8125 0.23437,-1.48438 0.23438,-0.67187 0.65625,-1.17187 0.4375,-0.5 1.0625,-0.76563 0.625,-0.26562 1.40625,-0.26562 0.76563,0 1.34375,0.25 0.59375,0.25 0.98438,0.71875 0.40625,0.45312 0.60937,1.10937 0.21875,0.64063 0.21875,1.4375 v 0.78125 h -5.70312 v -1.26562 h 3.82812 v -0.14063 q 0,-0.40625 -0.14062,-0.71875 -0.14063,-0.3125 -0.4375,-0.5 -0.28125,-0.1875 -0.71875,-0.1875 -0.375,0 -0.65625,0.17188 -0.26563,0.15625 -0.4375,0.46875 -0.17188,0.29687 -0.25,0.70312 -0.0781,0.39063 -0.0781,0.85938 v 0.26562 q 0,0.4375 0.10938,0.8125 0.125,0.35938 0.35937,0.625 0.23438,0.25 0.54688,0.40625 0.32812,0.14063 0.75,0.14063 0.51562,0 0.95312,-0.20313 0.45313,-0.20312 0.78125,-0.60937 l 0.9375,1 q -0.23437,0.32812 -0.625,0.625 -0.375,0.29687 -0.92187,0.48437 -0.54688,0.1875 -1.23438,0.1875 z m 5.88678,-5.76562 v 5.64062 h -1.90625 v -7.17187 h 1.78125 z m -0.28125,1.8125 h -0.51562 q 0,-0.79688 0.20312,-1.4375 0.20313,-0.64063 0.57813,-1.09375 0.375,-0.45313 0.89062,-0.6875 0.51563,-0.25 1.14063,-0.25 0.5,0 0.92187,0.15625 0.42188,0.14062 0.71875,0.45312 0.29688,0.3125 0.45313,0.84375 0.17187,0.51563 0.17187,1.28125 v 4.5625 h -1.92187 v -4.57812 q 0,-0.46875 -0.14063,-0.73438 -0.125,-0.26562 -0.375,-0.375 -0.25,-0.10937 -0.625,-0.10937 -0.39062,0 -0.67187,0.15625 -0.28125,0.14062 -0.46875,0.42187 -0.17188,0.26563 -0.26563,0.625 -0.0937,0.34375 -0.0937,0.76563 z m 9.5243,-3.34375 v 1.35937 h -4.17188 v -1.35937 z m -3.14063,-1.76563 h 1.90625 v 6.78125 q 0,0.3125 0.0781,0.48438 0.0937,0.15625 0.25,0.21875 0.17187,0.0625 0.42187,0.0625 0.1875,0 0.32813,-0.0156 0.14062,-0.0156 0.23437,-0.0312 l 0.0156,1.39063 q -0.25,0.0937 -0.54688,0.125 -0.28125,0.0469 -0.625,0.0469 -0.625,0 -1.09375,-0.20312 -0.46875,-0.20313 -0.71875,-0.67188 -0.25,-0.46875 -0.25,-1.21875 z"
     fill-rule="nonzero"
     id="path49" />
  <path
     fill="#e8f0fe"
     d="m 17.808863,95.266873 c 0,-1.23447 1.00073,-2.2352 2.23518,-2.2352 H 144.17208 c 0.59284,0 1.16135,0.23551 1.58054,0.65468 0.41919,0.41917 0.65466,0.9877 0.65466,1.58052 v 25.387877 c 0,1.23445 -1.00073,2.23518 -2.2352,2.23518 H 20.044043 c -1.23445,0 -2.23518,-1.00073 -2.23518,-2.23518 z"
     fill-rule="evenodd"
     id="path50" />
  <path
     stroke="#1a73e8"
     stroke-width="1"
     stroke-linejoin="round"
     stroke-linecap="butt"
     d="m 17.808863,95.266873 c 0,-1.23447 1.00073,-2.2352 2.23518,-2.2352 H 144.17208 c 0.59284,0 1.16135,0.23551 1.58054,0.65468 0.41919,0.41917 0.65466,0.9877 0.65466,1.58052 v 25.387877 c 0,1.23445 -1.00073,2.23518 -2.2352,2.23518 H 20.044043 c -1.23445,0 -2.23518,-1.00073 -2.23518,-2.23518 z"
     fill-rule="evenodd"
     id="path51" />
  <path
     fill="#174ea6"
     d="m 63.233783,104.12018 -3.14062,8.64062 h -1.28125 l 3.60937,-9.46875 h 0.82813 z m 2.625,8.64062 -3.14062,-8.64062 -0.0156,-0.82813 h 0.82813 l 3.625,9.46875 z m -0.15625,-3.5 v 1.01563 h -5.32812 v -1.01563 z m 7.10077,-3.54687 h 1.09375 v 6.89062 q 0,0.9375 -0.39063,1.59375 -0.375,0.65625 -1.04687,1 -0.67188,0.34375 -1.54688,0.34375 -0.35937,0 -0.85937,-0.125 -0.48438,-0.10937 -0.96875,-0.375 -0.46875,-0.26562 -0.78125,-0.71875 l 0.625,-0.71875 q 0.45312,0.53125 0.9375,0.73438 0.48437,0.21875 0.95312,0.21875 0.57813,0 0.98438,-0.21875 0.42187,-0.21875 0.65625,-0.64063 0.23437,-0.42187 0.23437,-1.03125 v -5.40625 z m -4.85938,3.60937 v -0.14062 q 0,-0.8125 0.1875,-1.46875 0.20313,-0.65625 0.5625,-1.125 0.35938,-0.48438 0.875,-0.73438 0.51563,-0.26562 1.15625,-0.26562 0.67188,0 1.15625,0.23437 0.5,0.23438 0.84375,0.67188 0.35938,0.4375 0.5625,1.0625 0.20313,0.60937 0.28125,1.39062 v 0.59375 q -0.0781,0.78125 -0.28125,1.40625 -0.20312,0.60938 -0.5625,1.04688 -0.34375,0.4375 -0.84375,0.67187 -0.5,0.21875 -1.17187,0.21875 -0.625,0 -1.14063,-0.26562 -0.5,-0.26563 -0.875,-0.73438 -0.35937,-0.48437 -0.5625,-1.14062 -0.1875,-0.65625 -0.1875,-1.42188 z m 1.20313,-0.14062 v 0.14062 q 0,0.51563 0.10937,0.98438 0.10938,0.46875 0.32813,0.82812 0.23437,0.34375 0.57812,0.54688 0.35938,0.1875 0.84375,0.1875 0.59375,0 0.98438,-0.25 0.39062,-0.26563 0.625,-0.67188 0.23437,-0.42187 0.35937,-0.90625 v -1.5625 q -0.0625,-0.35937 -0.21875,-0.6875 -0.14062,-0.34375 -0.375,-0.60937 -0.23437,-0.26563 -0.57812,-0.42188 -0.32813,-0.15625 -0.78125,-0.15625 -0.5,0 -0.85938,0.20313 -0.34375,0.20312 -0.57812,0.5625 -0.21875,0.35937 -0.32813,0.82812 -0.10937,0.45313 -0.10937,0.98438 z m 9.49966,3.70312 q -0.73437,0 -1.34375,-0.25 -0.59375,-0.25 -1.01562,-0.70312 -0.42188,-0.45313 -0.65625,-1.07813 -0.21875,-0.625 -0.21875,-1.375 v -0.26562 q 0,-0.85938 0.25,-1.53125 0.25,-0.67188 0.6875,-1.14063 0.4375,-0.46875 0.98437,-0.70312 0.5625,-0.25 1.15625,-0.25 0.75,0 1.29688,0.26562 0.54687,0.25 0.89062,0.71875 0.35938,0.46875 0.53125,1.09375 0.17188,0.625 0.17188,1.375 v 0.53125 h -5.25 v -0.98437 h 4.04687 v -0.0781 q -0.0312,-0.46875 -0.20312,-0.90625 -0.15625,-0.45312 -0.51563,-0.73437 -0.35937,-0.29688 -0.96875,-0.29688 -0.40625,0 -0.76562,0.17188 -0.34375,0.17187 -0.59375,0.51562 -0.23438,0.34375 -0.375,0.82813 -0.14063,0.48437 -0.14063,1.125 v 0.26562 q 0,0.51563 0.14063,0.95313 0.14062,0.4375 0.40625,0.76562 0.28125,0.32813 0.65625,0.51563 0.39062,0.1875 0.89062,0.1875 0.64063,0 1.07813,-0.25 0.4375,-0.26563 0.78125,-0.70313 l 0.71875,0.57813 q -0.21875,0.34375 -0.57813,0.65625 -0.34375,0.3125 -0.85937,0.51562 -0.51563,0.1875 -1.20313,0.1875 z m 5.34882,-5.65625 v 5.53125 h -1.20313 v -7.04687 h 1.14063 z m -0.29688,1.75 -0.5,-0.0312 q 0.0156,-0.71875 0.21875,-1.32812 0.20313,-0.625 0.57813,-1.07813 0.39062,-0.45312 0.90625,-0.70312 0.53125,-0.25 1.17187,-0.25 0.51563,0 0.92188,0.14062 0.42187,0.14063 0.71875,0.45313 0.29687,0.29687 0.45312,0.78125 0.15625,0.48437 0.15625,1.1875 v 4.60937 h -1.20312 v -4.625 q 0,-0.5625 -0.17188,-0.89062 -0.15625,-0.32813 -0.46875,-0.48438 -0.3125,-0.15625 -0.76562,-0.15625 -0.45313,0 -0.82813,0.1875 -0.35937,0.1875 -0.625,0.53125 -0.26562,0.32813 -0.42187,0.75 -0.14063,0.42188 -0.14063,0.90625 z m 9.39167,-3.26562 v 0.92187 h -3.79688 v -0.92187 z m -2.51563,-1.70313 h 1.20313 v 7 q 0,0.35938 0.10937,0.54688 0.10938,0.1875 0.28125,0.25 0.1875,0.0469 0.39063,0.0469 0.14062,0 0.3125,-0.0312 0.17187,-0.0312 0.25,-0.0469 v 0.98437 q -0.14063,0.0469 -0.375,0.0781 -0.21875,0.0469 -0.54688,0.0469 -0.4375,0 -0.8125,-0.17187 -0.375,-0.17188 -0.59375,-0.57813 -0.21875,-0.42187 -0.21875,-1.125 z m 10.931887,0.10938 -3.140627,8.64062 h -1.28125 l 3.609377,-9.46875 h 0.82812 z m 2.625,8.64062 -3.14063,-8.64062 -0.0156,-0.82813 h 0.82812 l 3.625,9.46875 z m -0.15625,-3.5 v 1.01563 h -5.328127 v -1.01563 z"
     fill-rule="nonzero"
     id="path52" />
  <path
     fill="#e8f0fe"
     d="m 17.808863,153.44382 c 0,-1.23447 1.00073,-2.2352 2.23518,-2.2352 H 144.17208 c 0.59284,0 1.16135,0.23551 1.58054,0.65466 0.41919,0.41919 0.65466,0.98774 0.65466,1.58054 v 25.38788 c 0,1.23446 -1.00073,2.2352 -2.2352,2.2352 H 20.044043 c -1.23445,0 -2.23518,-1.00074 -2.23518,-2.2352 z"
     fill-rule="evenodd"
     id="path53" />
  <path
     stroke="#1a73e8"
     stroke-width="1"
     stroke-linejoin="round"
     stroke-linecap="butt"
     d="m 17.808863,153.44382 c 0,-1.23447 1.00073,-2.2352 2.23518,-2.2352 H 144.17208 c 0.59284,0 1.16135,0.23551 1.58054,0.65466 0.41919,0.41919 0.65466,0.98774 0.65466,1.58054 v 25.38788 c 0,1.23446 -1.00073,2.2352 -2.2352,2.2352 H 20.044043 c -1.23445,0 -2.23518,-1.00074 -2.23518,-2.2352 z"
     fill-rule="evenodd"
     id="path54" />
  <path
     fill="#174ea6"
     d="m 63.429013,162.29712 -3.14063,8.64062 h -1.28125 l 3.60938,-9.46875 h 0.82812 z m 2.625,8.64062 -3.14063,-8.64062 -0.0156,-0.82813 h 0.82812 l 3.625,9.46875 z m -0.15625,-3.5 v 1.01563 h -5.32813 v -1.01563 z m 7.10077,-3.54687 h 1.09375 v 6.89062 q 0,0.9375 -0.39063,1.59375 -0.375,0.65625 -1.04687,1 -0.67188,0.34375 -1.54688,0.34375 -0.35937,0 -0.85937,-0.125 -0.48438,-0.10937 -0.96875,-0.375 -0.46875,-0.26562 -0.78125,-0.71875 l 0.625,-0.71875 q 0.45312,0.53125 0.9375,0.73438 0.48437,0.21875 0.95312,0.21875 0.57813,0 0.98438,-0.21875 0.42187,-0.21875 0.65625,-0.64063 0.23437,-0.42187 0.23437,-1.03125 v -5.40625 z m -4.85938,3.60937 v -0.14062 q 0,-0.8125 0.1875,-1.46875 0.20313,-0.65625 0.5625,-1.125 0.35938,-0.48438 0.875,-0.73438 0.51563,-0.26562 1.15625,-0.26562 0.67188,0 1.15625,0.23437 0.5,0.23438 0.84375,0.67188 0.35938,0.4375 0.5625,1.0625 0.20313,0.60937 0.28125,1.39062 v 0.59375 q -0.0781,0.78125 -0.28125,1.40625 -0.20312,0.60938 -0.5625,1.04688 -0.34375,0.4375 -0.84375,0.67187 -0.5,0.21875 -1.17187,0.21875 -0.625,0 -1.14063,-0.26562 -0.5,-0.26563 -0.875,-0.73438 -0.35937,-0.48437 -0.5625,-1.14062 -0.1875,-0.65625 -0.1875,-1.42188 z m 1.20313,-0.14062 v 0.14062 q 0,0.51563 0.10937,0.98438 0.10938,0.46875 0.32813,0.82812 0.23437,0.34375 0.57812,0.54688 0.35938,0.1875 0.84375,0.1875 0.59375,0 0.98438,-0.25 0.39062,-0.26563 0.625,-0.67188 0.23437,-0.42187 0.35937,-0.90625 v -1.5625 q -0.0625,-0.35937 -0.21875,-0.6875 -0.14062,-0.34375 -0.375,-0.60937 -0.23437,-0.26563 -0.57812,-0.42188 -0.32813,-0.15625 -0.78125,-0.15625 -0.5,0 -0.85938,0.20313 -0.34375,0.20312 -0.57812,0.5625 -0.21875,0.35937 -0.32813,0.82812 -0.10937,0.45313 -0.10937,0.98438 z m 9.49969,3.70312 q -0.73437,0 -1.34375,-0.25 -0.59375,-0.25 -1.01562,-0.70312 -0.42188,-0.45313 -0.65625,-1.07813 -0.21875,-0.625 -0.21875,-1.375 v -0.26562 q 0,-0.85938 0.25,-1.53125 0.25,-0.67188 0.6875,-1.14063 0.4375,-0.46875 0.98437,-0.70312 0.5625,-0.25 1.15625,-0.25 0.75,0 1.29688,0.26562 0.54687,0.25 0.89062,0.71875 0.35938,0.46875 0.53125,1.09375 0.17188,0.625 0.17188,1.375 v 0.53125 h -5.25 v -0.98437 h 4.04687 v -0.0781 q -0.0312,-0.46875 -0.20312,-0.90625 -0.15625,-0.45312 -0.51563,-0.73437 -0.35937,-0.29688 -0.96875,-0.29688 -0.40625,0 -0.76562,0.17188 -0.34375,0.17187 -0.59375,0.51562 -0.23438,0.34375 -0.375,0.82813 -0.14063,0.48437 -0.14063,1.125 v 0.26562 q 0,0.51563 0.14063,0.95313 0.14062,0.4375 0.40625,0.76562 0.28125,0.32813 0.65625,0.51563 0.39062,0.1875 0.89062,0.1875 0.64063,0 1.07813,-0.25 0.4375,-0.26563 0.78125,-0.70313 l 0.71875,0.57813 q -0.21875,0.34375 -0.57813,0.65625 -0.34375,0.3125 -0.85937,0.51562 -0.51563,0.1875 -1.20313,0.1875 z m 5.34879,-5.65625 v 5.53125 h -1.20313 v -7.04687 h 1.14063 z m -0.29688,1.75 -0.5,-0.0312 q 0.0156,-0.71875 0.21875,-1.32812 0.20313,-0.625 0.57813,-1.07813 0.39062,-0.45312 0.90625,-0.70312 0.53125,-0.25 1.17187,-0.25 0.51563,0 0.92188,0.14062 0.42187,0.14063 0.71875,0.45313 0.29687,0.29687 0.45312,0.78125 0.15625,0.48437 0.15625,1.1875 v 4.60937 h -1.20312 v -4.625 q 0,-0.5625 -0.17188,-0.89062 -0.15625,-0.32813 -0.46875,-0.48438 -0.3125,-0.15625 -0.76562,-0.15625 -0.45313,0 -0.82813,0.1875 -0.35937,0.1875 -0.625,0.53125 -0.26562,0.32813 -0.42187,0.75 -0.14063,0.42183 -0.14063,0.9062 z m 9.39167,-3.26562 v 0.92187 h -3.79688 v -0.92187 z m -2.51563,-1.70313 h 1.20313 v 7 q 0,0.35938 0.10937,0.54688 0.10938,0.1875 0.28125,0.25 0.1875,0.0469 0.39063,0.0469 0.14062,0 0.3125,-0.0312 0.17187,-0.0312 0.25,-0.0469 v 0.98437 q -0.14063,0.0469 -0.375,0.0781 -0.21875,0.0469 -0.54688,0.0469 -0.4375,0 -0.8125,-0.17187 -0.375,-0.17188 -0.59375,-0.57813 -0.21875,-0.42187 -0.21875,-1.125 z m 10.806917,4.3125 h -2.406247 l -0.0156,-1 h 2.187497 q 0.53125,0 0.9375,-0.1875 0.40625,-0.1875 0.625,-0.51562 0.23438,-0.34375 0.23438,-0.82813 0,-0.51562 -0.20313,-0.84375 -0.20312,-0.32812 -0.60937,-0.48437 -0.40625,-0.15625 -1.03125,-0.15625 h -1.843747 v 8.45312 h -1.26563 v -9.46875 h 3.109377 q 0.73437,0 1.29687,0.14063 0.57813,0.14062 0.96875,0.45312 0.40625,0.3125 0.60938,0.79688 0.21875,0.46875 0.21875,1.125 0,0.59375 -0.29688,1.0625 -0.29687,0.46875 -0.82812,0.76562 -0.53125,0.29688 -1.25,0.39063 z m -0.0625,4.4375 h -2.843747 l 0.71875,-1.01562 h 2.124997 q 0.59375,0 1.01562,-0.20313 0.42188,-0.21875 0.64063,-0.59375 0.21875,-0.39062 0.21875,-0.90625 0,-0.53125 -0.1875,-0.90625 -0.1875,-0.39062 -0.59375,-0.59375 -0.40625,-0.21875 -1.03125,-0.21875 h -1.796877 l 0.0156,-1 h 2.437497 l 0.28125,0.35938 q 0.67187,0.0625 1.14062,0.39062 0.48438,0.32813 0.73438,0.84375 0.25,0.5 0.25,1.10938 0,0.89062 -0.39063,1.5 -0.375,0.60937 -1.07812,0.92187 -0.70313,0.3125 -1.65625,0.3125 z"
     fill-rule="nonzero"
     id="path55" />
  <path
     fill="#e8f0fe"
     d="m 17.808863,211.61832 c 0,-1.23444 1.00073,-2.23517 2.23518,-2.23517 H 144.17208 c 0.59284,0 1.16135,0.23548 1.58054,0.65466 0.41919,0.41919 0.65466,0.98771 0.65466,1.58051 v 25.38791 c 0,1.23443 -1.00073,2.23517 -2.2352,2.23517 H 20.044043 c -1.23445,0 -2.23518,-1.00073 -2.23518,-2.23517 z"
     fill-rule="evenodd"
     id="path56" />
  <path
     stroke="#1a73e8"
     stroke-width="1"
     stroke-linejoin="round"
     stroke-linecap="butt"
     d="m 17.808863,211.61832 c 0,-1.23444 1.00073,-2.23517 2.23518,-2.23517 H 144.17208 c 0.59284,0 1.16135,0.23548 1.58054,0.65466 0.41919,0.41919 0.65466,0.98771 0.65466,1.58051 v 25.38791 c 0,1.23443 -1.00073,2.23517 -2.2352,2.23517 H 20.044043 c -1.23445,0 -2.23518,-1.00073 -2.23518,-2.23517 z"
     fill-rule="evenodd"
     id="path57" />
  <path
     fill="#174ea6"
     d="m 63.243533,220.47165 -3.14062,8.64062 h -1.28125 l 3.60937,-9.46875 h 0.82813 z m 2.625,8.64062 -3.14062,-8.64062 -0.0156,-0.82813 h 0.82813 l 3.625,9.46875 z m -0.15625,-3.5 v 1.01563 h -5.32812 v -1.01563 z m 7.10077,-3.54687 h 1.09375 v 6.89062 q 0,0.9375 -0.39063,1.59375 -0.375,0.65625 -1.04687,1 -0.67188,0.34375 -1.54688,0.34375 -0.35937,0 -0.85937,-0.125 -0.48438,-0.10937 -0.96875,-0.375 -0.46875,-0.26562 -0.78125,-0.71875 l 0.625,-0.71875 q 0.45312,0.53125 0.9375,0.73438 0.48437,0.21875 0.95312,0.21875 0.57813,0 0.98438,-0.21875 0.42187,-0.21875 0.65625,-0.64063 0.23437,-0.42187 0.23437,-1.03125 v -5.40625 z m -4.85938,3.60937 v -0.14062 q 0,-0.8125 0.1875,-1.46875 0.20313,-0.65625 0.5625,-1.125 0.35938,-0.48438 0.875,-0.73438 0.51563,-0.26562 1.15625,-0.26562 0.67188,0 1.15625,0.23437 0.5,0.23438 0.84375,0.67188 0.35938,0.4375 0.5625,1.0625 0.20313,0.60937 0.28125,1.39062 v 0.59375 q -0.0781,0.78125 -0.28125,1.40625 -0.20312,0.60938 -0.5625,1.04688 -0.34375,0.4375 -0.84375,0.67187 -0.5,0.21875 -1.17187,0.21875 -0.625,0 -1.14063,-0.26562 -0.5,-0.26563 -0.875,-0.73438 -0.35937,-0.48437 -0.5625,-1.14062 -0.1875,-0.65625 -0.1875,-1.42188 z m 1.20313,-0.14062 v 0.14062 q 0,0.51563 0.10937,0.98438 0.10938,0.46875 0.32813,0.82812 0.23437,0.34375 0.57812,0.54688 0.35938,0.1875 0.84375,0.1875 0.59375,0 0.98438,-0.25 0.39062,-0.26563 0.625,-0.67188 0.23437,-0.42187 0.35937,-0.90625 v -1.5625 q -0.0625,-0.35937 -0.21875,-0.6875 -0.14062,-0.34375 -0.375,-0.60937 -0.23437,-0.26563 -0.57812,-0.42188 -0.32813,-0.15625 -0.78125,-0.15625 -0.5,0 -0.85938,0.20313 -0.34375,0.20312 -0.57812,0.5625 -0.21875,0.35937 -0.32813,0.82812 -0.10937,0.45313 -0.10937,0.98438 z m 9.49969,3.70312 q -0.73437,0 -1.34375,-0.25 -0.59375,-0.25 -1.01562,-0.70312 -0.42188,-0.45313 -0.65625,-1.07813 -0.21875,-0.625 -0.21875,-1.375 v -0.26562 q 0,-0.85938 0.25,-1.53125 0.25,-0.67188 0.6875,-1.14063 0.4375,-0.46875 0.98437,-0.70312 0.5625,-0.25 1.15625,-0.25 0.75,0 1.29688,0.26562 0.54687,0.25 0.89062,0.71875 0.35938,0.46875 0.53125,1.09375 0.17188,0.625 0.17188,1.375 v 0.53125 h -5.25 v -0.98437 h 4.04687 v -0.0781 q -0.0312,-0.46875 -0.20312,-0.90625 -0.15625,-0.45312 -0.51563,-0.73437 -0.35937,-0.29688 -0.96875,-0.29688 -0.40625,0 -0.76562,0.17188 -0.34375,0.17187 -0.59375,0.51562 -0.23438,0.34375 -0.375,0.82813 -0.14063,0.48437 -0.14063,1.125 v 0.26562 q 0,0.51563 0.14063,0.95313 0.14062,0.4375 0.40625,0.76562 0.28125,0.32813 0.65625,0.51563 0.39062,0.1875 0.89062,0.1875 0.64063,0 1.07813,-0.25 0.4375,-0.26563 0.78125,-0.70313 l 0.71875,0.57813 q -0.21875,0.34375 -0.57813,0.65625 -0.34375,0.3125 -0.85937,0.51562 -0.51563,0.1875 -1.20313,0.1875 z m 5.34879,-5.65625 v 5.53125 h -1.20313 v -7.04687 h 1.14063 z m -0.29688,1.75 -0.5,-0.0312 q 0.0156,-0.71875 0.21875,-1.32812 0.20313,-0.625 0.57813,-1.07813 0.39062,-0.45312 0.90625,-0.70312 0.53125,-0.25 1.17187,-0.25 0.51563,0 0.92188,0.14062 0.42187,0.14063 0.71875,0.45313 0.29687,0.29687 0.45312,0.78125 0.15625,0.48437 0.15625,1.1875 v 4.60937 h -1.20312 v -4.625 q 0,-0.5625 -0.17188,-0.89062 -0.15625,-0.32813 -0.46875,-0.48438 -0.3125,-0.15625 -0.76562,-0.15625 -0.45313,0 -0.82813,0.1875 -0.35937,0.1875 -0.625,0.53125 -0.26562,0.32813 -0.42187,0.75 -0.14063,0.42188 -0.14063,0.90625 z m 9.39167,-3.26562 v 0.92187 h -3.79688 v -0.92187 z m -2.51563,-1.70313 h 1.20313 v 7 q 0,0.35938 0.10937,0.54688 0.10938,0.1875 0.28125,0.25 0.1875,0.0469 0.39063,0.0469 0.14062,0 0.3125,-0.0312 0.17187,-0.0312 0.25,-0.0469 v 0.98437 q -0.14063,0.0469 -0.375,0.0781 -0.21875,0.0469 -0.54688,0.0469 -0.4375,0 -0.8125,-0.17187 -0.375,-0.17188 -0.59375,-0.57813 -0.21875,-0.42187 -0.21875,-1.125 z m 13.135037,5.73438 h 1.25 q -0.0937,0.90625 -0.51562,1.60937 -0.40625,0.70313 -1.17188,1.125 -0.76562,0.40625 -1.89062,0.40625 -0.84375,0 -1.531247,-0.3125 -0.67188,-0.3125 -1.15625,-0.875 -0.48438,-0.57812 -0.75,-1.39062 -0.26563,-0.8125 -0.26563,-1.8125 v -0.9375 q 0,-1 0.26563,-1.8125 0.26562,-0.8125 0.75,-1.39063 0.5,-0.57812 1.20312,-0.89062 0.703127,-0.3125 1.593747,-0.3125 1.0625,0 1.79688,0.40625 0.75,0.40625 1.15625,1.125 0.42187,0.70312 0.51562,1.64062 h -1.25 q -0.0781,-0.65625 -0.32812,-1.14062 -0.25,-0.48438 -0.70313,-0.73438 -0.45312,-0.26562 -1.1875,-0.26562 -0.64062,0 -1.125,0.25 -0.468747,0.23437 -0.796867,0.6875 -0.3125,0.4375 -0.48438,1.0625 -0.15625,0.60937 -0.15625,1.35937 v 0.95313 q 0,0.70312 0.14063,1.3125 0.15625,0.60937 0.45312,1.07812 0.29688,0.45313 0.749997,0.71875 0.46875,0.26563 1.10938,0.26563 0.79687,0 1.26562,-0.25 0.48438,-0.26563 0.71875,-0.73438 0.25,-0.46875 0.34375,-1.14062 z"
     fill-rule="nonzero"
     id="path58" />
  <path
     fill="#000000"
     fill-opacity="0"
     d="m 82.108083,122.88992 v 28.31497"
     fill-rule="evenodd"
     id="path59" />
  <path
     stroke="#595959"
     stroke-width="1"
     stroke-linejoin="round"
     stroke-linecap="butt"
     d="m 82.108083,122.88992 v 22.31497"
     fill-rule="evenodd"
     id="path60" />
  <path
     fill="#595959"
     stroke="#595959"
     stroke-width="1"
     stroke-linecap="butt"
     d="m 80.456363,145.2049 1.65173,4.53809 1.65174,-4.53809 z"
     fill-rule="evenodd"
     id="path61" />
  <path
     fill="#000000"
     fill-opacity="0"
     d="m 82.108083,181.0669 v 28.31494"
     fill-rule="evenodd"
     id="path62" />
  <path
     stroke="#595959"
     stroke-width="1"
     stroke-linejoin="round"
     stroke-linecap="butt"
     d="m 82.108083,181.0669 v 22.31497"
     fill-rule="evenodd"
     id="path63" />
  <path
     fill="#595959"
     stroke="#595959"
     stroke-width="1"
     stroke-linecap="butt"
     d="m 80.456363,203.38187 1.65173,4.53809 1.65174,-4.53809 z"
     fill-rule="evenodd"
     id="path64" />
</svg>
